<svg width="22px" height="16px" viewBox="0 0 22 16" version="1.1"
     xmlns="http://www.w3.org/2000/svg">
    <g stroke="none" stroke-width="1" fill-rule="evenodd">
        <g transform="translate(-302.000000, -426.000000)" fill="#1A5EB8">
            <path d="M323.99875,434.00025 C323.99875,433.44825 323.55175,433.00025 322.99875,433.00025 L305.41275,433.00025 L310.70575,427.70725 C311.09675,427.31625 311.09675,426.68425 310.70575,426.29325 C310.31475,425.90225 309.68275,425.90225 309.29175,426.29325 L302.29275,433.29225 C302.19975,433.38525 302.12675,433.49525 302.07575,433.61825 C301.97475,433.86225 301.97475,434.13825 302.07575,434.38225 C302.12675,434.50525 302.19975,434.61525 302.29275,434.70825 L309.29175,441.70725 C309.48675,441.90225 309.74275,442.00025 309.99875,442.00025 C310.25475,442.00025 310.51075,441.90225 310.70575,441.70725 C311.09675,441.31625 311.09675,440.68425 310.70575,440.29325 L305.41275,435.00025 L322.99875,435.00025 C323.55175,435.00025 323.99875,434.55225 323.99875,434.00025"/>
        </g>
    </g>
</svg>
