<svg width="30" height="28" viewBox="0 0 30 28" xmlns="http://www.w3.org/2000/svg"><g fill-rule="evenodd"><path d="M27.5 14.83l-5.45-4.54c-.526-.437-1.304-.373-1.75.147l-6.713 7.833-5.306-4.247c-.456-.363-1.104-.363-1.56 0L2.5 17.398V2.5h25v12.33zM28.75 0H1.25C.56 0 0 .56 0 1.25v25c0 .69.56 1.25 1.25 1.25h27.5c.69 0 1.25-.56 1.25-1.25v-25C30 .56 29.44 0 28.75 0z"/><path d="M12.5 12.5c2.068 0 3.75-1.682 3.75-3.75C16.25 6.683 14.568 5 12.5 5S8.75 6.683 8.75 8.75c0 2.068 1.682 3.75 3.75 3.75"/></g></svg>