<svg width="24px" height="24px" viewBox="0 0 24 24" version="1.1"
     xmlns="http://www.w3.org/2000/svg">
    <g stroke="none" stroke-width="1" fill="none" fill-rule="evenodd">
        <g transform="translate(-173.000000, -422.000000)" fill="#C5CED9">
            <path d="M187,440 L183,440 C182.447,440 182,439.552 182,439 C182,438.448 182.447,438 183,438 L184,438 L184,434 L183,434 C182.447,434 182,433.552 182,433 C182,432.448 182.447,432 183,432 L185,432 C185.553,432 186,432.448 186,433 L186,438 L187,438 C187.553,438 188,438.448 188,439 C188,439.552 187.553,440 187,440 L187,440 Z M184,428 C184,427.448 184.447,427 185,427 C185.553,427 186,427.448 186,428 L186,429 C186,429.552 185.553,430 185,430 C184.447,430 184,429.552 184,429 L184,428 Z M185,422 C178.383,422 173,427.383 173,434 C173,440.617 178.383,446 185,446 C191.617,446 197,440.617 197,434 C197,427.383 191.617,422 185,422 L185,422 Z"/>
        </g>
    </g>
</svg>
