<svg width="22" height="22" viewBox="0 0 22 22" xmlns="http://www.w3.org/2000/svg">
  <title>
    question
  </title>
  <path d="M11.917 11.796v.12a.916.916 0 0 1-1.834 0V11c0-.506.41-.917.917-.917.976 0 1.833-.856 1.833-1.833 0-.976-.857-1.833-1.833-1.833-.744 0-1.46.616-1.72 1.212a.914.914 0 0 1-1.206.47.913.913 0 0 1-.473-1.207c.587-1.338 2.016-2.31 3.4-2.31 1.988 0 3.668 1.68 3.668 3.666 0 1.672-1.19 3.126-2.75 3.545zm0 4.704a.916.916 0 0 1-1.834 0v-.917a.916.916 0 0 1 1.834 0v.917zM11 0C4.934 0 0 4.935 0 11c0 6.066 4.934 11 11 11s11-4.934 11-11c0-6.065-4.934-11-11-11z"/>
</svg>
