<svg width="22px" height="22px" viewBox="0 0 22 22" version="1.1" xmlns="http://www.w3.org/2000/svg" xmlns:xlink="http://www.w3.org/1999/xlink"">
    <g id="Style-Guide" stroke="none" stroke-width="1" fill="none" fill-rule="evenodd" sketch:type="MSPage">
        <g id="Builder-Style-Guide" sketch:type="MSArtboardGroup" transform="translate(-353.000000, -915.000000)" fill="#999999">
            <g id="Single-Input" sketch:type="MSLayerGroup" transform="translate(96.000000, 915.000000)">
                <path d="M268.916667,11.7956667 L268.916667,11.9166667 C268.916667,12.4235833 268.506917,12.8333333 268,12.8333333 C267.493083,12.8333333 267.083333,12.4235833 267.083333,11.9166667 L267.083333,11 C267.083333,10.494 267.493083,10.0833333 268,10.0833333 C268.97625,10.0833333 269.833333,9.22716667 269.833333,8.25 C269.833333,7.27375 268.97625,6.41666667 268,6.41666667 C267.255667,6.41666667 266.540667,7.03266667 266.280333,7.6285 C266.07775,8.09141667 265.542417,8.305 265.074,8.1015 C264.610167,7.89891667 264.3975,7.359 264.601,6.89425 C265.185833,5.55591667 266.614917,4.58333333 268,4.58333333 C269.987333,4.58333333 271.666667,6.26266667 271.666667,8.25 C271.666667,9.92291667 270.47775,11.37675 268.916667,11.7956667 L268.916667,11.7956667 Z M268.916667,16.5 C268.916667,17.0069167 268.506917,17.4166667 268,17.4166667 C267.493083,17.4166667 267.083333,17.0069167 267.083333,16.5 L267.083333,15.5833333 C267.083333,15.0773333 267.493083,14.6666667 268,14.6666667 C268.506917,14.6666667 268.916667,15.0773333 268.916667,15.5833333 L268.916667,16.5 Z M268,0 C261.934417,0 257,4.93533333 257,11 C257,17.0655833 261.934417,22 268,22 C274.065583,22 279,17.0655833 279,11 C279,4.93533333 274.065583,0 268,0 L268,0 Z" id="question" sketch:type="MSShapeGroup"></path>
            </g>
         </g>
     </g>
 </svg>