<svg width="22" height="22" viewBox="0 0 22 22" xmlns="http://www.w3.org/2000/svg"><title>question</title><path d="M11.917 11.796v.12c0 .508-.41.917-.917.917-.507 0-.917-.41-.917-.916V11c0-.506.41-.917.917-.917.976 0 1.833-.856 1.833-1.833 0-.976-.857-1.833-1.833-1.833-.744 0-1.46.616-1.72 1.212-.202.46-.738.675-1.206.47-.464-.2-.677-.74-.473-1.206.586-1.338 2.015-2.31 3.4-2.31 1.987 0 3.667 1.68 3.667 3.666 0 1.673-1.19 3.127-2.75 3.546zm0 4.704c0 .507-.41.917-.917.917-.507 0-.917-.41-.917-.917v-.917c0-.506.41-.916.917-.916.507 0 .917.41.917.916v.917zM11 0C4.934 0 0 4.935 0 11c0 6.066 4.934 11 11 11s11-4.934 11-11c0-6.065-4.934-11-11-11z"/></svg>