<svg width="30px" height="28px" viewBox="0 0 30 28" version="1.1"
     xmlns="http://www.w3.org/2000/svg">
    <g stroke="none" stroke-width="1" fill="none" fill-rule="evenodd">
        <g transform="translate(-96.000000, -543.000000)" fill="#C5CED9">
            <g transform="translate(96.000000, 543.000000)">
                <path d="M0,8 L29.9920825,8 L29.9920825,20.5 L0,20.5 L0,8 Z M12.4035088,16 L24.9298246,16 C25.3372982,16 25.6666667,15.66475 25.6666667,15.25 L25.6666667,13.75 C25.6666667,13.33525 25.3372982,13 24.9298246,13 L12.4035088,13 C11.9960351,13 11.6666667,13.33525 11.6666667,13.75 L11.6666667,15.25 C11.6666667,15.66475 11.9960351,16 12.4035088,16 Z M4.6875,16.3333333 L7.8125,16.3333333 C8.10052083,16.3333333 8.33333333,16.1005208 8.33333333,15.8125 L8.33333333,12.6875 C8.33333333,12.3994792 8.10052083,12.1666667 7.8125,12.1666667 L4.6875,12.1666667 C4.39947917,12.1666667 4.16666667,12.3994792 4.16666667,12.6875 L4.16666667,15.8125 C4.16666667,16.1005208 4.39947917,16.3333333 4.6875,16.3333333 Z"/>
                <rect x="0" y="3" width="30" height="2.5"/>
                <rect x="27" y="0" width="3" height="3"/>
                <rect x="27" y="25" width="3" height="3"/>
                <rect x="0" y="0" width="3" height="3"/>
                <rect x="0" y="25" width="3" height="3"/>
                <rect x="0" y="23" width="30" height="2.5"/>
            </g>
        </g>
    </g>
</svg>
