<svg width="30" xmlns="http://www.w3.org/2000/svg" viewBox="0 0 30 28" height="28">
  <g fill-rule="evenodd">
    <path d="M0 8h29.992v12.5H0V8zm12.404 8H24.93a.743.743 0 0 0 .737-.75v-1.5c0-.415-.33-.75-.737-.75H12.404a.742.742 0 0 0-.737.75v1.5c0 .415.33.75.737.75zm-7.716.333h3.125a.52.52 0 0 0 .52-.52v-3.125c0-.29-.233-.52-.52-.52H4.686c-.288 0-.52.23-.52.52v3.124c0 .29.232.52.52.52zM0 3h30v2.5H0zm27-3h3v3h-3zm0 25h3v3h-3zM0 0h3v3H0zm0 25h3v3H0z"/>
    <path d="M0 23h30v2.5H0z"/>
  </g>
</svg>
