<?xml version="1.0" encoding="UTF-8" standalone="no"?>
<svg width="30px" xmlns="http://www.w3.org/2000/svg" viewBox="0 0 30 28" version="1.1" height="28px">
 <g fill-rule="evenodd">
  <g transform="translate(-96 -543)">
   <g transform="translate(96 543)">
    <path d="m0 8h29.992v12.5h-29.992v-12.5zm12.404 8h12.526c0.407 0 0.737-0.335 0.737-0.75v-1.5c0-0.415-0.33-0.75-0.737-0.75h-12.526c-0.408 0-0.737 0.335-0.737 0.75v1.5c0 0.415 0.329 0.75 0.737 0.75zm-7.7165 0.333h3.125c0.288 0 0.5208-0.232 0.5208-0.521v-3.124c0-0.289-0.2328-0.521-0.5208-0.521h-3.125c-0.288 0-0.5208 0.232-0.5208 0.521v3.124c0 0.289 0.2328 0.521 0.5208 0.521z"/>
    <rect y="3" x="0" height="2.5" width="30"/>
    <rect y="0" x="27" height="3" width="3"/>
    <rect y="25" x="27" height="3" width="3"/>
    <rect y="0" x="0" height="3" width="3"/>
    <rect y="25" x="0" height="3" width="3"/>
    <rect y="23" x="0" height="2.5" width="30"/>
   </g>
  </g>
 </g>
</svg>
