<svg width="28" height="28" viewBox="0 0 28 28" xmlns="http://www.w3.org/2000/svg"><g fill-rule="evenodd"><path fill="none" d="M-1-1h30v30H-1z"/><path d="M2.214 8.107c.26 0 .51-.103.695-.288l2.657-2.66h5.487v17.273l-2.66 2.658c-.184.185-.287.435-.287.696v.982c0 .542.44.982.982.982h9.82c.543 0 .983-.44.983-.982v-.982c0-.26-.103-.51-.288-.695l-2.66-2.657V5.16h5.37l1.67 2.51c.184.273.49.437.82.437h1.963c.542 0 .982-.44.982-.982V1.232c0-.542-.44-.982-.982-.982H1.232C.69.25.25.69.25 1.232v5.893c0 .542.44.982.982.982h.982z"/></g></svg>