<svg width="28px" height="28px" viewBox="0 0 28 28" version="1.1"
     xmlns="http://www.w3.org/2000/svg">
    <g stroke="none" stroke-width="1" fill-rule="evenodd">
        <g transform="translate(-287.000000, -542.000000)">
            <g transform="translate(286.000000, 541.000000)">
                <rect x="0" y="0" width="30" height="30" fill="none"/>
                <path d="M3.21428571,9.10714286 C3.47455357,9.10714286 3.725,9.00401786 3.90866071,8.819375 L6.56732143,6.16071429 L12.0535714,6.16071429 L12.0535714,23.4326786 L9.39491071,26.0913393 C9.21026786,26.275 9.10714286,26.5254464 9.10714286,26.7857143 L9.10714286,27.7678571 C9.10714286,28.31 9.54714286,28.75 10.0892857,28.75 L19.9107143,28.75 C20.4528571,28.75 20.8928571,28.31 20.8928571,27.7678571 L20.8928571,26.7857143 C20.8928571,26.5254464 20.7897321,26.275 20.6050893,26.0913393 L17.9464286,23.4326786 L17.9464286,6.16071429 L23.3138393,6.16071429 L24.9864286,8.67008929 C25.1691071,8.943125 25.4755357,9.10714286 25.8035714,9.10714286 L27.7678571,9.10714286 C28.31,9.10714286 28.75,8.66714286 28.75,8.125 L28.75,2.23214286 C28.75,1.69 28.31,1.25 27.7678571,1.25 L2.23214286,1.25 C1.69,1.25 1.25,1.69 1.25,2.23214286 L1.25,8.125 C1.25,8.66714286 1.69,9.10714286 2.23214286,9.10714286 L3.21428571,9.10714286 Z"/>
            </g>
        </g>
    </g>
</svg>
