<?xml version="1.0" encoding="UTF-8" standalone="no"?>
<svg width="12px" height="23px" viewBox="0 0 12 23" version="1.1" xmlns="http://www.w3.org/2000/svg" xmlns:xlink="http://www.w3.org/1999/xlink" xmlns:sketch="http://www.bohemiancoding.com/sketch/ns">
    <!-- Generator: bin/sketchtool 1.4 (305) - http://www.bohemiancoding.com/sketch -->
    <title>Facebook-Icon</title>
    <desc>Created with bin/sketchtool.</desc>
    <defs></defs>
    <g id="Social-Icons" stroke="none" stroke-width="1" fill="none" fill-rule="evenodd" sketch:type="MSPage">
        <g id="Social-Media-Icons" sketch:type="MSArtboardGroup" transform="translate(-196.000000, -229.000000)">
            <g id="Default" sketch:type="MSLayerGroup" transform="translate(171.000000, 150.000000)">
                <g id="Facebook-Icon" transform="translate(15.000000, 75.000000)" sketch:type="MSShapeGroup">
                    <rect id="Rectangle-1-Copy" x="0" y="0" width="32" height="32"></rect>
                    <path d="M21.0634921,7.91269841 L19.0396825,7.91269841 C17.4206349,7.91269841 17.1507937,8.72222222 17.1507937,9.8015873 L17.1507937,12.3650794 L21.0634921,12.3650794 L20.6587302,16.4126984 L17.4206349,16.4126984 L17.4206349,26.8015873 L13.3730159,26.8015873 L13.3730159,16.4126984 L10,16.4126984 L10,12.3650794 L13.3730159,12.3650794 L13.3730159,9.3968254 C13.3730159,6.02380952 15.3968254,4 18.3650794,4 C19.7142857,4 20.9285714,4.13492063 21.3333333,4.13492063 L21.3333333,7.91269841 L21.0634921,7.91269841 Z" id="Facebook-Icon-Copy-4" fill="#999999"></path>
                </g>
            </g>
        </g>
    </g>
</svg>