<svg width="30" height="19" viewBox="0 0 30 19" xmlns="http://www.w3.org/2000/svg" xmlns:xlink="http://www.w3.org/1999/xlink"><title>Google-Icon</title><defs><path id="a" d="M0 .004h28.81V18.3H0V.005z"/></defs><g fill="none" fill-rule="evenodd"><path d="M-1-8h32v32H-1z"/><g transform="translate(.333)"><mask id="b" fill="#fff"><use xlink:href="#a"/></mask><path d="M25.64 7.52V4.35h-2.265v3.17h-3.262v2.265h3.262v3.26h2.265v-3.26h3.17V7.52h-3.17zM9.15 7.34v3.623s3.516-.005 4.948-.005c-.775 2.35-1.98 3.63-4.947 3.63-3.002 0-5.345-2.435-5.345-5.437 0-3.002 2.343-5.435 5.346-5.435 1.588 0 2.613.558 3.553 1.335.753-.753.69-.86 2.605-2.668C13.683.902 11.522 0 9.15 0 4.098 0 0 4.097 0 9.15c0 5.054 4.097 9.15 9.15 9.15 7.555 0 9.4-6.576 8.79-10.96H9.15z" fill="#999" mask="url(#b)"/></g></g></svg>
