<svg width="24" height="24" viewBox="0 0 24 24" xmlns="http://www.w3.org/2000/svg"><g fill="none" fill-rule="evenodd"><path d="M0 0h23.862v23.862H0z"/><path d="M21.727 10.908c0-4.37-4.428-7.925-9.87-7.925-5.44 0-9.87 3.555-9.87 7.925 0 3.918 3.512 7.2 8.255 7.82.32.068.76.21.87.48.1.248.065.634.03.884 0 0-.114.69-.14.836-.042.247-.198.966.856.527 1.053-.44 5.683-3.312 7.753-5.67 1.432-1.553 2.117-3.128 2.117-4.877zm-13.732 2.6H6.033c-.285 0-.517-.23-.517-.512v-3.88c0-.283.232-.513.517-.513.286 0 .518.23.518.512v3.37h1.445c.285 0 .517.23.517.51 0 .283-.232.513-.517.513zm2.028-.512c0 .282-.232.512-.518.512-.285 0-.517-.23-.517-.512v-3.88c0-.283.232-.513.517-.513.286 0 .518.23.518.512v3.88zm4.72 0c0 .22-.142.416-.354.486-.054.017-.11.026-.165.026-.162 0-.316-.077-.414-.205l-2.008-2.708v2.4c0 .283-.232.513-.518.513-.285 0-.517-.23-.517-.512v-3.88c0-.222.142-.417.353-.487.054-.02.11-.027.165-.027.16 0 .316.076.413.205l2.01 2.708v-2.4c0-.283.232-.513.518-.513.285 0 .517.23.517.512v3.88zm3.173-2.453c.285 0 .518.23.518.513 0 .282-.233.512-.518.512h-1.443v.916h1.443c.285 0 .518.23.518.512 0 .282-.233.512-.518.512h-1.96c-.286 0-.518-.23-.518-.512v-3.88c0-.283.232-.513.517-.513h1.96c.286 0 .52.23.52.512 0 .282-.234.512-.52.512h-1.442v.916h1.443z" fill="#999"/></g></svg>
