<?xml version="1.0" encoding="UTF-8" standalone="no"?>
<svg width="23px" height="20px" viewBox="0 0 23 20" version="1.1" xmlns="http://www.w3.org/2000/svg" xmlns:xlink="http://www.w3.org/1999/xlink" xmlns:sketch="http://www.bohemiancoding.com/sketch/ns">
    <!-- Generator: bin/sketchtool 1.4 (305) - http://www.bohemiancoding.com/sketch -->
    <title>Meneame-Icon</title>
    <desc>Created with bin/sketchtool.</desc>
    <defs></defs>
    <g id="Social-Icons" stroke="none" stroke-width="1" fill="none" fill-rule="evenodd" sketch:type="MSPage">
        <g id="Social-Media-Icons" sketch:type="MSArtboardGroup" transform="translate(-319.000000, -335.000000)" fill="#999999">
            <g id="Default" sketch:type="MSLayerGroup" transform="translate(171.000000, 150.000000)">
                <g id="Meneame-Icon" transform="translate(143.000000, 179.000000)" sketch:type="MSShapeGroup">
                    <g id="Mename" transform="translate(5.000000, 6.000000)">
                        <path d="M21.4046818,4.44893709 C19.7540455,6.04681128 16.7735455,6.00073753 15.6650909,8.15882863 C14.7194545,10.7181779 16.9464091,14.8073319 17.8760909,17.1406074 C18.5058636,18.3452928 12.9568182,19.5066811 13.6355455,19.8049458 C17.5513636,19.7626464 19.2212273,18.3987419 18.7513636,16.7250325 C18.3017273,15.1235141 16.2720909,11.9269848 16.2720909,9.37284165 C16.3289545,7.44368764 18.5897273,6.85127983 20.0458636,6.06511931 C21.7378182,5.34112798 23.3204545,3.72581345 22.8829545,1.83106291 C22.8642273,1.16273319 21.6447727,-1.06229935 22.1426364,0.662429501 C22.4141818,1.93574837 22.5446818,3.5072885 21.4046818,4.44893709" id="Fill-1"></path>
                        <path d="M16.3122273,1.57340564 C14.1812273,0.524164859 11.8135909,-0.111236443 9.33490909,0.442039046 C8.00318182,0.676963124 6.43463636,1.37123644 5.54240909,2.53414317 C4.37245455,3.86767896 4.32690909,5.80741866 5.09427273,7.33232104 C5.69068182,8.5072885 6.59718182,9.81449024 8.066,10.0104121 C9.32922727,10.1912798 10.7171364,10.0278959 11.7902727,9.3316269 C10.5143636,9.54104121 9.03636364,9.97392625 7.8905,9.16 C5.97013636,7.98772234 5.03631818,5.32746204 6.20222727,3.38563991 C7.13877273,1.69262473 9.02531818,1.21566161 11.0213636,1.1318872 C13.6831364,1.02008677 16.2341364,2.46954447 17.2129545,2.82260304 C18.1560909,3.10603037 19.5086818,3.46498915 20.1797727,2.50932755 C20.572,2.06533623 20.4152273,0.84208243 20.0962727,0.728590022 C20.1884091,1.58555315 19.5299545,2.66342733 18.505,2.38234273 C17.7394545,2.20980477 17.0351364,1.85939262 16.3122273,1.57340564" id="Fill-2"></path>
                        <path d="M2.02840909,9.15058568 C0.793954545,11.0075922 -0.333681818,13.1824729 0.0968181818,15.4459002 C0.492636364,17.8121041 2.89113636,19.4810846 5.27604545,19.7781779 C7.72481818,20.0503254 10.1683182,19.9813015 12.6231364,19.8126681 C13.0370455,19.4306291 10.6199545,19.4410412 9.60186364,19.3010412 C7.27963636,19.0501085 4.76022727,19.0041649 2.76918182,17.6878959 C0.914227273,16.363167 0.671090909,13.7646421 1.56045455,11.8492408 C2.30627273,10.0419523 3.41936364,8.29505423 4.59031818,6.78511931 C3.67727273,7.50898048 2.83368182,8.04889371 2.02840909,9.15058568" id="Fill-3"></path>
                        <path d="M8.12677273,14.9920174 C9.57327273,15.0987419 11.9737727,14.9585249 13.1013636,15.710846 C13.5048636,16.2901952 12.7539545,19.4967028 13.0126818,19.866898 C13.5887727,20.0286768 14.2477273,16.1097614 13.8829545,15.1360087 C13.6067273,14.3926247 8.70268182,14.7879393 8.12677273,14.9920174" id="Fill-4"></path>
                    </g>
                </g>
            </g>
        </g>
    </g>
</svg>