<svg width="23" height="20" viewBox="0 0 23 20" xmlns="http://www.w3.org/2000/svg"><title>Meneame-Icon</title><g fill="#999" fill-rule="evenodd"><path d="M21.405 4.45c-1.65 1.597-4.63 1.55-5.74 3.71-.946 2.558 1.28 6.647 2.21 8.98.63 1.205-4.918 2.367-4.24 2.665 3.916-.042 5.586-1.406 5.116-3.08-.448-1.6-2.478-4.798-2.478-7.352.057-1.93 2.318-2.522 3.774-3.308 1.692-.724 3.274-2.34 2.837-4.234-.02-.667-1.238-2.892-.74-1.168.27 1.274.402 2.845-.738 3.787"/><path d="M16.312 1.573C14.182.523 11.814-.11 9.335.443c-1.332.234-2.9.928-3.793 2.09-1.17 1.335-1.215 3.274-.448 4.8.597 1.174 1.503 2.48 2.972 2.677 1.263.18 2.65.018 3.724-.678-1.276.21-2.754.642-3.9-.172-1.92-1.172-2.854-3.833-1.688-5.774.937-1.693 2.823-2.17 4.82-2.254 2.66-.112 5.212 1.338 6.19 1.69.944.284 2.297.643 2.968-.313.392-.445.235-1.668-.084-1.78.092.856-.566 1.933-1.59 1.652-.767-.172-1.47-.523-2.194-.81M2.028 9.15C.794 11.01-.334 13.183.098 15.447c.395 2.366 2.793 4.035 5.178 4.332 2.45.272 4.892.203 7.347.035.414-.382-2.003-.372-3.02-.512-2.323-.25-4.843-.296-6.834-1.612-1.856-1.325-2.1-3.923-1.21-5.84.746-1.806 1.86-3.553 3.03-5.063-.913.724-1.756 1.264-2.562 2.366"/><path d="M8.127 14.992c1.446.107 3.847-.033 4.974.72.405.578-.346 3.785-.087 4.155.576.162 1.235-3.757.87-4.73-.276-.744-5.18-.35-5.756-.145"/></g></svg>
