<?xml version="1.0" encoding="UTF-8" standalone="no"?>
<svg width="25px" height="18px" viewBox="0 0 25 18" version="1.1" xmlns="http://www.w3.org/2000/svg" xmlns:xlink="http://www.w3.org/1999/xlink" xmlns:sketch="http://www.bohemiancoding.com/sketch/ns">
    <!-- Generator: bin/sketchtool 1.4 (305) - http://www.bohemiancoding.com/sketch -->
    <title>Nk-Logo</title>
    <desc>Created with bin/sketchtool.</desc>
    <defs></defs>
    <g id="Social-Icons" stroke="none" stroke-width="1" fill="none" fill-rule="evenodd" sketch:type="MSPage">
        <g id="Social-Media-Icons" sketch:type="MSArtboardGroup" transform="translate(-319.000000, -284.000000)">
            <g id="Default" sketch:type="MSLayerGroup" transform="translate(171.000000, 150.000000)">
                <g id="Nk-Logo" transform="translate(144.000000, 127.000000)" sketch:type="MSShapeGroup">
                    <rect id="Rectangle-1-Copy-3" x="0" y="0" width="32" height="32"></rect>
                    <g transform="translate(4.000000, 7.000000)" fill="#999999">
                        <path d="M4.03615023,6.66045714 C4.63732394,6.39908571 5.20962441,6.13205714 5.79624413,5.8992 C6.86132629,5.47645714 7.96173709,5.17457143 9.119777,5.15102857 C9.46625587,5.144 9.82611502,5.19182857 10.1601526,5.28308571 C11.1998239,5.56702857 11.7283451,6.32114286 11.8396127,7.30497143 C11.9253521,8.06348571 11.8849178,8.84285714 11.8282864,9.60794286 C11.7053991,11.2684571 11.5370892,12.9258857 11.3856808,14.5844 C11.2922535,15.608 11.1919014,16.6310286 11.1042254,17.6550857 C11.0887324,17.8365143 11.018662,17.9029714 10.8340962,17.9019429 C9.9149061,17.8970286 8.99565728,17.8936 8.07652582,17.9040571 C7.81907277,17.9069714 7.78855634,17.7845143 7.80792254,17.5839429 C7.894777,16.684 7.97699531,15.7836571 8.06044601,14.8833714 C8.18949531,13.4903429 8.31842723,12.0973143 8.44694836,10.7042286 C8.4967723,10.1640571 8.53703052,9.62291429 8.59630282,9.08371429 C8.67693662,8.3504 8.37511737,8.04965714 7.619777,8.12857143 C6.88661972,8.20514286 6.22341549,8.4816 5.57928404,8.8096 C5.13755869,9.03457143 4.69372066,9.25702857 4.26502347,9.504 C4.16115023,9.56388571 4.06026995,9.71097143 4.04818075,9.82691429 C3.92112676,11.0479429 3.81150235,12.2707429 3.69870892,13.4932 C3.57365023,14.8483429 3.4459507,16.2033143 3.32987089,17.5592 C3.30762911,17.8190857 3.20991784,17.9126286 2.93151408,17.9068 C2.09090376,17.8892571 1.24970657,17.9008571 0.408744131,17.9003429 C0.0354460094,17.9001143 0.0256455399,17.8985714 0.0559859155,17.5476571 C0.202112676,15.86 0.354049296,14.1728 0.503814554,12.4854286 C0.628403756,11.0824 0.756514085,9.67971429 0.875117371,8.27622857 C0.908978873,7.87622857 0.896244131,7.8752 0.492723005,7.87291429 C-0.0209507042,7.86994286 -0.0131455399,7.87068571 0.035915493,7.37228571 C0.0909624413,6.81348571 0.140258216,6.25377143 0.171068075,5.69337143 C0.183744131,5.46257143 0.267194836,5.37617143 0.506983568,5.38074286 C1.11302817,5.39222857 1.71942488,5.38394286 2.32576291,5.3844 C3.35434272,5.38508571 3.75258216,5.67817143 4.03615023,6.66045714" id="Fill-1"></path>
                        <path d="M14.3333333,2.53108571 L13.4306925,2.53108571 C13.4306925,2.3408 13.4181925,2.17234286 13.4329225,2.00617143 C13.4842136,1.42885714 13.551115,0.852857143 13.5985915,0.275314286 C13.6137911,0.0906857143 13.6915493,0.0349142857 13.8748239,0.0364 C14.7448357,0.0435428571 15.6151408,0.0296 16.4849765,0.0439428571 C17.1946596,0.0556571429 17.8048122,0.699314286 17.7482981,1.38708571 C17.6231221,2.91194286 17.4761737,4.43502857 17.3408451,5.95908571 C17.2357981,7.1424 17.1384977,8.3264 17.031338,9.50948571 C16.9233568,10.7019429 16.8039906,11.8934286 16.6960094,13.0858857 C16.5888498,14.2690286 16.4909624,15.4529714 16.3863263,16.6363429 C16.3536385,17.0054857 16.3210681,17.3751429 16.2674296,17.7416571 C16.2567488,17.8148 16.1508803,17.9316 16.0879695,17.9321714 C15.0715962,17.9417143 14.0550469,17.936 13.0385563,17.9317714 C13.0123826,17.9316571 12.9862676,17.9097714 12.919777,17.8799429 C13.3888498,12.7866857 13.8589789,7.68205714 14.3333333,2.53108571" id="Fill-2"></path>
                        <path d="M23.8478286,17.9252571 C23.6925469,17.9336 23.5981221,17.9429143 23.5037559,17.9430286 C22.5551056,17.9441143 21.6063967,17.9389143 20.6578052,17.9473714 C20.4478286,17.9492571 20.3235329,17.8903429 20.2215962,17.6993714 C19.1723005,15.7332571 18.1148474,13.7712571 17.0521127,11.812 C16.9676643,11.6563429 16.9696009,11.5450286 17.0663732,11.3984 C18.3393779,9.46874286 19.6048122,7.5344 20.8811033,5.60685714 C20.9430751,5.51331429 21.0873239,5.41594286 21.1943662,5.41474286 C22.3873239,5.40125714 23.5805751,5.40617143 24.7737089,5.40725714 C24.8202465,5.40731429 24.866784,5.4188 24.9595657,5.43108571 C24.8839202,5.54754286 24.8280516,5.64211429 24.7639085,5.73102857 C23.4048709,7.61628571 22.0476526,9.5028 20.6805751,11.3825714 C20.5494718,11.5628571 20.5369131,11.6927429 20.643662,11.8911429 C21.6591549,13.7779429 22.6623826,15.6710286 23.6684272,17.5626857 C23.7216549,17.6626286 23.7690728,17.7655429 23.8478286,17.9252571" id="Fill-3"></path>
                    </g>
                </g>
            </g>
        </g>
    </g>
</svg>