<?xml version="1.0" encoding="UTF-8" standalone="no"?>
<svg width="15px" height="25px" viewBox="0 0 15 25" version="1.1" xmlns="http://www.w3.org/2000/svg" xmlns:xlink="http://www.w3.org/1999/xlink" xmlns:sketch="http://www.bohemiancoding.com/sketch/ns">
    <!-- Generator: bin/sketchtool 1.4 (305) - http://www.bohemiancoding.com/sketch -->
    <title>Odnoklassniki-Icon</title>
    <desc>Created with bin/sketchtool.</desc>
    <defs></defs>
    <g id="Social-Icons" stroke="none" stroke-width="1" fill="none" fill-rule="evenodd" sketch:type="MSPage">
        <g id="Social-Media-Icons" sketch:type="MSArtboardGroup" transform="translate(-278.000000, -281.000000)">
            <g id="Default" sketch:type="MSLayerGroup" transform="translate(171.000000, 150.000000)">
                <g id="Odnoklassniki-Icon" transform="translate(99.000000, 127.000000)" sketch:type="MSShapeGroup">
                    <rect id="Rectangle-1-Copy-5" x="0" y="0" width="32" height="32"></rect>
                    <g id="Odnoklassniki" transform="translate(8.000000, 4.000000)" fill="#999999">
                        <path d="M10.2758438,18.2198529 C10.685625,18.6224265 11.0420625,18.976011 11.4023438,19.3258272 C12.2009063,20.1011949 13.0085625,20.8678309 13.7994375,21.6508272 C14.6305313,22.4736213 14.6596875,23.6209559 13.88775,24.4025735 C13.1085938,25.191636 11.8753125,25.2057904 11.0444063,24.3899816 C9.88621875,23.2528493 8.7583125,22.0861213 7.58128125,20.8954044 C7.38196875,21.0793199 7.2598125,21.186489 7.1439375,21.2998162 C6.138,22.2838235 5.1298125,23.2657169 4.1293125,24.2551471 C3.6455625,24.7334559 3.091875,25.0462316 2.3840625,24.9837316 C1.5845625,24.9130515 1.005375,24.5125 0.706125,23.7778493 C0.398625,23.0227941 0.5454375,22.3204044 1.11478125,21.7419118 C1.94934375,20.8940257 2.8156875,20.0761029 3.6703125,19.2472426 C4.0010625,18.9264706 4.33696875,18.6108456 4.73878125,18.2278493 C4.4743125,18.1463235 4.298625,18.108364 4.1364375,18.039614 C3.137625,17.616636 2.1106875,17.2439338 1.1533125,16.7438419 C0.0680625,16.1769301 -0.22771875,14.9954044 0.36759375,14.0390625 C0.94546875,13.1107537 2.11771875,12.8588235 3.1524375,13.4379596 C6.05578125,15.0629596 8.958,15.0612132 11.859375,13.4311581 C12.8864063,12.8540441 14.0660625,13.1182904 14.6398125,14.0511949 C15.2202188,14.9949449 14.931,16.1702206 13.8737813,16.7256434 C12.9174375,17.228125 11.8929375,17.6067096 10.8953438,18.0329044 C10.728375,18.1042279 10.5454688,18.1397978 10.2758438,18.2198529" id="Fill-1"></path>
                        <path d="M0.89090625,6.51746324 C0.90421875,2.92012868 3.875625,0.0590992647 7.58128125,0.0758272059 C11.191125,0.0920955882 14.1345,3.02683824 14.1090937,6.58465074 C14.0833125,10.1901654 11.1306562,13.007261 7.395375,12.9899816 C3.80128125,12.9733456 0.8776875,10.0641544 0.89090625,6.51746324 L0.89090625,6.51746324 Z M7.5105,3.96268382 C6.0405,3.95873162 4.84715625,5.09696691 4.82578125,6.52362132 C4.8046875,7.9265625 6.0710625,9.16847426 7.5121875,9.15818015 C8.94946875,9.14779412 10.163625,7.95395221 10.1704687,6.54448529 C10.1773125,5.13060662 8.9780625,3.96654412 7.5105,3.96268382 L7.5105,3.96268382 Z" id="Fill-2"></path>
                    </g>
                </g>
            </g>
        </g>
    </g>
</svg>