<svg width="15" height="26" viewBox="0 0 15 26" xmlns="http://www.w3.org/2000/svg"><title>Odnoklassniki-Icon-Active</title><g fill="none" fill-rule="evenodd"><path d="M-8-3.5h32v32H-8z"/><g fill="#F96900"><path d="M10.276 18.72c.41.402.766.756 1.126 1.106.8.775 1.607 1.542 2.397 2.325.83.824.86 1.97.088 2.753-.78.79-2.013.803-2.844-.013-1.158-1.137-2.286-2.304-3.463-3.495-.198.184-.32.29-.436.405-1.006.984-2.014 1.966-3.015 2.955-.484.478-1.038.79-1.746.73-.8-.072-1.38-.473-1.678-1.207-.307-.755-.16-1.458.41-2.036.833-.848 1.7-1.666 2.554-2.495.33-.32.667-.636 1.07-1.02-.266-.08-.44-.12-.604-.187-.998-.423-2.025-.796-2.983-1.296-1.085-.567-1.38-1.75-.785-2.705.577-.93 1.75-1.18 2.784-.602 2.904 1.625 5.806 1.623 8.707-.007 1.026-.576 2.206-.312 2.78.62.58.945.29 2.12-.766 2.676-.957.502-1.98.88-2.98 1.307-.166.07-.35.107-.618.187"/><path d="M.89 7.017C.905 3.42 3.877.56 7.58.577c3.61.015 6.554 2.95 6.53 6.508-.027 3.605-2.98 6.422-6.715 6.405C3.8 13.473.878 10.564.89 7.017zm6.62-2.554c-1.47-.004-2.663 1.134-2.684 2.56C4.806 8.428 6.07 9.67 7.512 9.66c1.437-.01 2.652-1.204 2.658-2.614.007-1.413-1.192-2.577-2.66-2.58z"/></g></g></svg>
