<?xml version="1.0" encoding="UTF-8" standalone="no"?>
<svg width="26px" height="25px" viewBox="0 0 26 25" version="1.1" xmlns="http://www.w3.org/2000/svg" xmlns:xlink="http://www.w3.org/1999/xlink" xmlns:sketch="http://www.bohemiancoding.com/sketch/ns">
    <!-- Generator: bin/sketchtool 1.4 (305) - http://www.bohemiancoding.com/sketch -->
    <title>QZone-Icon</title>
    <desc>Created with bin/sketchtool.</desc>
    <defs></defs>
    <g id="Social-Icons" stroke="none" stroke-width="1" fill="none" fill-rule="evenodd" sketch:type="MSPage">
        <g id="Social-Media-Icons" sketch:type="MSArtboardGroup" transform="translate(-232.000000, -332.000000)">
            <g id="Default" sketch:type="MSLayerGroup" transform="translate(171.000000, 150.000000)">
                <g id="QZone-Icon" transform="translate(57.000000, 179.000000)" sketch:type="MSShapeGroup">
                    <rect id="Rectangle-1-Copy-3" x="0" y="0" width="32" height="32"></rect>
                    <path d="M28.988433,13.2575206 C27.1811426,14.9566619 25.3750539,16.6582066 23.5641586,18.353743 C23.3106092,18.5916708 23.1652089,18.8488252 23.2637446,19.202112 C23.3021976,19.4328299 23.3406506,19.6635478 23.3791036,19.8942657 C22.4129723,19.9086856 21.4480427,19.861821 20.483113,19.8197631 C19.4689155,19.7741002 18.454718,19.7140174 17.4405205,19.6515313 C16.7868197,19.6118766 16.1331189,19.5553988 15.4806198,19.5037276 C15.3844873,19.4965177 15.2847499,19.4869044 15.2138522,19.3979819 C15.4830231,19.1720706 15.7642106,18.9810073 16.0441964,18.7887424 C18.454718,17.1292557 20.856828,15.4577524 23.2505264,13.7742326 C23.2889794,13.7465945 23.3550705,13.730973 23.3430539,13.6696885 C23.3310374,13.6084041 23.2649463,13.6216223 23.2180817,13.6132107 C21.6643407,13.3079901 20.0949782,13.1265401 18.5148008,13.0508358 C16.7736015,12.9679215 15.0336038,13.0015679 13.2948079,13.1577831 C11.9345335,13.280352 10.5838723,13.469012 9.24522771,13.7405862 C9.03133297,13.7838458 8.81984154,13.839122 8.6059468,13.8883899 C8.66122297,13.916028 8.71169252,13.916028 8.7609604,13.916028 C10.1080166,13.9424644 11.4538711,13.9845224 12.798524,14.0458068 C14.3029971,14.1130995 15.8074702,14.1912072 17.3047334,14.3678506 C17.8106305,14.4279334 18.3141243,14.5072426 18.8200214,14.5781403 C18.8536677,14.582947 18.8993307,14.5853503 18.9089439,14.6201983 C18.9221621,14.6646596 18.8801042,14.6898943 18.8476595,14.7139274 C18.7707535,14.7692036 18.6926459,14.8232781 18.6145382,14.8785543 C16.0249699,16.7170877 13.4341999,18.5568228 10.8446316,20.3965579 C10.8278084,20.4073728 10.8109853,20.4181877 10.7953637,20.4302042 C10.7364826,20.4806738 10.7484992,20.5167235 10.8205985,20.52874 C10.9143277,20.5431599 11.0092585,20.5491682 11.1041893,20.5599831 C12.6855684,20.7438364 14.2741574,20.8435738 15.8651497,20.8760185 C17.5474678,20.9096649 19.2273827,20.8507838 20.9036926,20.6801486 C22.0584838,20.5611847 23.2036618,20.3929529 24.338025,20.1394035 C24.4726104,20.1093621 24.4209392,20.0697075 24.5555247,20.0348595 C24.6901101,19.9988098 24.777831,19.9675667 24.777831,19.9531469 L24.777831,19.9555502 C24.777831,19.9747767 24.9424578,19.9928015 24.9316429,20.0108263 C24.557928,20.3136436 24.2130527,20.490287 23.7672384,20.6477039 C23.4235649,20.7702728 23.4704294,20.7714745 23.555747,21.1295679 C23.5581503,21.1391812 23.5893934,21.1475928 23.5942,21.1560044 C23.5966033,21.1896507 23.6050149,21.2257004 23.6110232,21.2593468 C23.7215755,21.866183 23.8369345,22.4742208 23.9498901,23.0798553 C24.0255944,23.4908216 24.1097103,23.9005863 24.1890196,24.3103509 C24.2214643,24.631193 24.2983703,24.9436235 24.3548481,25.259659 C24.4557872,25.8280422 24.5639362,26.3952238 24.662472,26.9648086 C24.6780936,27.0573361 24.6792952,27.1582752 24.6588671,27.2483994 C24.5975826,27.5115621 24.3933011,27.6245177 24.1241302,27.5632333 C23.9859398,27.5307885 23.8633709,27.4646975 23.7420037,27.3950014 C21.600653,26.1512876 19.456899,24.9099772 17.3179516,23.6614568 C16.8757422,23.4043024 16.457566,23.4079074 16.01776,23.6650617 C13.8691993,24.9171871 11.7170338,26.1633042 9.56606981,27.4118246 C9.46753403,27.4695041 9.36539329,27.5235786 9.2536393,27.5548217 C8.87752102,27.6569624 8.57470375,27.3589518 8.66002132,26.9744219 C8.75375047,26.5466324 8.82825313,26.115238 8.90035248,25.6826419 C8.95562865,25.3521865 9.03013131,25.0253361 9.09502073,24.6972841 C9.12265881,24.5590937 9.14669193,24.4209033 9.1719267,24.2827128 C9.25964758,23.8429068 9.34857011,23.4043024 9.43508933,22.9644964 C9.5420367,22.4201463 9.62374929,21.8709896 9.73670494,21.3266395 C9.84725728,20.7991126 9.94819637,20.2691824 10.0347156,19.7368488 C10.0671603,19.5397773 10.1392596,19.3499156 10.1296464,19.1468358 C10.2594252,18.8656483 10.2089557,18.6902066 9.92656656,18.4282456 C8.0591934,16.7026678 6.19061858,14.9758884 4.32324542,13.2503106 C4.17784506,13.1157252 4.06008279,12.9631149 4,12.77085 C4.0108149,12.4776459 4.16823182,12.3106158 4.50589711,12.2673562 C5.0310207,12.2000634 5.55854761,12.1447873 6.08487287,12.0847045 C6.76501007,12.0077985 7.44514727,11.9296909 8.12528447,11.8539866 C8.7910018,11.7794839 9.45671913,11.7061829 10.1224365,11.6316802 C10.7581124,11.5607825 11.3937883,11.4850782 12.0294643,11.4189872 C12.4079859,11.3793325 12.6230822,11.1510179 12.7756925,10.8289741 C13.2851946,9.75709714 13.7971,8.68642179 14.3090054,7.61574645 C14.9086316,6.36121776 15.5094596,5.10668907 16.1090858,3.85095873 C16.1715719,3.71997824 16.237663,3.59140107 16.342207,3.48685701 C16.5440852,3.28377717 16.7844164,3.28257552 16.9898995,3.48084873 C17.0932419,3.58058616 17.1617363,3.70075175 17.2194158,3.82932892 C18.2924945,6.2266323 19.3703797,8.62273403 20.4350468,11.024844 C20.6044803,11.4093739 20.9169108,11.4766666 21.2701976,11.5115147 C22.155818,11.5992355 23.0414383,11.6893597 23.9270587,11.7770806 C24.7826376,11.8611965 25.6382166,11.9417074 26.4937955,12.027025 C27.2652586,12.103931 28.0367216,12.1796353 28.8057813,12.2661545 C29.0461125,12.2937926 29.2684188,12.3731019 29.3333082,12.6530877 C29.3357116,12.9222586 29.1650764,13.0916921 28.988433,13.2575206" id="Fill-9-Copy-5" fill="#999999"></path>
                </g>
            </g>
        </g>
    </g>
</svg>