<svg width="24" height="24" viewBox="0 0 24 24" xmlns="http://www.w3.org/2000/svg"><g fill="none" fill-rule="evenodd"><path d="M0 0h23.862v23.862H0z"/><path d="M21.602 9.72c-1.418 1.324-2.836 2.65-4.257 3.97-.2.186-.313.387-.236.662l.09.54c-.76.01-1.516-.026-2.274-.06-.796-.034-1.592-.08-2.388-.13-.513-.03-1.026-.075-1.538-.115-.076-.006-.154-.013-.21-.082.212-.176.432-.325.652-.475 1.892-1.293 3.778-2.595 5.657-3.907.03-.022.08-.034.07-.08-.008-.05-.06-.04-.097-.045-1.22-.238-2.45-.38-3.692-.44-1.365-.063-2.73-.037-4.096.085-1.068.095-2.128.242-3.178.454-.168.034-.334.077-.502.115.043.022.083.022.12.022 1.06.02 2.115.053 3.17.1 1.18.053 2.362.114 3.538.252.397.046.792.108 1.19.163.025.003.06.005.07.032.01.035-.024.054-.05.073l-.182.128-6.1 4.3-.038.026c-.046.038-.037.066.02.076.074.01.148.015.223.024 1.24.143 2.488.22 3.737.246 1.32.026 2.64-.02 3.954-.153.907-.092 1.806-.223 2.696-.42.106-.024.065-.055.17-.082.107-.027.175-.052.175-.063v.002c0 .014.13.028.12.042-.292.236-.563.374-.913.496-.27.096-.233.097-.166.376.002.007.027.014.03.02.002.026.01.055.014.08.086.474.177.947.265 1.42.06.32.126.64.188.958.026.25.086.493.13.74.08.442.164.884.242 1.328.012.072.013.15-.003.22-.048.206-.208.294-.42.246-.108-.025-.204-.077-.3-.13-1.68-.97-3.363-1.937-5.042-2.91-.347-.2-.675-.197-1.02.003-1.687.975-3.376 1.945-5.065 2.918-.077.045-.157.087-.245.112-.295.08-.533-.153-.466-.453.074-.333.132-.67.19-1.006.042-.257.1-.51.152-.767l.06-.323c.07-.342.14-.684.207-1.027.084-.424.148-.852.236-1.276.088-.41.167-.824.235-1.238.026-.155.082-.303.075-.46.102-.22.062-.357-.16-.56L2.242 9.714c-.114-.105-.206-.224-.254-.374.01-.227.133-.357.398-.39.412-.053.826-.096 1.24-.143l1.6-.18 1.568-.173c.5-.055.998-.114 1.497-.166.298-.03.467-.21.587-.46.4-.835.8-1.67 1.203-2.503l1.413-2.933c.05-.102.1-.202.183-.284.16-.158.347-.16.508-.005.082.078.135.172.18.272.843 1.868 1.69 3.734 2.525 5.606.132.3.377.353.654.38.695.068 1.39.14 2.086.207.67.066 1.343.128 2.014.195.606.06 1.21.12 1.815.186.188.022.362.083.413.302.002.21-.132.34-.27.47" fill="#F5C13F"/></g></svg>
