<svg width="24" height="24" viewBox="0 0 24 24" xmlns="http://www.w3.org/2000/svg"><g fill="none" fill-rule="evenodd"><path d="M0 0h24v24H0z"/><path d="M21.334 12.023c.36-.283.538-.67.538-1.166 0-.354-.112-.663-.342-.928-.228-.266-.523-.4-.882-.4-.26 0-.506.09-.734.27.685.634 1.158 1.375 1.42 2.223m-2.572-9.275c-.146.18-.222.39-.222.638 0 .247.076.458.222.635.146.178.335.266.562.266.23 0 .426-.088.59-.265.163-.176.244-.387.244-.634 0-.25-.08-.46-.244-.638-.164-.176-.36-.264-.59-.264-.227 0-.416.088-.562.264M14.156 14.09c.31.32.677.477 1.102.477.424 0 .793-.158 1.102-.477.31-.32.466-.724.466-1.22 0-.458-.146-.847-.44-1.166-.294-.316-.67-.476-1.128-.476-.458 0-.832.16-1.127.476-.294.32-.44.708-.44 1.167 0 .496.154.9.466 1.22m-2.18 4.716c1.568 0 2.84-.53 3.822-1.59l-.638-.634c-.815.848-1.878 1.27-3.184 1.27-.587 0-1.144-.106-1.666-.32-.523-.21-.9-.42-1.128-.634l-.343-.316-.638.635c.98 1.06 2.237 1.59 3.774 1.59M7.22 12.87c0 .496.158.9.468 1.22.31.32.677.477 1.102.477.426 0 .792-.158 1.104-.477.308-.32.463-.724.463-1.22 0-.458-.145-.847-.44-1.166-.293-.316-.67-.476-1.127-.476-.457 0-.832.16-1.128.476-.292.32-.44.708-.44 1.167m-4.556-.9c.262-.813.734-1.536 1.42-2.17-.23-.18-.473-.27-.734-.27-.326 0-.613.134-.858.4-.246.264-.367.573-.367.927 0 .53.18.902.54 1.114M23 10.91c0 1.095-.44 1.89-1.324 2.384.034.18.05.425.05.744 0 2.013-.955 3.735-2.866 5.167-1.91 1.43-4.206 2.145-6.884 2.145s-4.965-.708-6.86-2.12c-1.896-1.413-2.843-3.126-2.843-5.14 0-.353.017-.617.05-.796C1.44 12.8 1 12.004 1 10.91c0-.74.245-1.37.733-1.88.492-.513 1.063-.77 1.717-.77.588 0 1.127.23 1.616.69C6.864 7.607 8.97 6.884 11.39 6.778h.095l1.52-5.46 4.41.953C17.87 1.424 18.508 1 19.324 1h.05c.62 0 1.134.23 1.542.69.408.46.613 1.024.613 1.696 0 .67-.205 1.236-.613 1.696-.408.46-.922.687-1.542.687h-.05c-.555 0-1.046-.204-1.47-.61-.425-.406-.653-.91-.686-1.51l-3.284-.742-1.078 3.92c2.484.178 4.524.886 6.126 2.122.488-.46 1.045-.69 1.665-.69.652 0 1.217.257 1.69.77.474.51.71 1.14.71 1.88" fill="#999"/></g></svg>
