<?xml version="1.0" encoding="UTF-8" standalone="no"?>
<svg width="25px" height="22px" viewBox="0 0 25 22" version="1.1" xmlns="http://www.w3.org/2000/svg" xmlns:xlink="http://www.w3.org/1999/xlink" xmlns:sketch="http://www.bohemiancoding.com/sketch/ns">
    <!-- Generator: bin/sketchtool 1.4 (305) - http://www.bohemiancoding.com/sketch -->
    <title>Reddit-Icon</title>
    <desc>Created with bin/sketchtool.</desc>
    <defs></defs>
    <g id="Social-Icons" stroke="none" stroke-width="1" fill="none" fill-rule="evenodd" sketch:type="MSPage">
        <g id="Social-Media-Icons" sketch:type="MSArtboardGroup" transform="translate(-274.000000, -231.000000)">
            <g id="Default" sketch:type="MSLayerGroup" transform="translate(171.000000, 150.000000)">
                <g id="Reddit-Icon" transform="translate(99.000000, 75.000000)" sketch:type="MSShapeGroup">
                    <rect id="Rectangle-1-Copy-4" x="0" y="0" width="32" height="32"></rect>
                    <path d="M28.6357222,16.2687429 C28.6357222,17.4026857 28.1551111,18.2273714 27.1938889,18.7381143 C27.2303333,18.9232 27.2485556,19.1785714 27.2485556,19.5089143 C27.2485556,21.5940571 26.2076111,23.3793143 24.1257222,24.8623429 C22.0438333,26.3453714 19.5428333,27.0857143 16.625,27.0857143 C13.7071667,27.0857143 11.2152778,26.3524 9.15161111,24.8881143 C7.08566667,23.4238286 6.05383333,21.6502857 6.05383333,19.5628 C6.05383333,19.1973143 6.07205556,18.9232 6.1085,18.7381143 C5.14727778,18.2273714 4.66666667,17.4026857 4.66666667,16.2687429 C4.66666667,15.5002857 4.93316667,14.8489714 5.46616667,14.3194857 C6.00144444,13.7876571 6.62327778,13.5229143 7.33622222,13.5229143 C7.97627778,13.5229143 8.56394444,13.7595429 9.09694444,14.2374857 C11.0558333,12.8458286 13.3495556,12.0961143 15.9849444,11.986 L16.0897222,11.986 L17.7456667,6.33034286 L22.5495,7.31668571 C23.0483333,6.43811429 23.7430556,6 24.6313889,6 L24.6860556,6 C25.3625556,6 25.9228889,6.23897143 26.3670556,6.71457143 C26.8112222,7.19017143 27.0344444,7.77588571 27.0344444,8.47171429 C27.0344444,9.1652 26.8112222,9.75325714 26.3670556,10.2288571 C25.9228889,10.7044571 25.3625556,10.9410857 24.6860556,10.9410857 L24.6313889,10.9410857 C24.0277778,10.9410857 23.4925,10.7302286 23.0301111,10.3108571 C22.5677222,9.88914286 22.3194444,9.36668571 22.283,8.74582857 L18.7068889,7.97737143 L17.5315556,12.0398857 C20.2375556,12.2226286 22.4606667,12.9559429 24.2054444,14.2374857 C24.7384444,13.7595429 25.3443333,13.5229143 26.0208333,13.5229143 C26.7315,13.5229143 27.3465,13.7876571 27.8612778,14.3194857 C28.3783333,14.8489714 28.6357222,15.5002857 28.6357222,16.2687429 L28.6357222,16.2687429 Z M6.48205556,17.3675429 C6.76677778,16.5241143 7.28155556,15.7744 8.02866667,15.1160571 C7.78038889,14.9309714 7.51388889,14.8396 7.22916667,14.8396 C6.87383333,14.8396 6.56177778,14.9778286 6.29527778,15.2519429 C6.0265,15.5260571 5.89438889,15.8470286 5.89438889,16.2125143 C5.89438889,16.7630857 6.09027778,17.1473143 6.48205556,17.3675429 L6.48205556,17.3675429 Z M11.4453333,18.3 C11.4453333,18.8130857 11.6161667,19.2324571 11.9532778,19.5628 C12.2903889,19.8931429 12.6912778,20.0571429 13.1536667,20.0571429 C13.6183333,20.0571429 14.0169444,19.8931429 14.3563333,19.5628 C14.6934444,19.2324571 14.862,18.8130857 14.862,18.3 C14.862,17.8244 14.7025556,17.4214286 14.3813889,17.0910857 C14.0625,16.7630857 13.6525,16.5967429 13.1536667,16.5967429 C12.6571111,16.5967429 12.2471111,16.7630857 11.9259444,17.0910857 C11.6070556,17.4214286 11.4453333,17.8244 11.4453333,18.3 L11.4453333,18.3 Z M16.625,24.45 C18.3333333,24.45 19.7205,23.9017714 20.7887778,22.8029714 L20.0940556,22.1446286 C19.2057222,23.0232 18.0486111,23.4613143 16.625,23.4613143 C15.9849444,23.4613143 15.3790556,23.3512 14.8096111,23.1309714 C14.2401667,22.9130857 13.8301667,22.6928571 13.5818889,22.4726286 L13.2083333,22.1446286 L12.5136111,22.8029714 C13.5818889,23.9017714 14.9508333,24.45 16.625,24.45 L16.625,24.45 Z M19.0007222,19.5628 C19.3378333,19.8931429 19.7387222,20.0571429 20.2011111,20.0571429 C20.6635,20.0571429 21.0643889,19.8931429 21.4015,19.5628 C21.7408889,19.2324571 21.9094444,18.8130857 21.9094444,18.3 C21.9094444,17.8244 21.75,17.4214286 21.4288333,17.0910857 C21.1099444,16.7630857 20.6999444,16.5967429 20.2011111,16.5967429 C19.7022778,16.5967429 19.2945556,16.7630857 18.9733889,17.0910857 C18.6522222,17.4214286 18.4927778,17.8244 18.4927778,18.3 C18.4927778,18.8130857 18.6613333,19.2324571 19.0007222,19.5628 L19.0007222,19.5628 Z M24.0186667,7.81102857 C23.8592222,7.99611429 23.7772222,8.214 23.7772222,8.47171429 C23.7772222,8.72708571 23.8592222,8.94731429 24.0186667,9.13005714 C24.1781111,9.3128 24.3831111,9.40417143 24.6313889,9.40417143 C24.8819444,9.40417143 25.0960556,9.3128 25.2737222,9.13005714 C25.4513889,8.94731429 25.5402222,8.72708571 25.5402222,8.47171429 C25.5402222,8.214 25.4513889,7.99611429 25.2737222,7.81102857 C25.0960556,7.62828571 24.8819444,7.53691429 24.6313889,7.53691429 C24.3831111,7.53691429 24.1781111,7.62828571 24.0186667,7.81102857 L24.0186667,7.81102857 Z M26.8203333,17.4214286 C27.2121111,17.1285714 27.408,16.7256 27.408,16.2125143 C27.408,15.8470286 27.285,15.5260571 27.0344444,15.2519429 C26.7861667,14.9778286 26.465,14.8396 26.0732222,14.8396 C25.7885,14.8396 25.522,14.9309714 25.2737222,15.1160571 C26.0208333,15.7744 26.5356111,16.5428571 26.8203333,17.4214286 L26.8203333,17.4214286 Z" id="Reddit-Icon-Copy-4" fill="#999999"></path>
                </g>
            </g>
        </g>
    </g>
</svg>