<?xml version="1.0" encoding="UTF-8" standalone="no"?>
<svg width="14px" height="24px" viewBox="0 0 14 24" version="1.1" xmlns="http://www.w3.org/2000/svg" xmlns:xlink="http://www.w3.org/1999/xlink" xmlns:sketch="http://www.bohemiancoding.com/sketch/ns">
    <!-- Generator: bin/sketchtool 1.4 (305) - http://www.bohemiancoding.com/sketch -->
    <title>Tumblr-Icon</title>
    <desc>Created with bin/sketchtool.</desc>
    <defs></defs>
    <g id="Social-Icons" stroke="none" stroke-width="1" fill="none" fill-rule="evenodd" sketch:type="MSPage">
        <g id="Social-Media-Icons" sketch:type="MSArtboardGroup" transform="translate(-195.000000, -281.000000)">
            <g id="Default" sketch:type="MSLayerGroup" transform="translate(171.000000, 150.000000)">
                <g id="Tumblr-Icon" transform="translate(15.000000, 127.000000)" sketch:type="MSShapeGroup">
                    <rect id="Rectangle-1" x="0" y="0" width="32" height="32"></rect>
                    <path d="M18.6487144,27.1964096 C13.596227,27.2831279 11.6808155,23.5953142 11.6808155,21.0013692 L11.6808155,13.420356 L9.33333333,13.420356 L9.33333333,10.424768 C12.8522745,9.15594097 13.6996805,5.98235205 13.8974593,4.17343679 C13.9111517,4.04868401 14.0085197,4 14.0648106,4 L17.4635631,4 L17.4635631,9.90902176 L22.1037578,9.90902176 L22.1037578,13.420356 L17.4453066,13.420356 L17.4453066,20.6423247 C17.4620417,21.6251331 17.8210863,22.9791572 19.6786855,22.9289518 C20.2933212,22.913738 21.119428,22.7342157 21.5499772,22.5288301 L22.6666667,25.8378214 C22.2467671,26.452457 20.3541762,27.165982 18.6487144,27.1964096" id="Fill-21-Copy-5" fill="#999999"></path>
                </g>
            </g>
        </g>
    </g>
</svg>