<svg width="24" height="20" viewBox="0 0 24 20" xmlns="http://www.w3.org/2000/svg"><title>Twitter-Icon</title><g fill="none" fill-rule="evenodd"><path d="M-4-7h32v32H-4z"/><path d="M21.624 4.956v.617c0 6.318-4.777 13.56-13.56 13.56-2.774 0-5.24-.77-7.397-2.157.462 0 .77.154 1.232.154 2.157 0 4.314-.77 6.01-2.003-2.004 0-3.853-1.387-4.47-3.39.31 0 .617.154.925.154.462 0 .462 0 1.08-.154C3.13 11.274 1.128 9.27 1.128 6.96c0 .462 1.694.462 2.464.616C2.362 6.65 1.59 5.264 1.59 3.57c0-.925.31-1.696.772-2.466 2.31 2.928 6.01 4.777 9.862 5.085-.154-.463-.154-.772-.154-1.08 0-2.62 2.157-4.777 4.777-4.777 1.387 0 2.62.463 3.544 1.54 1.08-.307 2.004-.615 2.93-1.23-.464 1.23-1.234 2.002-2.004 2.618.924-.153 2.003-.46 2.773-.77-.77.925-1.542 1.85-2.466 2.466z" fill="#999"/></g></svg>
