<svg width="28" height="17" viewBox="0 0 28 17" xmlns="http://www.w3.org/2000/svg"><title>VKontakte-Icon</title><g fill="none" fill-rule="evenodd"><path d="M-2-8h32v32H-2z"/><path d="M9.632 1.746c.208-.443.558-.705.99-.82.422-.113.86-.197 1.296-.22.8-.042 1.605-.046 2.405-.032.41.01.828.062 1.23.148.74.16 1.1.568 1.155 1.34.038.552.016 1.11-.004 1.665-.022.583-.08 1.165-.11 1.748-.022.412-.04.825-.032 1.236.01.485.057.972.357 1.374.29.392.348.43.775.167.236-.144.435-.37.61-.594 1.203-1.55 2.12-3.266 2.824-5.108.066-.173.153-.34.222-.513.227-.56.66-.795 1.228-.798.517 0 1.036.03 1.555.03.775.003 1.55-.014 2.325-.004.334.006.672.03.996.103.44.1.596.384.512.84-.117.64-.393 1.216-.708 1.773-.58 1.023-1.303 1.94-2.015 2.867-.454.59-.895 1.19-1.332 1.79-.097.132-.17.284-.238.434-.286.636-.198 1.142.315 1.664.523.533 1.068 1.045 1.594 1.575.774.78 1.486 1.616 2.068 2.56.146.233.257.504.324.774.085.343-.063.628-.348.83-.33.234-.718.31-1.105.315-.806.01-1.613-.018-2.42-.026-.407-.005-.815-.015-1.22.084-.113.03-.25-.013-.37-.04-.772-.188-1.408-.617-1.983-1.156-.566-.53-1.04-1.146-1.525-1.752-.174-.218-.376-.42-.598-.587-.157-.12-.36-.21-.553-.238-.4-.06-.72.135-.847.533-.104.33-.146.685-.194 1.033-.044.345-.046.696-.096 1.04-.094.65-.284.936-1.098 1.082-.67.12-1.34.06-2.01 0-.924-.087-1.833-.262-2.706-.596-1.328-.505-2.45-1.322-3.422-2.362-1.028-1.1-1.9-2.325-2.73-3.58-1.25-1.89-2.295-3.897-3.26-5.948-.27-.578-.564-1.148-.706-1.778-.05-.224-.074-.453-.114-.68-.022-.134.02-.238.145-.28.262-.087.526-.215.792-.228.658-.033 1.32-.007 1.98-.013.55-.004 1.1-.022 1.65-.027.123 0 .25.025.373.043.322.05.565.22.715.516.156.314.318.626.454.95.66 1.563 1.474 3.037 2.424 4.434.2.293.4.59.628.862.125.15.298.273.47.36.287.14.544.06.676-.233.12-.262.217-.55.255-.835.163-1.225.18-2.456.066-3.687-.026-.28-.09-.558-.156-.833-.097-.394-.348-.66-.71-.822-.207-.092-.413-.185-.618-.28-.062-.026-.12-.064-.184-.1" fill="#999"/></g></svg>
