<svg width="24" height="24" viewBox="0 0 24 24" xmlns="http://www.w3.org/2000/svg"><g fill="none" fill-rule="evenodd"><path d="M0 0h23.862v23.862H0z"/><path d="M8.17 7.816c.165-.352.445-.56.79-.65.34-.09.69-.157 1.038-.175.64-.032 1.284-.036 1.925-.024.33.006.662.048.984.117.59.126.88.45.924 1.062.032.44.014.882-.002 1.322-.018.462-.064.924-.09 1.386-.016.328-.03.655-.023.98.007.385.044.772.285 1.09.233.31.28.34.62.133.19-.115.35-.294.488-.472.964-1.23 1.7-2.59 2.26-4.052.054-.138.124-.27.18-.407.18-.446.527-.63.982-.633.414 0 .83.022 1.244.024.62.002 1.24-.012 1.86-.004.268.005.54.024.798.082.353.078.477.305.41.666-.094.508-.315.965-.567 1.407-.464.812-1.043 1.54-1.612 2.275-.364.468-.716.945-1.066 1.42-.078.105-.136.226-.19.345-.23.504-.16.905.25 1.32.42.422.856.828 1.277 1.248.62.62 1.19 1.284 1.655 2.03.116.188.204.403.258.616.068.274-.05.5-.278.66-.265.186-.575.247-.884.25-.645.008-1.292-.013-1.937-.02-.327-.004-.654-.01-.977.067-.09.023-.2-.01-.296-.033-.618-.148-1.127-.49-1.587-.916-.454-.422-.833-.91-1.22-1.39-.14-.173-.302-.334-.48-.466-.125-.095-.287-.167-.442-.19-.32-.045-.577.108-.678.424-.083.263-.116.543-.155.82-.036.272-.037.55-.077.824-.075.517-.227.743-.878.86-.536.093-1.072.046-1.607-.002-.74-.07-1.468-.207-2.166-.472-1.063-.4-1.96-1.05-2.74-1.874-.82-.873-1.52-1.845-2.185-2.84-1-1.5-1.835-3.092-2.607-4.72-.217-.458-.452-.91-.565-1.41-.04-.178-.06-.36-.09-.54-.02-.106.015-.19.114-.222.21-.07.42-.17.634-.18.528-.026 1.057-.006 1.586-.01.44-.004.88-.02 1.32-.022.1 0 .2.02.298.034.258.04.453.174.573.41.124.25.254.497.363.754.527 1.24 1.18 2.41 1.94 3.517.16.233.32.47.503.684.1.118.238.217.377.285.23.113.435.048.54-.184.097-.208.174-.436.204-.662.13-.972.146-1.95.054-2.925-.02-.222-.072-.443-.126-.66-.077-.313-.278-.526-.568-.653-.165-.073-.33-.147-.494-.222-.05-.02-.095-.05-.147-.08" fill="#999"/></g></svg>
