<?xml version="1.0" encoding="UTF-8" standalone="no"?>
<svg width="28px" height="17px" viewBox="0 0 28 17" version="1.1" xmlns="http://www.w3.org/2000/svg" xmlns:xlink="http://www.w3.org/1999/xlink" xmlns:sketch="http://www.bohemiancoding.com/sketch/ns">
    <!-- Generator: bin/sketchtool 1.4 (305) - http://www.bohemiancoding.com/sketch -->
    <title>VKontakte-Icon</title>
    <desc>Created with bin/sketchtool.</desc>
    <defs></defs>
    <g id="Social-Icons" stroke="none" stroke-width="1" fill="none" fill-rule="evenodd" sketch:type="MSPage">
        <g id="Social-Media-Icons" sketch:type="MSArtboardGroup" transform="translate(-272.000000, -337.000000)">
            <g id="Default" sketch:type="MSLayerGroup" transform="translate(171.000000, 150.000000)">
                <g id="VKontakte-Icon" transform="translate(99.000000, 179.000000)" sketch:type="MSShapeGroup">
                    <rect id="Rectangle-1-Copy-6" x="9.09494702e-13" y="0" width="32" height="32"></rect>
                    <path d="M11.6324637,9.74557147 C11.8399563,9.30294281 12.1904507,9.04080351 12.6222597,8.92620709 C13.0442549,8.81304313 13.4830739,8.72852828 13.9176869,8.70560899 C14.718216,8.66406779 15.522951,8.65977043 16.3234802,8.67409498 C16.7342595,8.68268971 17.1506468,8.73569055 17.5530144,8.82163786 C18.2918565,8.98064039 18.6535666,9.39032258 18.7082438,10.1609835 C18.7460972,10.7139112 18.7236655,11.2725687 18.7040378,11.8269289 C18.6816062,12.4099381 18.6241251,12.991515 18.5932816,13.5745242 C18.572252,13.9870713 18.5540262,14.3996184 18.5624381,14.8107331 C18.572252,15.2949029 18.6185172,15.7819377 18.9185404,16.1844576 C19.2101517,16.5755179 19.2676328,16.6127617 19.6952359,16.3506224 C19.9307681,16.2059444 20.1298489,15.9796165 20.3036941,15.7561535 C21.5079927,14.206237 22.4262879,12.4901556 23.1286786,10.6480182 C23.1959735,10.4746912 23.2828961,10.3085264 23.351593,10.1351993 C23.5787134,9.57367684 24.0119244,9.34018665 24.5797253,9.33732174 C25.0970549,9.33588928 25.6157866,9.36597084 26.1345182,9.3674033 C26.9098117,9.37026821 27.6851053,9.35307874 28.4603988,9.36310593 C28.7940694,9.36883575 29.131946,9.39318749 29.4558028,9.4662427 C29.8974257,9.56508211 30.0516432,9.8501407 29.9675245,10.3056615 C29.8511604,10.9459689 29.5749708,11.5218159 29.2595259,12.079041 C28.6805092,13.1032465 27.9570889,14.0214502 27.2448843,14.9468163 C26.7906437,15.5369879 26.3504227,16.1371866 25.9130058,16.7373853 C25.8162693,16.8691712 25.7433665,17.0210114 25.6746696,17.1714192 C25.3886662,17.8059969 25.4769908,18.3116536 25.9901145,18.8344997 C26.5130521,19.3673731 27.0584214,19.8787596 27.5841629,20.408768 C28.3580544,21.1894561 29.070259,22.0260099 29.6520796,22.9685654 C29.7978853,23.2034881 29.9086415,23.4742221 29.9759364,23.7435237 C30.061457,24.087313 29.9128474,24.3723715 29.628246,24.5729153 C29.2973793,24.8078379 28.9104335,24.8851905 28.5234878,24.8894879 C27.7173507,24.8995151 26.9098117,24.8722984 26.1036747,24.8637037 C25.6956993,24.8594063 25.2877239,24.8493791 24.8839544,24.9482185 C24.7703942,24.9768676 24.6344024,24.9353264 24.5138323,24.9066773 C23.7413427,24.7204582 23.104845,24.2907216 22.5300342,23.7521184 C21.9636354,23.2206776 21.489767,22.6061543 21.0046828,22.0002257 C20.8308376,21.7824925 20.6289528,21.5790839 20.4074404,21.4129191 C20.2504189,21.2925929 20.0471322,21.2023482 19.8536593,21.1751315 C19.4526938,21.1164009 19.1330429,21.3097823 19.006865,21.7080049 C18.9031186,22.038902 18.8610593,22.3927184 18.8133921,22.7408051 C18.7685288,23.0845943 18.7671268,23.4355458 18.7166556,23.7793351 C18.6227231,24.4311022 18.4334562,24.7161608 17.6189073,24.8622712 C16.9501641,24.981165 16.2800189,24.9224343 15.6112756,24.8608388 C14.6859705,24.7748915 13.7774891,24.6001319 12.9040572,24.2663699 C11.5763846,23.7607132 10.4548026,22.9442137 9.48183029,21.9042512 C8.45418083,20.8041256 7.58074889,19.5793764 6.75077825,18.3231132 C5.50161636,16.4337048 4.45714317,14.4268351 3.4925827,12.3755592 C3.22059907,11.7982798 2.92758579,11.2281626 2.78598607,10.5978823 C2.73551488,10.3744193 2.71168127,10.1452265 2.6724259,9.91889855 C2.64999426,9.78424776 2.69205358,9.67967853 2.81682957,9.63813733 C3.07899935,9.55075756 3.34257111,9.42326905 3.60894682,9.41037695 C4.26787622,9.37743048 4.92960956,9.40321468 5.58994093,9.39748486 C6.13951609,9.39318749 6.68909124,9.37456557 7.23866639,9.37026821 C7.36344239,9.36883575 7.48962035,9.39461994 7.61299437,9.41324186 C7.93544918,9.46194534 8.17799127,9.63240751 8.32800286,9.92892574 C8.48362235,10.2440659 8.64625174,10.5563411 8.78224355,10.880076 C9.44117294,12.4428846 10.2557218,13.916881 11.2062625,15.3135248 C11.4067453,15.6071782 11.6058261,15.9051288 11.8343484,16.1758629 C11.9591244,16.3248382 12.1315676,16.4494618 12.3054128,16.5354091 C12.5914162,16.6772222 12.8479781,16.5955722 12.979764,16.3033514 C13.100334,16.0412121 13.1970705,15.7532886 13.2349239,15.46823 C13.3975533,14.2434808 13.415779,13.0115693 13.3008168,11.7810903 C13.2741792,11.5003291 13.2110903,11.2224328 13.1437953,10.9474014 C13.0470589,10.5534762 12.7961049,10.2856071 12.4329928,10.1251721 C12.2269021,10.033495 12.0208114,9.94038538 11.8161227,9.84584333 C11.7544357,9.81862668 11.6969546,9.78138285 11.6324637,9.74557147" id="Fill-20-Copy-5" fill="#999999"></path>
                </g>
            </g>
        </g>
    </g>
</svg>