<svg width="24" height="24" viewBox="0 0 24 24" xmlns="http://www.w3.org/2000/svg"><g fill="none" fill-rule="evenodd"><path d="M0 0h23.862v23.862H0z"/><path d="M16.562 11.618c-.273-.08-.46-.137-.318-.493.31-.775.342-1.443.006-1.92-.63-.894-2.353-.845-4.328-.024 0 0-.62.27-.46-.218.302-.97.257-1.783-.216-2.253-1.072-1.066-3.92.04-6.365 2.467-1.83 1.82-2.892 3.746-2.892 5.413 0 3.188 4.115 5.126 8.14 5.126 5.275 0 8.785-3.047 8.785-5.465 0-1.46-1.238-2.29-2.35-2.632m-6.425 6.955c-3.21.315-5.984-1.127-6.192-3.223-.21-2.095 2.226-4.05 5.437-4.364 3.212-.316 5.985 1.127 6.193 3.22.208 2.097-2.226 4.052-5.438 4.367" fill="#E6162D"/><path d="M20.065 5.784c-1.274-1.403-3.153-1.938-4.888-1.572-.402.085-.658.478-.57.876.084.398.48.653.88.568 1.234-.26 2.57.12 3.476 1.117.905.997 1.15 2.357.763 3.55-.127.388.087.804.478.93.39.125.81-.088.936-.475v-.003c.544-1.677.2-3.59-1.075-4.99" fill="#FC9732"/><path d="M18.11 7.54c-.622-.685-1.537-.945-2.382-.766-.346.073-.566.41-.492.755.074.34.414.56.758.486.413-.086.86.04 1.165.374.302.334.384.79.254 1.19-.108.333.075.69.41.8.338.107.698-.076.806-.41.266-.817.1-1.748-.52-2.43" fill="#FC9732"/><path d="M10.46 12.598c-1.53-.395-3.257.362-3.92 1.7-.676 1.365-.023 2.88 1.52 3.375 1.6.513 3.486-.273 4.14-1.746.648-1.44-.16-2.922-1.74-3.33M9.29 16.085c-.31.492-.976.708-1.477.48-.494-.223-.64-.795-.33-1.275.308-.48.95-.692 1.448-.485.503.213.664.78.36 1.28m1.022-1.307c-.112.19-.36.283-.555.204-.19-.08-.25-.292-.142-.48.112-.186.35-.277.54-.202.195.07.265.286.157.478" fill="#000"/></g></svg>
