<svg width="25" height="23" viewBox="0 0 25 23" xmlns="http://www.w3.org/2000/svg"><title>Wykop-Icon</title><g fill="none" fill-rule="evenodd"><path d="M16.24 4.212l-2.95 1.455 3.66 7.458-1.454.734-3.72-7.446-3 1.478 3.67 7.476-1.453.734-3.73-7.464-2.937 1.448 4.433 9.006 11.878-5.91-4.397-8.97" fill="#F68237"/><path d="M6.537 22.3c-.84-.068-1.688-.27-2.487-.546C1.774 20.97.654 19.214.36 16.92c-.445-3.458-.465-6.932-.093-10.4C.617 3.265 2.62 1.31 5.924.904 9.406.475 12.9.556 16.392.697c1.262.052 2.538.214 3.77.497 2.75.63 4.237 2.453 4.518 5.274.296 2.966.397 5.935.178 8.908-.106 1.434-.28 2.872-1.06 4.135-1.053 1.704-2.69 2.495-4.585 2.693-2.205.23-10.672.255-12.676.096zm8.424-2.503c1.492-.092 2.985-.186 4.465-.38.948-.123 1.756-.64 2.122-1.568.298-.756.586-1.567.622-2.365.105-2.306.114-4.618.09-6.927-.01-.797-.174-1.605-.366-2.384-.356-1.443-1.282-2.323-2.778-2.517-.844-.11-1.693-.23-2.542-.245-2.092-.04-4.186-.05-6.28-.02-1.348.018-2.7.084-4.044.21C4.495 3.77 3.5 4.65 3.062 6.297c-.058.218-.105.44-.142.662-.392 2.326-.31 4.67-.232 7.01.032.947.176 1.898.36 2.83.26 1.327 1.053 2.23 2.385 2.582.464.123.944.22 1.42.246 1.88.1 7.29.22 8.108.17z" fill="#367DA9"/></g></svg>
