<?xml version="1.0" encoding="UTF-8" standalone="no"?>
<svg width="25px" height="22px" viewBox="0 0 25 22" version="1.1" xmlns="http://www.w3.org/2000/svg" xmlns:xlink="http://www.w3.org/1999/xlink" xmlns:sketch="http://www.bohemiancoding.com/sketch/ns">
    <!-- Generator: bin/sketchtool 1.4 (305) - http://www.bohemiancoding.com/sketch -->
    <title>Wykop-Icon</title>
    <desc>Created with bin/sketchtool.</desc>
    <defs></defs>
    <g id="Social-Icons" stroke="none" stroke-width="1" fill="none" fill-rule="evenodd" sketch:type="MSPage">
        <g id="Social-Media-Icons" sketch:type="MSArtboardGroup" transform="translate(-232.000000, -282.000000)" fill="#999999">
            <g id="Default" sketch:type="MSLayerGroup" transform="translate(171.000000, 150.000000)">
                <g id="Wykop-Icon" transform="translate(57.000000, 127.000000)" sketch:type="MSShapeGroup">
                    <g id="Imported-Layers" transform="translate(4.000000, 5.000000)">
                        <path d="M16.2411702,3.71191262 L13.2888298,5.1673301 L16.9503191,12.6250097 L15.4964894,13.3591262 L11.7747872,5.91372816 L8.7762766,7.3918932 L12.4468085,14.8677282 L10.9928723,15.6018447 L7.26212766,8.13829126 L4.3262766,9.58569903 L8.75882979,18.5921359 L20.6382979,12.6827864 L16.2411702,3.71191262" id="Fill-1"></path>
                        <path d="M6.53734043,21.7992233 C5.69776596,21.7324757 4.84882979,21.5286019 4.04968085,21.2536019 C1.77425532,20.4705728 0.654468085,18.7143107 0.359468085,16.4200097 C-0.085106383,12.9622718 -0.105319149,9.48798058 0.267446809,6.02105825 C0.617659574,2.7638835 2.62106383,0.809300971 5.9237234,0.403368932 C9.40617021,-0.0246699029 12.9008511,0.0557475728 16.3917021,0.197466019 C17.6541489,0.248834951 18.9302128,0.411485437 20.161383,0.693533981 C22.9130851,1.32395146 24.3991489,3.14653398 24.6802128,5.9675534 C24.9757447,8.93392233 25.0765957,11.9034951 24.857766,14.8763786 C24.752234,16.3102233 24.577234,17.7481262 23.7969149,19.0112039 C22.7447872,20.7141748 21.1075532,21.5048932 19.212766,21.7027864 C17.0079787,21.9330388 8.54106383,21.9582427 6.53734043,21.7992233 L6.53734043,21.7992233 Z M14.9611702,19.2968835 C16.4515957,19.2053592 17.9453191,19.1107379 19.4246809,18.9178641 C20.3734043,18.7941942 21.1805319,18.2758058 21.5467021,17.3490291 C21.845,16.5940874 22.1326596,15.7831845 22.1691489,14.9854175 C22.2745745,12.6792621 22.2841489,10.3668058 22.2593617,8.05766019 C22.2507447,7.26096117 22.0860638,6.45262136 21.8940426,5.67407767 C21.5379787,4.23094175 20.6115957,3.35104854 19.116383,3.15678641 C18.272234,3.047 17.4231915,2.92813592 16.5743617,2.91179612 C14.4818085,2.87132039 12.3878723,2.86085437 10.2952128,2.89065049 C8.94574468,2.90987379 7.59329787,2.97640777 6.24978723,3.10306796 C4.49468085,3.26849515 3.49861702,4.14924272 3.06180851,5.79625243 C3.00404255,6.0141165 2.95702128,6.23571845 2.91957447,6.45806796 C2.52755319,8.78398058 2.60851064,11.1290097 2.68787234,13.4688058 C2.71989362,14.4151262 2.86382979,15.365932 3.04734043,16.296767 C3.3093617,17.6249903 4.1012766,18.5288058 5.43276596,18.8804854 C5.89670213,19.0029806 6.37712766,19.1009126 6.85446809,19.1264369 C8.73382979,19.2267184 14.1430851,19.3471845 14.9611702,19.2968835 L14.9611702,19.2968835 Z" id="Fill-2"></path>
                    </g>
                </g>
            </g>
        </g>
    </g>
</svg>