<?xml version="1.0" encoding="UTF-8" standalone="no"?>
<svg width="22px" height="24px" viewBox="0 0 22 24" version="1.1" xmlns="http://www.w3.org/2000/svg" xmlns:xlink="http://www.w3.org/1999/xlink" xmlns:sketch="http://www.bohemiancoding.com/sketch/ns">
    <!-- Generator: Sketch 3.3.3 (12072) - http://www.bohemiancoding.com/sketch -->
    <title>Shape Copy</title>
    <desc>Created with Sketch.</desc>
    <defs></defs>
    <g id="Page" stroke="none" stroke-width="1" fill="none" fill-rule="evenodd" sketch:type="MSPage">
        <g id="Community-Connect" sketch:type="MSArtboardGroup" transform="translate(-801.000000, -681.000000)" fill="#1A5EB8">
            <path d="M819.333333,689.4 C818.355556,689.4 817.5,689.76 816.888889,690.36 L808.211111,685.44 C808.333333,685.2 808.333333,684.84 808.333333,684.6 C808.333333,682.56 806.744444,681 804.666667,681 C802.588889,681 801,682.56 801,684.6 C801,686.64 802.588889,688.2 804.666667,688.2 C805.644444,688.2 806.5,687.84 807.111111,687.24 L815.788889,692.16 C815.666667,692.4 815.666667,692.76 815.666667,693 C815.666667,693.24 815.666667,693.6 815.788889,693.84 L807.111111,698.88 C806.5,698.28 805.644444,697.92 804.666667,697.92 C802.711111,697.92 801.122222,699.48 801.122222,701.4 C801.122222,703.32 802.711111,704.88 804.666667,704.88 C806.622222,704.88 808.211111,703.32 808.211111,701.4 C808.211111,701.16 808.211111,700.92 808.088889,700.56 L816.766667,695.52 C817.377778,696.12 818.233333,696.48 819.211111,696.48 C821.288889,696.48 822.877778,694.92 822.877778,692.88 C822.877778,690.84 821.411111,689.4 819.333333,689.4 L819.333333,689.4 Z" id="Shape-Copy" sketch:type="MSShapeGroup" transform="translate(812.000000, 693.000000) rotate(-180.000000) translate(-812.000000, -693.000000) "></path>
        </g>
    </g>
</svg>