<svg width="18" height="18" viewBox="0 0 18 18" xmlns="http://www.w3.org/2000/svg">
  <g fill="none" fill-rule="evenodd">
    <path fill="#1A5EB8" d="M-18-382h320V895H-18z"/>
    <path fill="#FFF" d="M-18-74h320V53H-18z"/>
    <rect y="11" width="320" height="263" rx="2" fill="#FFF" transform="translate(-18 -238)"/>
    <path d="M14.03 6.53l-6 6c-.146.147-.338.22-.53.22s-.384-.073-.53-.22l-3-3c-.294-.293-.294-.767 0-1.06.293-.293.767-.293 1.06 0l2.47 2.47 5.47-5.47c.293-.293.767-.293 1.06 0 .293.293.293.767 0 1.06M17.25 0H.75C.335 0 0 .336 0 .75v16.5c0 .414.335.75.75.75h16.5c.415 0 .75-.336.75-.75V.75c0-.414-.335-.75-.75-.75" fill="#00b7e0"/>
  </g>
</svg>
