<svg viewBox="0 0 24 24" xmlns="http://www.w3.org/2000/svg" >
    <g transform="translate(-18.000000, -18.000000)">
        <g transform="translate(18.000000, 18.000000)">
            <path d="M18.29325,4.29325 L12.00025,10.58625 L5.70725,4.29325 C5.31625,3.90225 4.68425,3.90225 4.29325,4.29325 C3.90225,4.68425 3.90225,5.31625 4.29325,5.70725 L10.58625,12.00025 L4.29325,18.29325 C3.90225,18.68425 3.90225,19.31625 4.29325,19.70725 C4.48825,19.90225 4.74425,20.00025 5.00025,20.00025 C5.25625,20.00025 5.51225,19.90225 5.70725,19.70725 L12.00025,13.41425 L18.29325,19.70725 C18.48825,19.90225 18.74425,20.00025 19.00025,20.00025 C19.25625,20.00025 19.51225,19.90225 19.70725,19.70725 C20.09825,19.31625 20.09825,18.68425 19.70725,18.29325 L13.41425,12.00025 L19.70725,5.70725 C20.09825,5.31625 20.09825,4.68425 19.70725,4.29325 C19.31625,3.90225 18.68425,3.90225 18.29325,4.29325 Z" />
        </g>
    </g>
</svg>
