<svg xmlns="http://www.w3.org/2000/svg" width="44" height="44" viewBox="0 0 44 44"><path d="M18.2 0H2.5C1.1 0 0 1.1 0 2.5v15.7c0 1.4 1.1 2.5 2.5 2.5h15.7c1.4 0 2.5-1.1 2.5-2.5V2.5c0-1.4-1.1-2.5-2.5-2.5zM4.9 2.9c1.2 0 2.1.9 2.1 2C7 6.1 6.1 7 4.9 7c-1.1 0-2-.9-2-2.1 0-1.1.9-2 2-2zm0 14.9c-1.1 0-2-.9-2-2s.9-2 2-2c1.2 0 2.1.9 2.1 2s-.9 2-2.1 2zm5.5-5.4c-1.2 0-2.1-.9-2.1-2 0-1.2.9-2.1 2.1-2.1 1.1 0 2 .9 2 2.1 0 1.1-.9 2-2 2zm5.4 5.4c-1.1 0-2-.9-2-2s.9-2 2-2 2 .9 2 2-.9 2-2 2zm0-10.8c-1.1 0-2-.9-2-2.1 0-1.1.9-2 2-2s2 .9 2 2c0 1.2-.9 2.1-2 2.1zm27.4 21.6L32.1 17.4c-1-.9-2.5-.9-3.5 0L17.4 28.6c-.9 1-.9 2.5 0 3.5l11.2 11.1c1 1 2.5 1 3.5 0l11.1-11.1c1-1 1-2.5 0-3.5zm-11.4-7.4c.8.8.8 2.1 0 2.9-.8.8-2.1.8-2.9 0-.8-.8-.8-2.1 0-2.9.8-.8 2.1-.8 2.9 0zM21.2 31.8c-.8-.8-.8-2.1 0-2.9.8-.8 2.1-.8 2.9 0 .8.8.8 2.1 0 2.9-.8.8-2.1.8-2.9 0zm7.7 0c-.8-.8-.8-2.1 0-2.9.8-.8 2.1-.8 2.9 0 .8.8.8 2.1 0 2.9-.8.8-2.1.8-2.9 0zm0 7.7c-.8-.8-.8-2.1 0-2.9.8-.8 2.1-.8 2.9 0 .8.8.8 2.1 0 2.9-.8.7-2.1.7-2.9 0zm7.7-7.7c-.8-.8-.8-2.1 0-2.9.8-.8 2.1-.8 2.9 0 .7.8.7 2.1 0 2.9-.8.8-2.1.8-2.9 0z" fill="#1A5EB8" fill-rule="evenodd"/></svg>