<svg width="243" height="24" viewBox="0 0 243 24" xmlns="http://www.w3.org/2000/svg"><defs><linearGradient x1="0%" y1="100%" x2="63.848%" y2="32.54%" id="a"><stop stop-color="#94D11F" offset="0%"/><stop stop-color="#09D3BF" offset="100%"/></linearGradient></defs><g fill="none" fill-rule="evenodd"><g fill="#39414D"><path d="M119.434 9.308c-1.067-1.124-2.574-1.718-4.358-1.718-1.815 0-3.304.816-4.22 2.308-.914-1.492-2.403-2.308-4.218-2.308-1.784 0-3.29.594-4.358 1.718-.995 1.05-1.543 2.52-1.543 4.14v6.71h3.363v-6.71c0-1.814.925-2.853 2.538-2.853 1.613 0 2.537 1.04 2.537 2.852v6.71h3.364v-6.71c0-1.813.924-2.852 2.536-2.852 1.613 0 2.538 1.04 2.538 2.852v6.71h3.364v-6.71c0-1.62-.548-3.09-1.544-4.14M39.22 1.587c-.272-.04-.553-.08-.845-.08-4.035 0-6.745 2.56-6.745 6.37v12.28h3.363V11.13h3.53V8.124h-3.53V7.85c0-2.15 1.19-3.24 3.536-3.24.228 0 .447.036.68.076.087.015.177.03.268.043l.17.024V1.646l-.128-.017c-.102-.013-.202-.028-.3-.043M49.928 13.934c0 2.184-1.125 3.34-3.254 3.34-2.92 0-3.356-2.093-3.356-3.34 0-2.122 1.224-3.34 3.356-3.34 2.082 0 3.146 1.095 3.254 3.34m3.378.625c-.004-.235-.007-.447-.015-.632-.157-3.91-2.692-6.34-6.616-6.34-2.025 0-3.738.643-4.955 1.858-1.14 1.134-1.766 2.72-1.766 4.464 0 3.63 2.736 6.37 6.362 6.37 1.724 0 3.124-.62 4.07-1.8.138.553.332 1.087.578 1.595l.04.082h3.39l-.093-.198c-.945-2.006-.974-4.05-.994-5.4M62.418 7.59c-1.934 0-3.57.64-4.728 1.852-1.087 1.135-1.685 2.73-1.685 4.492v6.223h3.364v-6.223c0-2.122 1.11-3.34 3.048-3.34s3.05 1.218 3.05 3.34v6.223h3.362v-6.223c0-1.762-.598-3.357-1.684-4.492-1.16-1.212-2.794-1.853-4.728-1.853M80.704 13.934c0 2.184-1.124 3.34-3.253 3.34-2.92 0-3.355-2.093-3.355-3.34 0-2.122 1.223-3.34 3.356-3.34 2.083 0 3.147 1.095 3.254 3.34m2.89 0V3.274h-3.242v5.02c-1.034-.44-1.792-.705-3.077-.705-3.967 0-6.632 2.54-6.632 6.32 0 3.63 2.754 6.37 6.406 6.37 1.858 0 3.2-.53 4.09-1.616.142.577.35 1.196.598 1.774l.038.087h3.393l-.092-.196c-1.087-2.354-1.483-5.114-1.483-6.396M95.702 13.934c0 2.122-1.205 3.34-3.305 3.34s-3.305-1.218-3.305-3.34 1.204-3.34 3.305-3.34c2.1 0 3.305 1.218 3.305 3.34M92.397 7.59c-3.926 0-6.67 2.608-6.67 6.344 0 3.735 2.744 6.345 6.67 6.345 3.926 0 6.67-2.61 6.67-6.346s-2.744-6.345-6.67-6.345"/></g><path d="M10.567 17.4c0 .197-.048.477-.272.69l-.84.723L1.81 11.63V8.81l8.406 7.9c.13.125.35.38.35.69zm11.64-8.383v2.614l-9.51 9.176c-.156.15-.314.217-.51.217-.204 0-.384-.073-.535-.217l-.87-.786L22.208 9.017zm-7.244 4.657l-2.635 2.508-8.35-7.945c-.42-.398-.65-.93-.65-1.5s.23-1.104.65-1.502l2.636-2.51 8.35 7.945c.87.828.87 2.176 0 3.004zm-1.554-6.92l2.745-2.613c.42-.4.982-.62 1.578-.62.597 0 1.158.222 1.58.622l2.834 2.698-4.325 4.114-1.578-1.502-2.835-2.697zm10.557-.415L17.755.326l-.13-.124-.127.123-5.423 5.21L7.227.9 7.222.893 7.216.89 6.61.4 6.484.3l-.118.11L.054 6.327 0 6.377V12.344l.053.052L11.886 23.65l.13.12.127-.12 11.823-11.256.053-.05V6.39l-.053-.05z" fill="url(#a)" transform="translate(.48 .067)"/><g><path fill="#0B2343" d="M221.073 7.342v10.496h2.358v-1.89l.814-.772 1.606 2.662h3.058l-2.948-4.234 2.828-2.765h-3.372l-1.356 1.598-.63.786V7.342M212.57 10.838l-.888 4.78-1.162-4.78h-2.715l-1.143 4.78-.893-4.78h-2.46l1.817 7h3.16l.885-3.633.885 3.632h3.16l1.822-7M239.655 15.215c-.3.392-.772.654-1.387.654-.705 0-1.268-.46-1.268-1.545s.563-1.543 1.268-1.543c.615 0 1.086.262 1.387.654v1.78zm2.353-2.34l.13-2.037h-2.15l-.164.767c-.496-.522-1.112-.955-2.196-.955-1.963 0-3.035 1.27-3.035 3.675 0 2.407 1.072 3.675 3.035 3.675 1.084 0 1.7-.43 2.196-.954l.17.792h2.145l-.132-2.06v-2.904zM217.555 7.38c-.745 0-1.348.605-1.348 1.35 0 .744.603 1.347 1.348 1.347.745 0 1.348-.603 1.348-1.348 0-.745-.603-1.35-1.348-1.35M219.585 12.314V10.84l-1.02-.002h-2.358V17.838h3.378V16.37h-1.06v-4.056M230.718 8.73c0 .743.604 1.347 1.348 1.347.745 0 1.35-.604 1.35-1.348 0-.746-.605-1.35-1.35-1.35-.744 0-1.348.604-1.348 1.35M231.094 12.314v4.056h-1.06v1.468h3.38V10.84h-3.378v1.474"/><path d="M136.733 14.13c.176 0 .346-.013.51-.04.163-.026.306-.075.43-.15.124-.076.224-.183.3-.32.074-.136.112-.316.112-.538 0-.222-.038-.402-.113-.54-.075-.135-.175-.24-.3-.317-.123-.076-.266-.126-.43-.152-.163-.027-.333-.04-.51-.04l-1.194.002v2.095h1.195zm.42-3.292c.44 0 .81.065 1.118.193.308.128.558.296.75.505.193.21.333.447.422.715.088.268.132.546.132.833 0 .28-.044.555-.132.827-.09.27-.23.51-.422.72-.192.208-.442.377-.75.504-.306.127-.678.19-1.116.19l-1.616.002v2.508H134v-6.995l3.154-.002zM141.97 15.223c.067.277.176.527.327.748.15.223.346.4.588.535.24.134.535.2.88.2.347.002.64-.066.883-.2.242-.134.437-.312.588-.534.15-.22.26-.47.328-.748.068-.277.103-.563.103-.857 0-.307-.035-.604-.103-.892-.07-.287-.178-.543-.328-.768-.15-.226-.346-.405-.588-.54-.242-.133-.536-.2-.882-.2s-.64.067-.88.2c-.243.135-.44.314-.59.54-.15.225-.26.48-.327.768-.07.288-.104.585-.104.892 0 .294.034.58.103.857m-1.407-2.312c.157-.447.382-.837.676-1.17.293-.333.654-.595 1.082-.784.427-.19.91-.284 1.444-.284.542 0 1.026.095 1.45.284.425.19.784.45 1.078.783.294.333.52.723.676 1.17.156.448.235.933.235 1.455 0 .51-.08.984-.235 1.425-.157.44-.382.825-.676 1.15-.294.328-.653.584-1.078.77-.424.186-.908.28-1.45.28-.535 0-1.017-.094-1.444-.28-.428-.186-.79-.442-1.083-.77-.295-.325-.52-.71-.677-1.15-.157-.44-.235-.916-.235-1.425 0-.522.078-1.007.235-1.455M153.484 17.833l-1.185-4.76h-.02l-1.167 4.76h-1.557l-1.852-6.994h1.538l1.107 4.76h.02l1.214-4.76h1.44l1.195 4.818h.018l1.146-4.82h1.51l-1.882 6.995M162.927 10.84v1.292h-3.693v1.5h3.39v1.194h-3.39v1.714h3.77v1.293h-5.308V10.84M167.364 14.003c.353 0 .617-.078.794-.235.176-.157.264-.41.264-.764 0-.34-.088-.586-.264-.74-.177-.153-.44-.23-.794-.23h-1.685v1.97h1.684zm.55-3.164c.312 0 .595.05.846.15.25.102.467.24.646.417.18.177.317.38.412.612.094.23.142.48.142.75 0 .41-.087.766-.26 1.067-.173.3-.455.53-.847.685v.02c.19.052.346.132.47.24.124.108.225.235.304.382.078.147.135.308.17.485.037.175.06.35.075.528l.02.392c.006.15.017.303.034.46.016.157.042.305.078.446.036.14.09.26.16.357h-1.536c-.085-.222-.138-.486-.157-.793-.02-.307-.048-.6-.087-.882-.052-.366-.163-.633-.333-.803-.17-.17-.448-.255-.833-.255h-1.538v2.733h-1.54V10.84h3.773zM176.542 10.84v1.292h-3.693v1.5h3.39v1.194h-3.39v1.714h3.77v1.293h-5.31V10.84M180.667 16.54c.222 0 .437-.036.646-.108.21-.072.395-.19.56-.357.162-.167.293-.384.39-.652.1-.268.147-.594.147-.98 0-.352-.034-.67-.102-.955-.07-.284-.182-.527-.338-.73-.157-.202-.365-.357-.622-.464-.258-.11-.577-.162-.956-.162h-1.097v4.408h1.372zm.108-5.7c.45 0 .87.07 1.26.214.387.144.723.36 1.007.647.284.288.506.647.667 1.078.158.43.238.938.238 1.52 0 .508-.065.978-.195 1.41-.13.43-.33.802-.593 1.116-.265.313-.595.56-.99.74-.395.18-.86.27-1.395.27h-3.018v-6.995h3.018zM191.12 16.638c.15 0 .293-.014.43-.044s.258-.078.363-.147c.104-.068.187-.162.25-.28.06-.116.092-.267.092-.45 0-.358-.1-.615-.303-.768-.203-.155-.47-.232-.803-.232h-1.677v1.92h1.646zm-.09-2.968c.275 0 .5-.065.677-.196.176-.13.264-.342.264-.637 0-.163-.028-.297-.087-.4-.058-.106-.137-.187-.235-.246-.098-.058-.21-.098-.338-.12-.127-.024-.26-.036-.397-.036h-1.44v1.636h1.558zm.197-2.83c.333 0 .637.03.91.087.275.06.51.155.706.29.196.133.348.31.456.533.106.222.16.497.16.823 0 .353-.08.647-.24.88-.16.237-.396.43-.71.58.43.124.753.34.965.65.212.31.318.685.318 1.123 0 .352-.068.657-.205.916-.138.258-.322.468-.554.63-.232.165-.496.285-.793.364-.296.078-.602.117-.915.117h-3.39V10.84h3.292zM194.175 10.84h1.724l1.635 2.762 1.626-2.763h1.715l-2.596 4.31v2.683h-1.538V15.11" fill="#7E90A2"/></g></g></svg>
