<svg width="40" height="40" viewBox="0 0 40 40" xmlns="http://www.w3.org/2000/svg"><title>8DCD7A0F-519B-4992-8FC0-21B58D540FB0</title><defs><linearGradient x1="0%" y1="100%" x2="63.848%" y2="32.54%" id="a"><stop stop-color="#94D11F" offset="0%"/><stop stop-color="#09D3BF" offset="100%"/></linearGradient></defs><g fill="none" fill-rule="evenodd"><circle fill="#39414D" cx="20" cy="20" r="20"/><path d="M18.503 24.814c0 .156-.038.378-.218.548l-.677.573-6.15-5.702v-2.238l6.763 6.27c.106.1.283.303.283.55zm9.368-6.655v2.074l-7.652 7.284c-.126.12-.253.172-.412.172-.163 0-.308-.058-.43-.172l-.7-.625 9.195-8.734zm-5.83 3.696l-2.12 1.99-6.72-6.306c-.336-.317-.522-.74-.522-1.193 0-.452.186-.875.522-1.19l2.122-1.993 6.72 6.307c.7.658.7 1.728 0 2.386zm-1.25-5.494L23 14.288c.34-.318.79-.493 1.27-.493s.932.176 1.27.494l2.282 2.14-3.48 3.266-1.27-1.192-2.282-2.142zm8.497-.33l-5-4.773-.103-.1-.103.1-4.363 4.135-3.9-3.68-.006-.006-.003-.004-.487-.387-.102-.082-.095.088-5.08 4.697-.043.04V20.8l.043.04 9.522 8.934.103.097.104-.096 9.514-8.934.042-.04V16.07l-.04-.04z" fill="url(#a)"/></g></svg>