<svg width="72" height="72" viewBox="0 0 72 72" xmlns="http://www.w3.org/2000/svg"><path d="M31.622 52.53c0 .6-.142 1.45-.813 2.1l-2.516 2.2L5.418 34.97v-8.577l25.154 24.037c.39.38 1.05 1.156 1.05 2.098zM66.46 27.022v7.954L38 62.896c-.47.454-.943.658-1.534.658-.605 0-1.144-.223-1.596-.66L32.266 60.5 66.46 27.023zm-21.68 14.17l-7.888 7.632L11.905 24.65c-1.255-1.213-1.946-2.836-1.946-4.57 0-1.732.69-3.355 1.94-4.568l7.892-7.634L44.78 32.05c2.604 2.522 2.604 6.622 0 9.143zm-4.654-21.055l8.22-7.952c1.26-1.217 2.937-1.887 4.722-1.887 1.787 0 3.464.672 4.724 1.89l8.485 8.21-12.942 12.518-4.724-4.57-8.484-8.21zm31.597-1.265L53.133.578 52.748.2l-.385.377-16.228 15.85L21.63 2.32l-.02-.017-.016-.015-1.812-1.48-.377-.31-.353.335L.162 18.837 0 18.99v18.155l.16.154 35.41 34.244.385.37.383-.37 35.38-34.246.16-.154v-18.12l-.155-.152z" fill="#FFF" fill-rule="evenodd"/></svg>
