<svg width="235" height="56" viewBox="0 0 235 56" xmlns="http://www.w3.org/2000/svg" xmlns:xlink="http://www.w3.org/1999/xlink"><defs><path id="a" d="M33.18 21.528V.02H.26v21.508z"/><path id="c" d="M39.063.214H0v40.333h39.063z"/><linearGradient x1="33.016%" y1="84.794%" x2="84.225%" y2="35.32%" id="d"><stop stop-color="#ADED00" offset="0%"/><stop stop-color="#00D6D6" offset="100%"/></linearGradient><path id="f" d="M8.823.188H.097v12.245h8.726V.188z"/></defs><g fill="none" fill-rule="evenodd"><path d="M61.63 2.382c-6.56 0-10.97 4.38-10.97 10.9V34.3h5.47V18.852h5.74v-5.144h-5.74v-.468c0-3.68 1.935-5.548 5.75-5.548.373 0 .73.063 1.106.13.144.027.29.053.438.076l.276.042V2.62l-.208-.028c-.166-.022-.33-.047-.49-.072-.44-.068-.897-.138-1.372-.138zM80.42 23.65c0 3.74-1.83 5.714-5.292 5.714-4.75 0-5.458-3.58-5.458-5.714 0-3.632 1.99-5.715 5.458-5.715 3.386 0 5.117 1.873 5.29 5.715m5.495 1.07c-.006-.4-.01-.763-.023-1.08-.257-6.69-4.38-10.848-10.762-10.848-3.293 0-6.08 1.098-8.06 3.176-1.85 1.942-2.87 4.655-2.87 7.64 0 6.214 4.45 10.9 10.347 10.9 2.804 0 5.08-1.06 6.62-3.075.224.943.54 1.86.94 2.727l.065.14h5.514l-.15-.34c-1.54-3.43-1.59-6.927-1.62-9.24M100.733 12.792c-3.145 0-5.804 1.096-7.69 3.17-1.766 1.943-2.74 4.673-2.74 7.688V34.3h5.47V23.65c0-3.632 1.81-5.714 4.96-5.714 3.152 0 4.96 2.082 4.96 5.714V34.3h5.47V23.65c0-3.015-.973-5.745-2.74-7.688-1.886-2.074-4.545-3.17-7.69-3.17M130.474 23.65c0 3.74-1.83 5.714-5.292 5.714-4.75 0-5.458-3.58-5.458-5.714 0-3.632 1.99-5.715 5.458-5.715 3.387 0 5.117 1.873 5.292 5.715m4.702 0V5.405H129.9V14c-1.68-.753-2.913-1.208-5.004-1.208-6.45 0-10.786 4.347-10.786 10.816 0 6.214 4.48 10.9 10.418 10.9 3.024 0 5.207-.905 6.654-2.763.23.988.57 2.047.973 3.036l.06.15h5.52l-.147-.336c-1.77-4.027-2.412-8.75-2.412-10.944M154.865 23.65c0 3.63-1.96 5.714-5.375 5.714-3.416 0-5.375-2.083-5.375-5.714 0-3.632 1.96-5.715 5.375-5.715 3.416 0 5.375 2.083 5.375 5.715m-5.375-10.858c-6.385 0-10.845 4.465-10.845 10.858 0 6.393 4.46 10.858 10.845 10.858 6.386 0 10.846-4.465 10.846-10.858 0-6.393-4.46-10.858-10.846-10.858" fill="#FFF"/><g transform="translate(162.794 12.772)"><mask id="b" fill="#fff"><use xlink:href="#a"/></mask><path d="M30.67 2.962C28.934 1.037 26.484.02 23.583.02c-2.953 0-5.374 1.398-6.863 3.95C15.232 1.418 12.81.02 9.858.02c-2.9 0-5.352 1.017-7.088 2.942C1.152 4.757.26 7.272.26 10.045v11.483h5.47V10.045c0-3.103 1.505-4.882 4.128-4.882s4.127 1.78 4.127 4.882v11.483h5.47V10.045c0-3.103 1.505-4.882 4.128-4.882s4.127 1.78 4.127 4.882v11.483h5.47V10.045c0-2.773-.89-5.288-2.51-7.083" fill="#FFF" mask="url(#b)"/></g><g transform="translate(0 .05)"><mask id="e" fill="#fff"><use xlink:href="#c"/></mask><path d="M17.186 29.645c0 .338-.077.816-.44 1.182l-1.368 1.236L2.944 19.77v-4.823l13.67 13.518c.213.213.572.65.572 1.18zM36.12 15.3v4.473L20.65 35.476c-.255.255-.512.37-.833.37-.33 0-.623-.126-.87-.372l-1.414-1.346 18.583-18.83zm-11.783 7.97l-4.287 4.29L6.47 13.966c-.682-.683-1.057-1.596-1.057-2.57 0-.975.375-1.887 1.055-2.57l4.29-4.293 13.578 13.595c1.416 1.418 1.416 3.725 0 5.142zm-2.53-11.843l4.468-4.473c.684-.684 1.596-1.06 2.566-1.06.972 0 1.884.377 2.57 1.062l4.61 4.617-7.034 7.04-2.567-2.57-4.612-4.616zm17.172-.71L28.875.426l-.21-.214-.21.213L19.64 9.34l-7.883-7.934-.01-.01-.01-.008-.984-.833-.204-.174-.192.19L.088 10.696 0 10.782v10.212l.086.086 19.246 19.26.208.207.208-.208 19.23-19.26.085-.088v-10.19l-.084-.086z" fill="url(#d)" mask="url(#e)"/></g><g><g transform="translate(210.568 42.575)"><mask id="g" fill="#fff"><use xlink:href="#f"/></mask><path fill="#656E78" mask="url(#g)" d="M.097 12.433V.188h2.626V7.05l.703-.915 1.508-1.87H8.69l-3.152 3.23 3.285 4.938H5.417l-1.79-3.105-.904.9v2.205"/></g><path fill="#656E78" d="M195.888 46.84l-1.274 5.58-.995-5.58h-2.74l2.023 8.167h3.52l.984-4.24.987 4.24h3.52l2.03-8.166h-2.75l-.99 5.58-1.294-5.58M231.362 51.95c-.337.454-.863.76-1.548.76-.784 0-1.41-.533-1.41-1.8 0-1.268.626-1.804 1.41-1.804.685 0 1.21.308 1.548.765v2.08zm2.62-2.734l.145-2.375h-2.397l-.183.896c-.55-.608-1.237-1.113-2.443-1.113-2.186 0-3.38 1.48-3.38 4.288 0 2.805 1.194 4.285 3.38 4.285 1.206 0 1.893-.502 2.443-1.11l.187.922h2.393l-.146-2.404v-3.387zM206.746 42.807c-.83 0-1.502.705-1.502 1.573 0 .87.672 1.575 1.502 1.575.828 0 1.5-.706 1.5-1.575 0-.868-.672-1.573-1.5-1.573M209.006 48.564V46.84H205.244V55.008h3.762v-1.713h-1.178v-4.73M221.405 44.38c0 .87.674 1.575 1.504 1.575.828 0 1.5-.705 1.5-1.575 0-.868-.672-1.573-1.5-1.573-.83 0-1.505.705-1.505 1.573M221.828 48.564v4.73h-1.18v1.713h3.763V46.84H220.65v1.724"/><g fill="#656E78"><path d="M116.92 50.67c.196 0 .386-.014.57-.045.18-.03.34-.09.48-.178.14-.087.25-.21.334-.372.084-.16.126-.37.126-.63s-.042-.47-.126-.63c-.084-.16-.195-.285-.334-.373-.14-.088-.3-.148-.48-.178-.184-.03-.374-.046-.57-.046h-1.336v2.453h1.335zm.47-3.85c.49 0 .905.074 1.248.223.343.15.622.346.837.59.215.245.372.524.47.837.1.314.148.638.148.975 0 .328-.05.65-.147.968-.1.317-.256.598-.47.843-.216.244-.495.44-.838.59-.343.15-.76.224-1.248.224h-1.806v2.934h-1.718V46.82h3.524zM122.66 51.95c.076.324.2.616.366.876.168.26.387.468.657.625.27.157.598.235.985.235s.715-.078.985-.234c.27-.156.49-.364.657-.624.168-.26.29-.552.366-.877.077-.325.115-.66.115-1.004 0-.36-.037-.707-.114-1.043-.076-.336-.198-.636-.366-.9-.168-.263-.387-.473-.657-.63-.27-.157-.598-.235-.985-.235s-.715.078-.985.234c-.27.158-.49.368-.657.63-.167.265-.29.565-.366.9-.077.337-.115.685-.115 1.044 0 .344.038.68.115 1.003m-1.57-2.706c.174-.523.426-.98.754-1.37.33-.39.732-.695 1.21-.917.478-.22 1.016-.332 1.614-.332.605 0 1.146.11 1.62.332.474.222.875.527 1.204.917.328.39.58.847.755 1.37.175.523.262 1.09.262 1.702 0 .596-.088 1.152-.263 1.668-.175.516-.427.965-.755 1.347-.33.383-.73.683-1.204.9-.474.218-1.015.327-1.62.327-.598 0-1.136-.11-1.614-.327-.478-.217-.88-.517-1.21-.9-.328-.38-.58-.83-.755-1.346-.176-.516-.263-1.072-.263-1.668 0-.61.087-1.18.262-1.702M135.416 55.004l-1.325-5.57h-.02l-1.303 5.57h-1.74l-2.068-8.185h1.717l1.237 5.57h.022l1.356-5.57h1.61l1.334 5.64h.022l1.28-5.64h1.686l-2.1 8.184M145.856 46.82v1.512h-4.125v1.754h3.787v1.4h-3.786v2.005h4.214v1.514h-5.932V46.82M150.705 50.522c.394 0 .69-.092.886-.275.198-.183.297-.48.297-.894 0-.398-.1-.686-.296-.865-.196-.18-.49-.27-.885-.27h-1.883v2.304h1.883zm.612-3.703c.35 0 .667.06.947.177.28.12.522.28.723.488.2.206.353.445.46.716.105.272.158.564.158.878 0 .48-.097.898-.29 1.25-.193.35-.51.618-.947.8v.024c.212.062.387.155.526.28.138.127.25.276.34.45.086.17.15.36.19.566.04.206.068.412.082.62.008.13.015.282.022.457.007.176.02.356.04.54.017.182.046.356.086.52.04.165.1.304.18.42h-1.718c-.094-.26-.153-.57-.175-.93-.02-.36-.053-.702-.097-1.03-.06-.43-.183-.743-.372-.94-.19-.2-.5-.3-.93-.3h-1.718v3.2h-1.718v-8.186h4.213zM160.85 46.82v1.512h-4.126v1.754h3.787v1.4h-3.786v2.005h4.214v1.514h-5.932V46.82M165.348 53.49c.248 0 .49-.04.722-.125.234-.084.44-.224.624-.42.182-.193.328-.447.438-.76.11-.314.164-.696.164-1.147 0-.413-.038-.785-.115-1.118-.076-.332-.2-.617-.377-.854-.175-.236-.406-.418-.695-.544-.288-.126-.643-.19-1.066-.19h-1.226v5.16h1.532zm.12-6.67c.504 0 .973.084 1.407.252.434.168.81.42 1.127.756.317.337.565.757.744 1.26.18.506.268 1.098.268 1.778 0 .596-.073 1.146-.22 1.65-.145.505-.365.94-.66 1.307-.296.367-.665.655-1.106.866-.442.21-.962.314-1.56.314h-3.37V46.82h3.37zM176.807 53.605c.167 0 .328-.017.48-.05.154-.036.29-.093.406-.173.117-.08.21-.19.28-.327.07-.137.103-.313.103-.527 0-.42-.113-.72-.34-.9-.225-.18-.524-.27-.897-.27h-1.872v2.247h1.84zm-.1-3.473c.308 0 .56-.076.756-.23.197-.152.296-.4.296-.744 0-.19-.034-.348-.1-.47-.065-.122-.153-.218-.262-.287-.11-.068-.236-.115-.378-.142-.142-.027-.29-.04-.443-.04h-1.61v1.914h1.74zm.22-3.313c.372 0 .712.034 1.018.103.306.068.57.18.788.338.22.158.39.366.51.626s.18.58.18.963c0 .41-.09.755-.27 1.03-.178.275-.442.5-.792.676.482.146.84.4 1.08.763.236.362.354.8.354 1.31 0 .414-.076.77-.23 1.073-.153.302-.36.548-.618.74-.26.19-.554.332-.886.423-.332.092-.673.138-1.023.138h-3.787V46.82h3.677zM180.112 46.82h1.926l1.828 3.232 1.817-3.233h1.915l-2.9 5.043v3.14h-1.72v-3.186"/></g></g></g></svg>
