<svg width="168" height="47" viewBox="0 0 168 47" xmlns="http://www.w3.org/2000/svg"><g fill="#FFF" fill-rule="evenodd"><path d="M110.038 15.333H95.512l-5.846 6.91-2.71 3.39V.236h-10.16v45.318h10.16V37.4l3.5-3.336 6.923 11.49h13.175L97.852 27.278l12.186-11.944M36.327 35.97L31.32 15.333H19.626L14.7 35.972l-3.852-20.64H.255l7.83 30.223h13.614L25.51 29.87l3.814 15.685h13.616l7.852-30.223h-10.64l-3.827 20.64M167 24.12l.565-8.788h-9.274l-.7 3.313c-2.137-2.257-4.79-4.125-9.465-4.125-8.455 0-13.074 5.48-13.074 15.868 0 10.39 4.62 15.868 13.075 15.868 4.674 0 7.328-1.862 9.464-4.12l.726 3.42h9.25l-.567-8.898V24.12zm-10.14 10.11c-1.298 1.694-3.326 2.824-5.976 2.824-3.04 0-5.462-1.98-5.462-6.666s2.423-6.664 5.462-6.664c2.65 0 4.678 1.132 5.977 2.824v7.683zM61.634 12.046c3.21 0 5.81-2.605 5.81-5.82 0-3.215-2.6-5.822-5.81-5.822-3.208 0-5.808 2.607-5.808 5.822s2.6 5.82 5.808 5.82M55.826 15.333v30.222h14.557v-6.34H65.82V21.703h4.563v-6.37H55.826M124.164.404c-3.21 0-5.81 2.607-5.81 5.822s2.6 5.82 5.81 5.82c3.208 0 5.81-2.605 5.81-5.82 0-3.215-2.602-5.822-5.81-5.822M115.414 15.333v6.37h4.562v17.512h-4.562v6.34h14.56V15.333h-14.56"/></g></svg>