<svg width="42" height="42" viewBox="0 0 42 42" xmlns="http://www.w3.org/2000/svg">
  <g fill="none" fill-rule="evenodd">
    <circle fill="#FFF" cx="21" cy="21" r="21"/>
    <path d="M20.923 2.282c-10.295 0-18.64 8.346-18.64 18.64 0 10.296 8.345 18.642 18.64 18.642s18.64-8.346 18.64-18.64c0-10.296-8.345-18.642-18.64-18.642zm-6.672 8.373c1.464 0 2.65 1.186 2.65 2.647 0 1.463-1.186 2.648-2.65 2.648-1.46 0-2.646-1.185-2.646-2.648 0-1.46 1.185-2.647 2.647-2.647zm4.044 9.687h-2.356v7.964h2.356v2.884H11.66V17.445h6.634v2.897zm11.947 1.785v9.063h-6.634v-2.982h2.358v-7.866h-2.358v-2.897h6.635v4.682zm-2.647-6.177c-1.462 0-2.648-1.185-2.648-2.648 0-1.46 1.186-2.647 2.648-2.647 1.462 0 2.648 1.186 2.648 2.647 0 1.463-1.185 2.648-2.647 2.648z" fill="#092344"/>
  </g>
</svg>
