<svg xmlns="http://www.w3.org/2000/svg" width="76" height="21" viewBox="0 0 76 21"><g fill="#123154"><path d="M34.76 20.79V.1h4.62v11.595l1.23-1.545 2.655-3.163h6.6l-5.533 5.456 5.772 8.348h-5.99l-3.145-5.248-1.59 1.523v3.726zM8.794 6.987l-2.23 9.425-1.756-9.425H0L3.555 20.79H9.74l1.726-7.166L13.2 20.79h6.193L22.95 6.988h-4.828l-1.746 9.425-2.268-9.425zM75.75 11.003L76 6.987h-4.204L71.474 8.5c-.977-1.025-2.178-1.88-4.303-1.88-3.84 0-5.94 2.5-5.94 7.245 0 4.742 2.102 7.235 5.94 7.235 2.126 0 3.327-.843 4.304-1.875l.33 1.565H76l-.25-4.063v-5.724zm-4.61 4.617c-.592.772-1.506 1.28-2.718 1.28-1.386 0-2.478-.895-2.478-3.036 0-2.14 1.092-3.042 2.478-3.042 1.212 0 2.126.518 2.718 1.29v3.508zM27.876.178c-1.455 0-2.637 1.19-2.637 2.655 0 1.47 1.18 2.657 2.636 2.657 1.464 0 2.644-1.187 2.644-2.657 0-1.465-1.18-2.655-2.644-2.655zM31.856 9.896v-2.91H25.24V20.79h6.616v-2.896h-2.07V9.896zM53.644 2.833c0 1.47 1.184 2.657 2.64 2.657 1.453 0 2.64-1.187 2.64-2.657 0-1.465-1.187-2.655-2.64-2.655-1.457 0-2.64 1.19-2.64 2.655zM54.382 9.896v7.998h-2.07v2.897h6.61V6.988h-6.61v2.91z"/></g></svg>