<svg width="71" height="48" viewBox="0 0 71 48" xmlns="http://www.w3.org/2000/svg">
  <g fill="none">
    <path d="M0 0H71V48H0z"/>
    <path d="M32.4761916,32.8891502 L32.4761916,14 L36.787277,14 L36.787277,24.584806 L37.937378,23.1720131 L40.4176777,20.2922435 L46.5813188,20.2922435 L41.4106882,25.2704423 L46.8003798,32.8891502 L41.2098101,32.8891502 L38.2730819,28.099194 L36.787277,29.4898264 L36.787277,32.8891502 L32.4761916,32.8891502 Z M8.21893031,20.291513 L6.1285122,28.8942933 L4.49439895,20.291513 L0,20.291513 L3.32178571,32.8889067 L9.09851394,32.8889067 L10.716547,26.3514365 L12.3349512,32.8889067 L18.1121742,32.8889067 L21.4438554,20.291513 L16.9296655,20.291513 L15.305324,28.8942933 L13.1811376,20.291513 L8.21893031,20.291513 Z M26.04327,14.0696473 C24.6819007,14.0696473 23.5789268,15.1562425 23.5789268,16.4962224 C23.5789268,17.8360805 24.6819007,18.9220669 26.04327,18.9220669 C27.4051341,18.9220669 28.508108,17.8360805 28.508108,16.4962224 C28.508108,15.1562425 27.4051341,14.0696473 26.04327,14.0696473 Z M29.7553084,22.9472423 L29.7553084,20.2922435 L23.5789268,20.2922435 L23.5789268,32.8891502 L29.7553084,32.8891502 L29.7553084,30.2463275 L27.819878,30.2463275 L27.819878,22.9472423 L29.7553084,22.9472423 Z M50.1096725,16.4962224 C50.1096725,17.8360805 51.2135122,18.9220669 52.5748815,18.9220669 C53.9362509,18.9220669 55.0397195,17.8360805 55.0397195,16.4962224 C55.0397195,15.1562425 53.9362509,14.0696473 52.5748815,14.0696473 C51.2135122,14.0696473 50.1096725,15.1562425 50.1096725,16.4962224 Z M50.7977787,30.2463275 L48.8624721,30.2463275 L48.8624721,32.8891502 L55.0397195,32.8891502 L55.0397195,20.2922435 L48.8624721,20.2922435 L48.8624721,22.9472423 L50.7977787,22.9472423 L50.7977787,30.2463275 Z M70.7501394,23.9550581 L70.9899808,20.291513 L67.055047,20.291513 L66.7570697,21.6727698 C65.8510157,20.731679 64.7247875,19.9533826 62.7417352,19.9533826 C59.1542561,19.9533826 57.1943345,22.2368886 57.1943345,26.5670752 C57.1943345,30.8984795 59.1542561,33.1813766 62.7417352,33.1813766 C64.7247875,33.1813766 65.8510157,32.4051502 66.7570697,31.4643029 L67.0659321,32.8891502 L70.9899808,32.8891502 L70.7501394,29.1809187 L70.7501394,23.9550581 Z M66.448331,28.168963 C65.8974007,28.8748116 65.0366185,29.3455396 63.912122,29.3455396 C62.6227422,29.3455396 61.5948502,28.5208523 61.5948502,26.5670752 C61.5948502,24.6137852 62.6227422,23.7895849 63.912122,23.7895849 C65.0366185,23.7895849 65.8974007,24.261287 66.448331,24.9668921 L66.448331,28.168963 Z" fill="#092344"/>
  </g>
</svg>
