<svg xmlns="http://www.w3.org/2000/svg" xmlns:xlink="http://www.w3.org/1999/xlink" xmlns:sketch="http://www.bohemiancoding.com/sketch/ns" width="44px" height="44px" viewBox="0 0 44 44" version="1.1"><!-- Generator: Sketch 3.2.2 (9983) - http://www.bohemiancoding.com/sketch --><title>Shape + Shape</title><desc>Created with Sketch.</desc><defs/><g stroke="none" stroke-width="1" fill="none" fill-rule="evenodd" sketch:type="MSPage"><g sketch:type="MSArtboardGroup" transform="translate(-546.000000, -314.000000)" fill="#1A5EB8"><g sketch:type="MSLayerGroup"><path d="M564.2 314 L548.5 314 C547.1 314 546 315.1 546 316.5 L546 332.2 C546 333.6 547.1 334.7 548.5 334.7 L564.2 334.7 C565.6 334.7 566.7 333.6 566.7 332.2 L566.7 316.5 C566.7 315.1 565.6 314 564.2 314 L564.2 314 ZM550.9 316.9 C552.1 316.9 553 317.8 553 318.9 C553 320.1 552.1 321 550.9 321 C549.8 321 548.9 320.1 548.9 318.9 C548.9 317.8 549.8 316.9 550.9 316.9 L550.9 316.9 ZM550.9 331.8 C549.8 331.8 548.9 330.9 548.9 329.8 C548.9 328.7 549.8 327.8 550.9 327.8 C552.1 327.8 553 328.7 553 329.8 C553 330.9 552.1 331.8 550.9 331.8 L550.9 331.8 ZM556.4 326.4 C555.2 326.4 554.3 325.5 554.3 324.4 C554.3 323.2 555.2 322.3 556.4 322.3 C557.5 322.3 558.4 323.2 558.4 324.4 C558.4 325.5 557.5 326.4 556.4 326.4 L556.4 326.4 ZM561.8 331.8 C560.7 331.8 559.8 330.9 559.8 329.8 C559.8 328.7 560.7 327.8 561.8 327.8 C562.9 327.8 563.8 328.7 563.8 329.8 C563.8 330.9 562.9 331.8 561.8 331.8 L561.8 331.8 ZM561.8 321 C560.7 321 559.8 320.1 559.8 318.9 C559.8 317.8 560.7 316.9 561.8 316.9 C562.9 316.9 563.8 317.8 563.8 318.9 C563.8 320.1 562.9 321 561.8 321 L561.8 321 Z" sketch:type="MSShapeGroup"/><path d="M589.2 342.6 L578.1 331.4 C577.1 330.5 575.6 330.5 574.6 331.4 L563.4 342.6 C562.5 343.6 562.5 345.1 563.4 346.1 L574.6 357.2 C575.6 358.2 577.1 358.2 578.1 357.2 L589.2 346.1 C590.2 345.1 590.2 343.6 589.2 342.6 L589.2 342.6 ZM577.8 335.2 C578.6 336 578.6 337.3 577.8 338.1 C577 338.9 575.7 338.9 574.9 338.1 C574.1 337.3 574.1 336 574.9 335.2 C575.7 334.4 577 334.4 577.8 335.2 L577.8 335.2 ZM567.2 345.8 C566.4 345 566.4 343.7 567.2 342.9 C568 342.1 569.3 342.1 570.1 342.9 C570.9 343.7 570.9 345 570.1 345.8 C569.3 346.6 568 346.6 567.2 345.8 L567.2 345.8 ZM574.9 345.8 C574.1 345 574.1 343.7 574.9 342.9 C575.7 342.1 577 342.1 577.8 342.9 C578.6 343.7 578.6 345 577.8 345.8 C577 346.6 575.7 346.6 574.9 345.8 L574.9 345.8 ZM574.9 353.5 C574.1 352.7 574.1 351.4 574.9 350.6 C575.7 349.8 577 349.8 577.8 350.6 C578.6 351.4 578.6 352.7 577.8 353.5 C577 354.2 575.7 354.2 574.9 353.5 L574.9 353.5 ZM582.6 345.8 C581.8 345 581.8 343.7 582.6 342.9 C583.4 342.1 584.7 342.1 585.5 342.9 C586.2 343.7 586.2 345 585.5 345.8 C584.7 346.6 583.4 346.6 582.6 345.8 L582.6 345.8 Z" sketch:type="MSShapeGroup"/></g></g></g></svg>