<svg xmlns="http://www.w3.org/2000/svg" width="41" height="41" viewBox="0 0 41 41"><g fill="none" fill-rule="evenodd"><path d="M20.4 9C9.4 9 0 20.2 0 20.2v.4s9.3 11.2 20.4 11.2c11 0 20.4-11.1 20.4-11.1v-.5S31.5 9 20.4 9zm0 18.4c-3.8 0-6.8-3.1-6.8-6.8 0-3.8 3-6.9 6.8-6.9 3.7 0 6.7 3.1 6.7 6.9 0 3.7-3 6.8-6.7 6.8z" fill="#1A5EB8"/><path d="M20.1 17c-1.7 0-3.1 1.4-3.1 3.1 0 1.8 1.4 3.2 3.1 3.2 1.7 0 3.1-1.4 3.1-3.2 0-1.7-1.4-3.1-3.1-3.1" fill="#1A5EB8"/><path d="M2 39.1L39.5 1.6" stroke="#1A5EB8" stroke-width="4"/></g></svg>