<svg xmlns="http://www.w3.org/2000/svg" xmlns:xlink="http://www.w3.org/1999/xlink" width="41px" height="41px" viewBox="0 0 41 41" version="1.1"><g stroke="none" stroke-width="1" fill="none" fill-rule="evenodd"><g transform="translate(-548.000000, -453.000000)"><g transform="translate(49.500000, 414.000000)"><g><path d="M518.9 48 C507.9 48 498.5 59.2 498.5 59.2 L498.5 59.6 C498.5 59.6 507.8 70.8 518.9 70.8 C529.9 70.8 539.3 59.7 539.3 59.7 L539.3 59.2 C539.3 59.2 530 48 518.9 48 L518.9 48 ZM518.9 66.4 C515.1 66.4 512.1 63.3 512.1 59.6 C512.1 55.8 515.1 52.7 518.9 52.7 C522.6 52.7 525.6 55.8 525.6 59.6 C525.6 63.3 522.6 66.4 518.9 66.4 L518.9 66.4 Z" fill="#1A5EB8"/><path d="M518.6 56 C516.9 56 515.5 57.4 515.5 59.1 C515.5 60.9 516.9 62.3 518.6 62.3 C520.3 62.3 521.7 60.9 521.7 59.1 C521.7 57.4 520.3 56 518.6 56 " fill="#1A5EB8"/><path d="M500.5 78.1 L538 40.6 " stroke="#1A5EB8" stroke-width="4"/></g></g></g></g></svg>
