<svg xmlns="http://www.w3.org/2000/svg" xmlns:xlink="http://www.w3.org/1999/xlink" xmlns:sketch="http://www.bohemiancoding.com/sketch/ns" width="41px" height="23px" viewBox="0 0 41 23" version="1.1"><!-- Generator: Sketch 3.2.2 (9983) - http://www.bohemiancoding.com/sketch --><title>icon - show</title><desc>Created with Sketch.</desc><defs/><g stroke="none" stroke-width="1" fill="none" fill-rule="evenodd" sketch:type="MSPage"><g sketch:type="MSArtboardGroup" transform="translate(-547.000000, -462.000000)" fill="#1A5EB8"><g sketch:type="MSLayerGroup"><path d="M567.6 462.2 C556.6 462.2 547.2 473.3 547.2 473.3 L547.2 473.7 C547.2 473.7 556.5 485 567.6 485 C578.6 485 588 473.8 588 473.8 L588 473.4 C588 473.4 578.7 462.2 567.6 462.2 L567.6 462.2 ZM567.5 480.5 C563.8 480.5 560.8 477.5 560.8 473.7 C560.8 469.9 563.8 466.9 567.5 466.9 C571.3 466.9 574.3 469.9 574.3 473.7 C574.3 477.5 571.3 480.5 567.5 480.5 L567.5 480.5 Z" sketch:type="MSShapeGroup"/><path d="M567.5 470.5 C565.8 470.5 564.4 471.9 564.4 473.7 C564.4 475.4 565.8 476.8 567.5 476.8 C569.3 476.8 570.6 475.4 570.6 473.7 C570.6 471.9 569.3 470.5 567.5 470.5 " sketch:type="MSShapeGroup"/></g></g></g></svg>