<svg xmlns="http://www.w3.org/2000/svg" width="26" height="26" viewBox="0 0 26 26">
  <g fill="none" fill-rule="evenodd">
    <path d="M12.885 5.5c.975 0 1.73.742 1.73 1.73 0 .94-.755 1.732-1.755 1.732-.902 0-1.706-.792-1.706-1.73 0-.99.804-1.732 1.73-1.732zm2.885 15H10v-.99c1.307-.15 1.442-.236 1.442-1.766v-4.27c0-1.422-.157-1.487-1.24-1.66v-.922c1.353-.15 2.84-.432 4.102-.777v7.63c0 1.487.113 1.594 1.465 1.766v.99z" fill="#656E78"/>
    <path d="M13 1C6.373 1 1 6.373 1 13c0 6.628 5.373 12 12 12s12-5.372 12-12c0-6.627-5.373-12-12-12z" stroke="#656E78"/>
  </g>
</svg>
