<svg xmlns="http://www.w3.org/2000/svg" xmlns:xlink="http://www.w3.org/1999/xlink" width="30px" height="25px" viewBox="0 0 30 25" version="1.1"><g stroke="none" stroke-width="1" fill="none" fill-rule="evenodd"><g transform="translate(-192.000000, -478.000000)" fill="#FFFFFF"><g><path d="M207.1 499.5 C202.4 499.5 198.5 495.5 198.5 490.6 L201.3 490.6 L196.8 486 L192.3 490.6 L195.2 490.6 C195.2 497.4 200.5 502.9 207.1 502.9 C210.9 502.9 214.3 501.1 216.5 498.2 L214.2 495.8 C212.6 498 210 499.5 207.1 499.5 Z"/><path d="M220.1 490.6 L220.1 490.6 L219.1 490.6 L219.1 490.6 C219.1 490.6 219.1 490.6 219.1 490.6 C219.1 483.8 213.7 478.2 207.1 478.2 C203.3 478.2 199.9 480.1 197.7 483 L200.1 485.5 C201.6 483.2 204.2 481.7 207.1 481.7 C211.9 481.7 215.8 485.7 215.8 490.6 C215.8 490.6 215.8 490.6 215.8 490.6 L215.8 490.6 L214.7 490.6 L214.7 490.6 L212.9 490.6 L217.4 495.2 L221.9 490.6 L220.1 490.6 "/></g></g></g></svg>