<svg xmlns="http://www.w3.org/2000/svg" xmlns:xlink="http://www.w3.org/1999/xlink" width="45" height="45" viewBox="0 0 45 45"><g><g opacity=".5"><defs><path id="a" d="M1.272.97h42.253v43.057H1.272z"/></defs><clipPath id="b"><use xlink:href="#a" overflow="visible"/></clipPath><path clip-path="url(#b)" d="M43.523 22.5c0 11.89-9.46 21.53-21.126 21.53C10.73 44.03 1.27 34.39 1.27 22.5S10.73.97 22.397.97c11.667 0 21.126 9.64 21.126 21.53"/></g><g opacity=".3"><defs><path id="c" d="M0 .04h17.958v44.92H0z"/></defs><clipPath id="d"><use xlink:href="#c" overflow="visible"/></clipPath><path clip-path="url(#d)" fill="#fff" d="M1.373 22.5c0-10.3 6.867-18.906 16.585-21.024V.04C7.395 2.18 0 11.42 0 22.5c0 11.078 7.395 20.32 17.958 22.46v-1.435C8.24 41.405 1.373 32.8 1.373 22.5"/></g><g opacity=".3"><defs><path id="e" d="M26.83 0H45v45H26.83z"/></defs><clipPath id="f"><use xlink:href="#e" overflow="visible"/></clipPath><path clip-path="url(#f)" fill="#fff" d="M26.832 0v1.425C36.127 3.462 43.627 12.123 43.627 22.5c0 10.377-7.5 19.04-16.795 21.075V45C36.972 42.94 45 33.652 45 22.5 45 11.346 36.973 2.058 26.832 0"/></g><g opacity=".9"><defs><path id="g" d="M18.38 13.42h13.657v18.133H18.38z"/></defs><clipPath id="h"><use xlink:href="#g" overflow="visible"/></clipPath><path clip-path="url(#h)" fill="#fff" d="M18.38 13.42v18.132l13.657-9.066z"/></g></g></svg>