<svg width="25" height="22" viewBox="0 0 25 22" xmlns="http://www.w3.org/2000/svg"><title>Reddit-Icon</title><g fill="none" fill-rule="evenodd"><path d="M-4-6h32v32H-4z"/><path d="M24.636 10.27c0 1.133-.48 1.957-1.442 2.468.036.185.055.44.055.77 0 2.086-1.042 3.87-3.124 5.354-2.082 1.483-4.583 2.224-7.5 2.224-2.92 0-5.41-.734-7.474-2.198-2.066-1.464-3.098-3.238-3.098-5.325 0-.366.018-.64.055-.825-.963-.51-1.443-1.335-1.443-2.47 0-.768.266-1.42.8-1.95s1.156-.795 1.87-.795c.64 0 1.227.237 1.76.714 1.96-1.39 4.253-2.14 6.888-2.25h.105L13.746.33l4.803.987C19.047.437 19.742 0 20.63 0h.056c.677 0 1.237.24 1.68.715.445.475.668 1.06.668 1.757 0 .693-.223 1.28-.667 1.757-.444.474-1.004.71-1.68.71h-.056c-.602 0-1.137-.21-1.6-.63-.462-.42-.71-.943-.747-1.564l-3.576-.77-1.175 4.064c2.706.183 4.93.916 6.673 2.197.533-.477 1.14-.714 1.816-.714.712 0 1.326.265 1.84.796.518.53.776 1.18.776 1.95zM2.482 11.367c.285-.844.8-1.594 1.547-2.252-.25-.185-.516-.276-.8-.276-.356 0-.668.138-.935.412-.268.274-.4.595-.4.96 0 .55.195.935.587 1.156zm4.963.932c0 .513.17.932.508 1.263.337.33.738.494 1.2.494.465 0 .864-.164 1.203-.494.337-.33.506-.75.506-1.263 0-.476-.16-.88-.48-1.21-.32-.327-.73-.493-1.228-.493-.497 0-.907.166-1.228.494-.32.33-.48.734-.48 1.21zm5.18 6.15c1.708 0 3.096-.548 4.164-1.647l-.696-.658c-.888.878-2.045 1.316-3.47 1.316-.64 0-1.245-.11-1.814-.33-.57-.217-.98-.437-1.228-.657l-.374-.328-.694.658c1.068 1.1 2.437 1.647 4.11 1.647zM15 13.563c.338.33.74.494 1.2.494.463 0 .864-.164 1.2-.494.34-.33.51-.75.51-1.263 0-.476-.16-.88-.48-1.21-.32-.327-.73-.493-1.23-.493-.498 0-.905.166-1.227.494-.32.33-.48.734-.48 1.21 0 .513.168.932.508 1.263zM20.02 1.81c-.16.186-.243.404-.243.662 0 .255.082.475.242.658.158.183.363.274.61.274.252 0 .466-.09.644-.274.177-.183.266-.403.266-.658 0-.258-.09-.476-.266-.66-.178-.184-.392-.275-.643-.275-.247 0-.452.09-.61.274zm2.8 9.61c.392-.29.588-.694.588-1.207 0-.366-.123-.687-.374-.96-.248-.275-.57-.413-.96-.413-.286 0-.552.09-.8.276.747.658 1.262 1.427 1.546 2.305z" fill="#999"/></g></svg>
