<svg xmlns="http://www.w3.org/2000/svg" xmlns:xlink="http://www.w3.org/1999/xlink" xmlns:sketch="http://www.bohemiancoding.com/sketch/ns" width="145px" height="41px" viewBox="0 0 145 41" version="1.1"><!-- Generator: Sketch 3.2.2 (9983) - http://www.bohemiancoding.com/sketch --><title>Imported Layers</title><desc>Created with Sketch.</desc><defs/><g stroke="none" stroke-width="1" fill="none" fill-rule="evenodd" sketch:type="MSPage"><g sketch:type="MSArtboardGroup" transform="translate(-177.000000, -383.000000)" fill="#FFFFFF"><g sketch:type="MSLayerGroup"><path d="M272 396.7 L259.4 396.7 L254.4 402.7 L252 405.6 L252 383.7 L243.3 383.7 L243.3 422.8 L252 422.8 L252 415.8 L255.1 412.9 L261 422.8 L272.4 422.8 L261.5 407 L272 396.7 " sketch:type="MSShapeGroup"/><path d="M208.3 414.5 L203.9 396.7 L193.8 396.7 L189.6 414.5 L186.2 396.7 L177.1 396.7 L183.9 422.8 L195.6 422.8 L198.9 409.3 L202.2 422.8 L214 422.8 L220.8 396.7 L211.6 396.7 L208.3 414.5 " sketch:type="MSShapeGroup"/><path d="M321.2 404.3 L321.7 396.7 L313.7 396.7 L313.1 399.6 C311.3 397.6 309 396 304.9 396 C297.6 396 293.6 400.7 293.6 409.7 C293.6 418.7 297.6 423.4 304.9 423.4 C309 423.4 311.3 421.8 313.1 419.8 L313.7 422.8 L321.7 422.8 L321.2 415.1 L321.2 404.3 L321.2 404.3 ZM312.5 413 C311.3 414.5 309.6 415.5 307.3 415.5 C304.7 415.5 302.6 413.7 302.6 409.7 C302.6 405.7 304.7 404 307.3 404 C309.6 404 311.4 404.9 312.5 406.4 L312.5 413 L312.5 413 Z" sketch:type="MSShapeGroup"/><path d="M230.1 393.9 C232.9 393.9 235.2 391.6 235.2 388.9 C235.2 386.1 233 383.8 230.2 383.8 C227.4 383.8 225.2 386.1 225.2 388.9 C225.1 391.6 227.4 393.9 230.2 393.9 " sketch:type="MSShapeGroup"/><path d="M225.1 396.7 L225.1 422.8 L237.7 422.8 L237.7 417.3 L233.8 417.3 L233.8 402.2 L237.7 402.2 L237.7 396.7 L225.1 396.7 " sketch:type="MSShapeGroup"/><path d="M284.2 383.8 C281.4 383.8 279.2 386.1 279.2 388.9 C279.2 391.6 281.5 393.9 284.2 393.9 C287 393.9 289.3 391.6 289.3 388.9 C289.2 386.1 287 383.8 284.2 383.8 " sketch:type="MSShapeGroup"/><path d="M276.6 396.7 L276.6 402.2 L280.6 402.2 L280.6 417.3 L276.6 417.3 L276.6 422.8 L289.2 422.8 L289.2 396.7 L276.6 396.7 " sketch:type="MSShapeGroup"/></g></g></g></svg>