<?xml version="1.0" encoding="UTF-8" standalone="no"?>
<!-- Generator: Adobe Illustrator 15.0.0, SVG Export Plug-In  -->

<svg
   xmlns:dc="http://purl.org/dc/elements/1.1/"
   xmlns:cc="http://creativecommons.org/ns#"
   xmlns:rdf="http://www.w3.org/1999/02/22-rdf-syntax-ns#"
   xmlns:svg="http://www.w3.org/2000/svg"
   xmlns="http://www.w3.org/2000/svg"
   xmlns:sodipodi="http://sodipodi.sourceforge.net/DTD/sodipodi-0.dtd"
   xmlns:inkscape="http://www.inkscape.org/namespaces/inkscape"
   version="1.1"
   x="0px"
   y="0px"
   width="855.59998"
   height="234.89999"
   viewBox="-60 -2.5 880 234.89999"
   overflow="visible"
   enable-background="new -51.7 -2.5 959 240"
   xml:space="preserve"
   id="svg3047"
   inkscape:version="0.48.4 r9939"
   sodipodi:docname="Wikia_Logo.svg"
   style="overflow:visible"><metadata
   id="metadata3067"><rdf:RDF><cc:Work
       rdf:about=""><dc:format>image/svg+xml</dc:format><dc:type
         rdf:resource="http://purl.org/dc/dcmitype/StillImage" /></cc:Work></rdf:RDF></metadata><sodipodi:namedview
   pagecolor="#ffffff"
   bordercolor="#666666"
   borderopacity="1"
   objecttolerance="10"
   gridtolerance="10"
   guidetolerance="10"
   inkscape:pageopacity="0"
   inkscape:pageshadow="2"
   inkscape:window-width="1280"
   inkscape:window-height="750"
   id="namedview3065"
   showgrid="false"
   inkscape:zoom="256"
   inkscape:cx="856.71587"
   inkscape:cy="0.54854554"
   inkscape:window-x="-8"
   inkscape:window-y="-8"
   inkscape:window-maximized="1"
   inkscape:current-layer="svg3047" />
<defs
   id="defs3049">
</defs>






<g
   id="g3069"
   transform="translate(-51.7,-2.4999634)"><polygon
     id="polygon3051"
     points="447,189.8 447,231.1 395,231.1 395,0 447,0 447,129.7 460.9,112.4 490.1,78 564.3,78 502.8,138.1 567.8,231.1 500.2,231.1 464.9,172.7 "
     style="fill:#002e54" /><polygon
     id="polygon3053"
     points="257.7,78.5 203.6,78.5 184.2,182.2 158.9,78.5 135.5,78.5 134.2,78.5 123.5,78.5 122.2,78.5 98.7,78.5 73.5,182.2 54,78.5 0,78.5 39.6,230.5 109.3,230.5 128.8,150.4 148.3,230.5 218,230.5 "
     style="fill:#002e54" /><path
     id="path3055"
     d="m 852.7,122 2.9,-44.4 H 808 L 804.5,94 C 793.6,82.5 780,72.9 756.1,72.9 c -43.3,0 -66.9,28 -66.9,81 0,53.1 23.6,81 66.9,81 23.9,0 37.5,-9.5 48.4,-21 l 3.5,16.4 h 47.6 l -2.9,-44.4 V 122 z m -51.9,51.6 c -6.6,8.6 -17,14.4 -30.6,14.4 -15.6,0 -28,-10.1 -28,-34 0,-23.9 12.4,-34 28,-34 13.6,0 23.9,5.8 30.6,14.4 v 39.2 z"
     inkscape:connector-curvature="0"
     style="fill:#002e54" /><path
     id="path3057"
     d="m 313.5,0.9 c -16.4,0 -29.7,13.3 -29.7,29.7 0,16.4 13.3,29.7 29.7,29.7 16.4,0 29.7,-13.3 29.7,-29.7 0,-16.4 -13.3,-29.7 -29.7,-29.7 z"
     inkscape:connector-curvature="0"
     style="fill:#002e54" /><polygon
     id="polygon3059"
     points="335.8,77.1 283.8,77.1 283.8,129.7 283.8,178.9 283.8,230.2 283.8,231.4 358.3,231.4 358.3,199 334.9,199 334.9,109.6 358.3,109.6 358.3,77.1 "
     style="fill:#002e54" /><path
     id="path3061"
     d="m 633.5,0.9 c 16.4,0 29.7,13.3 29.7,29.7 0,16.4 -13.3,29.7 -29.7,29.7 C 617.1,60.3 603.8,47 603.8,30.6 603.7,14.2 617,0.9 633.5,0.9 z"
     inkscape:connector-curvature="0"
     style="fill:#002e54" /><polygon
     id="polygon3063"
     points="611.2,77.1 663.2,77.1 663.2,129.7 663.2,178.9 663.2,230.2 663.2,231.4 588.7,231.4 588.7,199 612,199 612,109.6 588.7,109.6 588.7,77.1 "
     style="fill:#002e54" /></g>
</svg>
