<?xml version="1.0" encoding="utf-8"?>
<!-- Generator: Adobe Illustrator 16.0.4, SVG Export Plug-In . SVG Version: 6.00 Build 0)  -->
<!DOCTYPE svg PUBLIC "-//W3C//DTD SVG 1.1//EN" "http://www.w3.org/Graphics/SVG/1.1/DTD/svg11.dtd">
<svg version="1.1" xmlns="http://www.w3.org/2000/svg" xmlns:xlink="http://www.w3.org/1999/xlink" x="0px" y="0px" width="76px"
	 height="21px" viewBox="0 0 76 21" enable-background="new 0 0 76 21" xml:space="preserve">
<g id="white">
</g>
<g id="Layer_1">
	<g>
		<polygon fill="#123154" points="34.761,20.791 34.761,0.1 39.379,0.1 39.379,11.695 40.61,10.15 43.265,6.987 49.866,6.987 
			44.332,12.443 50.104,20.791 44.115,20.791 40.969,15.542 39.379,17.065 39.379,20.791 		"/>
		<polygon fill="#123154" points="8.794,6.987 6.563,16.412 4.808,6.987 0,6.987 3.555,20.791 9.739,20.791 11.466,13.624 
			13.2,20.791 19.393,20.791 22.95,6.987 18.122,6.987 16.376,16.412 14.108,6.987 		"/>
		<path fill="#123154" d="M75.749,11.003L76,6.987h-4.204L71.474,8.5c-0.977-1.025-2.178-1.879-4.303-1.879
			c-3.84,0-5.94,2.499-5.94,7.244c0,4.742,2.101,7.235,5.94,7.235c2.125,0,3.326-0.843,4.303-1.875l0.331,1.565H76l-0.251-4.063
			V11.003z M71.14,15.62c-0.592,0.772-1.506,1.281-2.718,1.281c-1.386,0-2.478-0.896-2.478-3.037c0-2.139,1.092-3.042,2.478-3.042
			c1.212,0,2.126,0.518,2.718,1.289V15.62z"/>
		<path fill="#123154" d="M27.876,0.178c-1.455,0-2.637,1.19-2.637,2.655c0,1.47,1.182,2.657,2.637,2.657
			c1.464,0,2.644-1.187,2.644-2.657C30.52,1.368,29.34,0.178,27.876,0.178z"/>
		<polygon fill="#123154" points="31.856,9.896 31.856,6.987 29.854,6.987 25.239,6.987 25.239,11.695 25.239,16.085 25.239,20.68 
			25.239,20.791 31.856,20.791 31.856,17.894 29.785,17.894 29.785,9.896 		"/>
		<path fill="#123154" d="M53.644,2.833c0,1.47,1.184,2.657,2.641,2.657c1.452,0,2.639-1.187,2.639-2.657
			c0-1.465-1.187-2.655-2.639-2.655C54.827,0.178,53.644,1.368,53.644,2.833z"/>
		<polygon fill="#123154" points="54.382,9.896 54.382,17.894 52.312,17.894 52.312,20.791 58.923,20.791 58.923,20.68 
			58.923,16.085 58.923,11.695 58.923,6.987 54.315,6.987 52.312,6.987 52.312,9.896 		"/>
	</g>
</g>
<g id="phone_frame">
</g>
<g id="redline">
</g>
<g id="grid" display="none">
</g>
</svg>
