<svg viewBox="0 0 24 24" xmlns="http://www.w3.org/2000/svg">
    <g>
        <g transform="translate(-18.0, -12.0)">
            <g transform="translate(18.0, 12.0)">
                <rect x="0" y="0" width="24" height="24" />
                <path d="M22,12.000125 C22,11.4481336 21.5936133,11.0001406 21.0908574,11.0001406 L5.10267629,11.0001406 L9.91476788,5.70722332 C10.2702426,5.31622943 10.2702426,4.68423931 9.91476788,4.29324542 C9.55929314,3.90225153 8.98471504,3.90225153 8.6292403,4.29324542 L2.26615149,11.2921361 C2.18160123,11.3851346 2.11523382,11.4951329 2.06886755,11.618131 C1.97704415,11.8621272 1.97704415,12.1381228 2.06886755,12.382119 C2.11523382,12.5051171 2.18160123,12.6151154 2.26615149,12.7081139 L8.6292403,19.7070046 C8.8065231,19.9020015 9.03926359,20 9.27200409,20 C9.50474459,20 9.73748508,19.9020015 9.91476788,19.7070046 C10.2702426,19.3160107 10.2702426,18.6840206 9.91476788,18.2930267 L5.10267629,13.0001094 L21.0908574,13.0001094 C21.5936133,13.0001094 22,12.5521164 22,12.000125" fill="#FFFFFF" />
            </g>
        </g>
    </g>
</svg>
