<svg width="24px" height="24px" viewBox="0 0 24 24" xmlns="http://www.w3.org/2000/svg">
    <g stroke="none" stroke-width="1" fill="none" fill-rule="evenodd">
        <g transform="translate(-18.000000, -12.000000)">
            <g transform="translate(18.000000, 12.000000)">
                <rect x="0" y="0" width="24" height="24"></rect>
                <path d="M22.99875,12.00025 C22.99875,11.44825 22.55175,11.00025 21.99875,11.00025 L4.41275,11.00025 L9.70575,5.70725 C10.09675,5.31625 10.09675,4.68425 9.70575,4.29325 C9.31475,3.90225 8.68275,3.90225 8.29175,4.29325 L1.29275,11.29225 C1.19975,11.38525 1.12675,11.49525 1.07575,11.61825 C0.97475,11.86225 0.97475,12.13825 1.07575,12.38225 C1.12675,12.50525 1.19975,12.61525 1.29275,12.70825 L8.29175,19.70725 C8.48675,19.90225 8.74275,20.00025 8.99875,20.00025 C9.25475,20.00025 9.51075,19.90225 9.70575,19.70725 C10.09675,19.31625 10.09675,18.68425 9.70575,18.29325 L4.41275,13.00025 L21.99875,13.00025 C22.55175,13.00025 22.99875,12.55225 22.99875,12.00025"
                      fill="#FFFFFF"></path>
            </g>
        </g>
    </g>
</svg>
