<?xml version="1.0" encoding="UTF-8" standalone="no"?>
<svg width="150px" height="44px" viewBox="0 0 150 44" version="1.1" xmlns="http://www.w3.org/2000/svg" xmlns:xlink="http://www.w3.org/1999/xlink" xmlns:sketch="http://www.bohemiancoding.com/sketch/ns">
    <!-- Generator: bin/sketchtool 1.4 (305) - http://www.bohemiancoding.com/sketch -->
    <title>Download_on_the_App_Store_Badge_US-UK_135x40</title>
    <desc>Created with bin/sketchtool.</desc>
    <defs>
        <path id="path-1" d="M0.0666666667,0.044 L150,0.044 L150,44 L0.0666666667,44"></path>
    </defs>
    <g id="Page" stroke="none" stroke-width="1" fill="none" fill-rule="evenodd" sketch:type="MSPage">
        <g id="Desktop-Post-Details-Full" sketch:type="MSArtboardGroup" transform="translate(-957.000000, -221.000000)">
            <g id="Download-App" sketch:type="MSLayerGroup" transform="translate(956.000000, 140.000000)">
                <g id="Download_on_the_App_Store_Badge_US-UK_135x40" transform="translate(1.000000, 81.000000)">
                    <g id="Group-3">
                        <mask id="mask-2" sketch:name="Clip 2" fill="white">
                            <use xlink:href="#path-1"></use>
                        </mask>
                        <g id="Clip-2"></g>
                        <path d="M144.663333,44 L5.25444444,44 C2.35777778,44 0,41.6592 0,38.7937 L0,5.1986 C0,2.332 2.35777778,0 5.25444444,0 L144.663333,0 C147.558889,0 150,2.332 150,5.1986 L150,38.7937 C150,41.6592 147.558889,44 144.663333,44" id="Fill-1" fill="#A9AAA9" sketch:type="MSShapeGroup" mask="url(#mask-2)"></path>
                    </g>
                    <path d="M148.924444,38.7948 C148.924444,41.1224 147.02,43.0078 144.664444,43.0078 L5.25444444,43.0078 C2.9,43.0078 0.988888889,41.1224 0.988888889,38.7948 L0.988888889,5.1975 C0.988888889,2.871 2.9,0.979 5.25444444,0.979 L144.663333,0.979 C147.02,0.979 148.923333,2.871 148.923333,5.1975 L148.923333,38.7948 L148.924444,38.7948" id="Fill-4" fill="#0A0B09" sketch:type="MSShapeGroup"></path>
                    <path d="M33.4755556,21.7624 C33.4433333,18.2171 36.4077778,16.4923 36.5433333,16.4109 C34.8644444,13.9876 32.2622222,13.6565 31.3477778,13.6312 C29.1622222,13.4035 27.0422222,14.9259 25.9288889,14.9259 C24.7933333,14.9259 23.0777778,13.6532 21.2311111,13.6906 C18.8544444,13.7269 16.6288889,15.0898 15.4088889,17.2062 C12.8911111,21.5215 14.7688889,27.863 17.1811111,31.3511 C18.3877778,33.0594 19.7977778,34.9668 21.6422222,34.8997 C23.4477778,34.8249 24.1222222,33.759 26.3022222,33.759 C28.4611111,33.759 29.0944444,34.8997 30.9766667,34.8568 C32.9144444,34.8249 34.1344444,33.1408 35.2988889,31.4171 C36.6933333,29.458 37.2533333,27.5297 37.2755556,27.4307 C37.23,27.4164 33.5122222,26.0117 33.4755556,21.7624" id="Fill-5" fill="#FFFFFF" sketch:type="MSShapeGroup"></path>
                    <path d="M29.92,11.3366 C30.89,10.1343 31.5544444,8.4986 31.37,6.8387 C29.9644444,6.9003 28.2066667,7.8001 27.1955556,8.9771 C26.3,10.0133 25.5,11.7117 25.7066667,13.3089 C27.2855556,13.4255 28.9066667,12.5202 29.92,11.3366" id="Fill-6" fill="#FFFFFF" sketch:type="MSShapeGroup"></path>
                    <path d="M55.2833333,28.5505 L54.0333333,24.7291 C53.9011111,24.3375 53.6533333,23.4179 53.2866667,21.9703 L53.2433333,21.9703 C53.0977778,22.594 52.8633333,23.5125 52.5411111,24.7291 L51.3133333,28.5505 L55.2833333,28.5505 L55.2833333,28.5505 Z M59.6055556,34.6544 L57.0822222,34.6544 L55.7,30.3545 L50.8966667,30.3545 L49.58,34.6544 L47.1233333,34.6544 L51.8833333,20.0156 L54.8233333,20.0156 L59.6055556,34.6544 L59.6055556,34.6544 Z" id="Fill-7" fill="#FFFFFF" sketch:type="MSShapeGroup"></path>
                    <path d="M69.4333333,29.3326 C69.4333333,28.3052 69.2,27.4582 68.7311111,26.7916 C68.2188889,26.0975 67.5322222,25.7488 66.6688889,25.7488 C66.0844444,25.7488 65.5533333,25.9424 65.0788889,26.3252 C64.6033333,26.7091 64.2922222,27.2118 64.1466667,27.8355 C64.0733333,28.1248 64.0366667,28.3635 64.0366667,28.5505 L64.0366667,30.3105 C64.0366667,31.0783 64.2744444,31.7262 64.75,32.2542 C65.2255556,32.7833 65.8433333,33.0473 66.6033333,33.0473 C67.4955556,33.0473 68.1911111,32.7063 68.6877778,32.0265 C69.1844444,31.3456 69.4333333,30.448 69.4333333,29.3326 L69.4333333,29.3326 Z M71.8466667,29.2468 C71.8466667,31.042 71.3566667,32.461 70.3766667,33.5027 C69.4988889,34.43 68.41,34.8931 67.1077778,34.8931 C65.7044444,34.8931 64.6955556,34.3937 64.0811111,33.3938 L64.0366667,33.3938 L64.0366667,38.9543 L61.6677778,38.9543 L61.6677778,27.5737 C61.6677778,26.4451 61.6377778,25.2868 61.58,24.0988 L63.6633333,24.0988 L63.7955556,25.7719 L63.84,25.7719 C64.6288889,24.5113 65.8288889,23.8821 67.4366667,23.8821 C68.6955556,23.8821 69.7444444,24.3738 70.5855556,25.3583 C71.4266667,26.3439 71.8466667,27.6397 71.8466667,29.2468 L71.8466667,29.2468 Z" id="Fill-8" fill="#FFFFFF" sketch:type="MSShapeGroup"></path>
                    <path d="M81.6966667,29.3326 C81.6966667,28.3052 81.4622222,27.4582 80.9944444,26.7916 C80.4822222,26.0975 79.7955556,25.7488 78.9322222,25.7488 C78.3466667,25.7488 77.8166667,25.9424 77.3411111,26.3252 C76.8666667,26.7091 76.5566667,27.2118 76.41,27.8355 C76.3377778,28.1248 76.3,28.3635 76.3,28.5505 L76.3,30.3105 C76.3,31.0783 76.5377778,31.7262 77.0111111,32.2542 C77.4866667,32.7833 78.1055556,33.0473 78.8666667,33.0473 C79.7588889,33.0473 80.4533333,32.7063 80.95,32.0265 C81.4477778,31.3456 81.6966667,30.448 81.6966667,29.3326 L81.6966667,29.3326 Z M84.11,29.2468 C84.11,31.042 83.62,32.461 82.6388889,33.5027 C81.7622222,34.43 80.6722222,34.8931 79.3711111,34.8931 C77.9666667,34.8931 76.9577778,34.3937 76.3444444,33.3938 L76.3,33.3938 L76.3,38.9543 L73.9311111,38.9543 L73.9311111,27.5737 C73.9311111,26.4451 73.9011111,25.2868 73.8433333,24.0988 L75.9277778,24.0988 L76.0588889,25.7719 L76.1033333,25.7719 C76.8922222,24.5113 78.09,23.8821 79.7,23.8821 C80.9566667,23.8821 82.0077778,24.3738 82.8488889,25.3583 C83.6888889,26.3439 84.11,27.6397 84.11,29.2468 L84.11,29.2468 Z" id="Fill-9" fill="#FFFFFF" sketch:type="MSShapeGroup"></path>
                    <path d="M97.8211111,30.5503 C97.8211111,31.7944 97.3844444,32.8075 96.5077778,33.5896 C95.5444444,34.4454 94.2033333,34.8711 92.48,34.8711 C90.89,34.8711 89.6133333,34.5675 88.6477778,33.9592 L89.1966667,32.0045 C90.2366667,32.6271 91.3777778,32.9384 92.6211111,32.9384 C93.5133333,32.9384 94.2077778,32.7393 94.7066667,32.34 C95.2044444,31.9418 95.4511111,31.4083 95.4511111,30.7406 C95.4511111,30.1466 95.2477778,29.6461 94.8366667,29.2402 C94.4288889,28.8343 93.7477778,28.457 92.7977778,28.1083 C90.2088889,27.1524 88.9144444,25.7521 88.9144444,23.9096 C88.9144444,22.7073 89.3688889,21.7206 90.2755556,20.9517 C91.18,20.1828 92.3866667,19.7989 93.8955556,19.7989 C95.2411111,19.7989 96.3588889,20.0299 97.25,20.493 L96.6577778,22.4048 C95.8244444,21.956 94.8822222,21.7316 93.8277778,21.7316 C92.9944444,21.7316 92.3433333,21.934 91.8766667,22.3399 C91.4822222,22.7018 91.2844444,23.1429 91.2844444,23.6654 C91.2844444,24.244 91.51,24.7225 91.9644444,25.0976 C92.3588889,25.4463 93.0755556,25.8225 94.1144444,26.2284 C95.3866667,26.7355 96.3211111,27.3284 96.9222222,28.0082 C97.5222222,28.6891 97.8211111,29.5372 97.8211111,30.5503" id="Fill-10" fill="#FFFFFF" sketch:type="MSShapeGroup"></path>
                    <path d="M105.653333,25.8588 L103.042222,25.8588 L103.042222,30.9837 C103.042222,32.2872 103.502222,32.9384 104.424444,32.9384 C104.847778,32.9384 105.2,32.9021 105.477778,32.8306 L105.542222,34.6115 C105.075556,34.7842 104.462222,34.8711 103.7,34.8711 C102.764444,34.8711 102.033333,34.5884 101.505556,34.0252 C100.981111,33.4598 100.715556,32.5116 100.715556,31.1795 L100.715556,25.8588 L99.16,25.8588 L99.16,24.0988 L100.715556,24.0988 L100.715556,22.1661 L103.042222,21.4709 L103.042222,24.0988 L105.653333,24.0988 L105.653333,25.8588" id="Fill-11" fill="#FFFFFF" sketch:type="MSShapeGroup"></path>
                    <path d="M114.976667,29.3656 C114.976667,28.3932 114.765556,27.5583 114.34,26.8609 C113.843333,26.0183 113.133333,25.5981 112.213333,25.5981 C111.261111,25.5981 110.537778,26.0183 110.041111,26.8609 C109.615556,27.5583 109.405556,28.4064 109.405556,29.4096 C109.405556,30.3831 109.615556,31.218 110.041111,31.9143 C110.553333,32.7558 111.27,33.1771 112.192222,33.1771 C113.096667,33.1771 113.806667,32.7492 114.318889,31.8923 C114.756667,31.1817 114.976667,30.338 114.976667,29.3656 L114.976667,29.3656 Z M117.434444,29.2897 C117.434444,30.9122 116.966667,32.2443 116.031111,33.286 C115.05,34.3574 113.747778,34.8931 112.124444,34.8931 C110.56,34.8931 109.314444,34.3794 108.385556,33.3509 C107.456667,32.3235 106.992222,31.0266 106.992222,29.4635 C106.992222,27.8278 107.47,26.488 108.428889,25.4463 C109.385556,24.4035 110.676667,23.8821 112.3,23.8821 C113.865556,23.8821 115.123333,24.3958 116.074444,25.4243 C116.981111,26.4231 117.434444,27.7112 117.434444,29.2897 L117.434444,29.2897 Z" id="Fill-12" fill="#FFFFFF" sketch:type="MSShapeGroup"></path>
                    <path d="M125.134444,26.1613 C124.9,26.1184 124.651111,26.0975 124.387778,26.0975 C123.554444,26.0975 122.91,26.4088 122.456667,27.0314 C122.061111,27.5814 121.864444,28.2766 121.864444,29.1159 L121.864444,34.6544 L119.496667,34.6544 L119.517778,27.423 C119.517778,26.2053 119.487778,25.0976 119.428889,24.0988 L121.493333,24.0988 L121.58,26.1184 L121.644444,26.1184 C121.894444,25.4243 122.29,24.8655 122.83,24.4475 C123.356667,24.0702 123.927778,23.8821 124.542222,23.8821 C124.761111,23.8821 124.958889,23.8975 125.134444,23.925 L125.134444,26.1613" id="Fill-13" fill="#FFFFFF" sketch:type="MSShapeGroup"></path>
                    <path d="M133.47,28.2689 C133.485556,27.5737 133.331111,26.9742 133.01,26.466 C132.6,25.8148 131.97,25.4892 131.122222,25.4892 C130.347778,25.4892 129.717778,25.8071 129.236667,26.4451 C128.841111,26.9522 128.606667,27.5605 128.535556,28.2689 L133.47,28.2689 L133.47,28.2689 Z M135.728889,28.8772 C135.728889,29.2974 135.701111,29.6516 135.642222,29.9409 L128.535556,29.9409 C128.563333,30.9837 128.906667,31.7812 129.565556,32.3312 C130.164444,32.8229 130.94,33.0693 131.89,33.0693 C132.942222,33.0693 133.902222,32.9021 134.765556,32.5688 L135.136667,34.1979 C134.127778,34.6324 132.936667,34.8502 131.562222,34.8502 C129.908889,34.8502 128.611111,34.3684 127.666667,33.4048 C126.725556,32.4423 126.252222,31.1498 126.252222,29.5284 C126.252222,27.9356 126.69,26.6101 127.57,25.5541 C128.49,24.4244 129.733333,23.8601 131.297778,23.8601 C132.834444,23.8601 133.997778,24.4244 134.787778,25.5541 C135.414444,26.4517 135.728889,27.5605 135.728889,28.8772 L135.728889,28.8772 Z" id="Fill-14" fill="#FFFFFF" sketch:type="MSShapeGroup"></path>
                    <path d="M53.2722222,11.0418 C53.2722222,10.2025 53.0477778,9.559 52.5977778,9.1102 C52.1488889,8.6625 51.4933333,8.4381 50.6311111,8.4381 C50.2644444,8.4381 49.9511111,8.4634 49.6933333,8.5129 L49.6933333,13.8908 C49.8366667,13.9128 50.0988889,13.9227 50.48,13.9227 C51.3711111,13.9227 52.0588889,13.6774 52.5444444,13.1868 C53.0288889,12.6962 53.2722222,11.9812 53.2722222,11.0418 L53.2722222,11.0418 Z M54.5,11.0099 C54.5,12.3046 54.1088889,13.2792 53.3255556,13.9337 C52.5988889,14.5376 51.5688889,14.8401 50.2322222,14.8401 C49.5711111,14.8401 49.0033333,14.8115 48.5288889,14.7554 L48.5288889,7.6802 C49.1477778,7.5812 49.8144444,7.5317 50.5344444,7.5317 C51.8055556,7.5317 52.7655556,7.8056 53.4122222,8.3534 C54.1366667,8.9716 54.5,9.8571 54.5,11.0099 L54.5,11.0099 Z" id="Fill-15" fill="#FFFFFF" sketch:type="MSShapeGroup"></path>
                    <path d="M59.8022222,12.1781 C59.8022222,11.7007 59.6977778,11.2904 59.4888889,10.9483 C59.2455556,10.5336 58.8966667,10.3268 58.4444444,10.3268 C57.9766667,10.3268 57.6211111,10.5336 57.3766667,10.9483 C57.1688889,11.2904 57.0644444,11.7073 57.0644444,12.199 C57.0644444,12.6775 57.1688889,13.0878 57.3766667,13.431 C57.6288889,13.8435 57.98,14.0503 58.4333333,14.0503 C58.8788889,14.0503 59.2266667,13.8402 59.4788889,13.42 C59.6944444,13.0702 59.8022222,12.6566 59.8022222,12.1781 L59.8022222,12.1781 Z M61.01,12.1407 C61.01,12.9382 60.78,13.5916 60.32,14.1042 C59.8377778,14.6311 59.1988889,14.894 58.4011111,14.894 C57.6322222,14.894 57.02,14.6421 56.5633333,14.1361 C56.1077778,13.6312 55.8788889,12.9943 55.8788889,12.2265 C55.8788889,11.4224 56.1133333,10.7646 56.5844444,10.252 C57.0555556,9.7394 57.6888889,9.4842 58.4866667,9.4842 C59.2566667,9.4842 59.8733333,9.7372 60.3411111,10.2421 C60.7855556,10.7327 61.01,11.3663 61.01,12.1407 L61.01,12.1407 Z" id="Fill-16" fill="#FFFFFF" sketch:type="MSShapeGroup"></path>
                    <path d="M69.7388889,9.5909 L68.1,14.7763 L67.0344444,14.7763 L66.3544444,12.5246 C66.1822222,11.9625 66.0422222,11.4048 65.9333333,10.8493 L65.9133333,10.8493 C65.8122222,11.4191 65.6722222,11.9779 65.4922222,12.5246 L64.77,14.7763 L63.6922222,14.7763 L62.1511111,9.5909 L63.3477778,9.5909 L63.94,12.0549 C64.0833333,12.639 64.2022222,13.1934 64.2966667,13.7203 L64.3166667,13.7203 C64.4033333,13.2869 64.5466667,12.7347 64.7488889,12.0659 L65.4922222,9.5909 L66.44,9.5909 L67.1522222,12.0131 C67.3244444,12.6038 67.4644444,13.1725 67.5722222,13.7203 L67.6044444,13.7203 C67.6833333,13.1868 67.8022222,12.6181 67.9611111,12.0131 L68.5966667,9.5909 L69.7388889,9.5909" id="Fill-17" fill="#FFFFFF" sketch:type="MSShapeGroup"></path>
                    <path d="M75.7755556,14.7763 L74.6111111,14.7763 L74.6111111,11.8063 C74.6111111,10.8911 74.26,10.4335 73.5555556,10.4335 C73.21,10.4335 72.93,10.56 72.7144444,10.8119 C72.4988889,11.0638 72.3911111,11.3597 72.3911111,11.7007 L72.3911111,14.7763 L71.2266667,14.7763 L71.2266667,11.0737 C71.2266667,10.6183 71.2122222,10.1244 71.1844444,9.5909 L72.2077778,9.5909 L72.2622222,10.4016 L72.2944444,10.4016 C72.43,10.1497 72.6322222,9.9407 72.8977778,9.7757 C73.2133333,9.581 73.5666667,9.4842 73.9533333,9.4842 C74.4422222,9.4842 74.8488889,9.6404 75.1722222,9.9539 C75.5744444,10.3378 75.7755556,10.9098 75.7755556,11.671 L75.7755556,14.7763" id="Fill-18" fill="#FFFFFF" sketch:type="MSShapeGroup"></path>
                    <path d="M77.8233333,7.2116 L78.9866667,7.2116 L78.9866667,14.7763 L77.8233333,14.7763 L77.8233333,7.2116 Z" id="Fill-19" fill="#FFFFFF" sketch:type="MSShapeGroup"></path>
                    <path d="M84.6333333,12.1781 C84.6333333,11.7007 84.5288889,11.2904 84.3211111,10.9483 C84.0777778,10.5336 83.7277778,10.3268 83.2766667,10.3268 C82.8077778,10.3268 82.4522222,10.5336 82.2088889,10.9483 C82.0011111,11.2904 81.8966667,11.7073 81.8966667,12.199 C81.8966667,12.6775 82.0011111,13.0878 82.2088889,13.431 C82.4611111,13.8435 82.8122222,14.0503 83.2655556,14.0503 C83.7111111,14.0503 84.0577778,13.8402 84.31,13.42 C84.5266667,13.0702 84.6333333,12.6566 84.6333333,12.1781 L84.6333333,12.1781 Z M85.8422222,12.1407 C85.8422222,12.9382 85.6122222,13.5916 85.1522222,14.1042 C84.67,14.6311 84.03,14.894 83.2333333,14.894 C82.4633333,14.894 81.8511111,14.6421 81.3955556,14.1361 C80.94,13.6312 80.7122222,12.9943 80.7122222,12.2265 C80.7122222,11.4224 80.9466667,10.7646 81.4166667,10.252 C81.8877778,9.7394 82.5222222,9.4842 83.3177778,9.4842 C84.0888889,9.4842 84.7044444,9.7372 85.1733333,10.2421 C85.6188889,10.7327 85.8422222,11.3663 85.8422222,12.1407 L85.8422222,12.1407 Z" id="Fill-20" fill="#FFFFFF" sketch:type="MSShapeGroup"></path>
                    <path d="M90.2688889,12.9943 L90.2688889,12.1946 C88.9844444,12.1726 88.3422222,12.5213 88.3422222,13.2396 C88.3422222,13.5102 88.4155556,13.7126 88.5655556,13.8479 C88.7155556,13.9832 88.9066667,14.0503 89.1344444,14.0503 C89.39,14.0503 89.6288889,13.9711 89.8455556,13.8105 C90.0655556,13.651 90.2,13.4464 90.25,13.1978 C90.2622222,13.1406 90.2688889,13.0724 90.2688889,12.9943 L90.2688889,12.9943 Z M91.4777778,14.7763 L90.4322222,14.7763 L90.3444444,14.179 L90.3122222,14.179 C89.9544444,14.6553 89.4444444,14.894 88.7822222,14.894 C88.2877778,14.894 87.8888889,14.7378 87.5866667,14.4243 C87.3133333,14.1394 87.1766667,13.7874 87.1766667,13.3683 C87.1766667,12.7347 87.4433333,12.2518 87.98,11.9163 C88.5155556,11.583 89.2688889,11.4191 90.2388889,11.4257 L90.2388889,11.33 C90.2388889,10.6469 89.8766667,10.3059 89.1511111,10.3059 C88.6344444,10.3059 88.1788889,10.4335 87.7866667,10.6898 L87.55,9.9319 C88.0355556,9.6338 88.6366667,9.4842 89.3466667,9.4842 C90.7155556,9.4842 91.4022222,10.1992 91.4022222,11.6292 L91.4022222,13.5388 C91.4022222,14.058 91.4277778,14.4705 91.4777778,14.7763 L91.4777778,14.7763 Z" id="Fill-21" fill="#FFFFFF" sketch:type="MSShapeGroup"></path>
                    <path d="M96.8877778,12.5895 L96.8877778,11.7249 C96.8877778,11.5753 96.8766667,11.4543 96.8555556,11.3619 C96.79,11.0847 96.6488889,10.8515 96.4344444,10.6634 C96.2177778,10.4742 95.9566667,10.3807 95.6555556,10.3807 C95.2211111,10.3807 94.8811111,10.5512 94.6311111,10.8922 C94.3833333,11.2343 94.2577778,11.671 94.2577778,12.2045 C94.2577778,12.7171 94.3766667,13.1329 94.6155556,13.453 C94.8677778,13.794 95.2077778,13.9656 95.6333333,13.9656 C96.0155556,13.9656 96.3211111,13.8226 96.5533333,13.5388 C96.7777778,13.2759 96.8877778,12.9591 96.8877778,12.5895 L96.8877778,12.5895 Z M98.0944444,14.7763 L97.0611111,14.7763 L97.0077778,13.9436 L96.9744444,13.9436 C96.6444444,14.5772 96.0833333,14.894 95.2933333,14.894 C94.6611111,14.894 94.1366667,14.6487 93.72,14.1581 C93.3033333,13.6664 93.0944444,13.0306 93.0944444,12.2474 C93.0944444,11.4081 93.32,10.7283 93.7733333,10.2102 C94.2122222,9.7262 94.75,9.4842 95.3911111,9.4842 C96.0933333,9.4842 96.5866667,9.7185 96.8666667,10.1882 L96.8877778,10.1882 L96.8877778,7.2116 L98.0533333,7.2116 L98.0533333,13.3793 C98.0533333,13.8842 98.0666667,14.3495 98.0944444,14.7763 L98.0944444,14.7763 Z" id="Fill-22" fill="#FFFFFF" sketch:type="MSShapeGroup"></path>
                    <path d="M106.846667,12.1781 C106.846667,11.7007 106.742222,11.2904 106.534444,10.9483 C106.288889,10.5336 105.942222,10.3268 105.487778,10.3268 C105.022222,10.3268 104.665556,10.5336 104.42,10.9483 C104.212222,11.2904 104.107778,11.7073 104.107778,12.199 C104.107778,12.6775 104.212222,13.0878 104.42,13.431 C104.672222,13.8435 105.023333,14.0503 105.477778,14.0503 C105.922222,14.0503 106.272222,13.8402 106.523333,13.42 C106.737778,13.0702 106.846667,12.6566 106.846667,12.1781 L106.846667,12.1781 Z M108.053333,12.1407 C108.053333,12.9382 107.823333,13.5916 107.363333,14.1042 C106.881111,14.6311 106.243333,14.894 105.444444,14.894 C104.676667,14.894 104.064444,14.6421 103.606667,14.1361 C103.151111,13.6312 102.923333,12.9943 102.923333,12.2265 C102.923333,11.4224 103.157778,10.7646 103.628889,10.252 C104.098889,9.7394 104.733333,9.4842 105.532222,9.4842 C106.3,9.4842 106.918889,9.7372 107.384444,10.2421 C107.83,10.7327 108.053333,11.3663 108.053333,12.1407 L108.053333,12.1407 Z" id="Fill-23" fill="#FFFFFF" sketch:type="MSShapeGroup"></path>
                    <path d="M114.314444,14.7763 L113.151111,14.7763 L113.151111,11.8063 C113.151111,10.8911 112.8,10.4335 112.094444,10.4335 C111.748889,10.4335 111.468889,10.56 111.254444,10.8119 C111.04,11.0638 110.931111,11.3597 110.931111,11.7007 L110.931111,14.7763 L109.765556,14.7763 L109.765556,11.0737 C109.765556,10.6183 109.752222,10.1244 109.724444,9.5909 L110.746667,9.5909 L110.801111,10.4016 L110.833333,10.4016 C110.97,10.1497 111.172222,9.9407 111.436667,9.7757 C111.753333,9.581 112.105556,9.4842 112.493333,9.4842 C112.982222,9.4842 113.387778,9.6404 113.711111,9.9539 C114.114444,10.3378 114.314444,10.9098 114.314444,11.671 L114.314444,14.7763" id="Fill-24" fill="#FFFFFF" sketch:type="MSShapeGroup"></path>
                    <path d="M122.151111,10.4544 L120.867778,10.4544 L120.867778,12.9734 C120.867778,13.6136 121.095556,13.9337 121.547778,13.9337 C121.755556,13.9337 121.928889,13.9161 122.065556,13.8798 L122.096667,14.7554 C121.866667,14.8401 121.564444,14.883 121.191111,14.883 C120.731111,14.883 120.373333,14.7444 120.115556,14.4672 C119.854444,14.1889 119.726667,13.7236 119.726667,13.0691 L119.726667,10.4544 L118.96,10.4544 L118.96,9.5909 L119.726667,9.5909 L119.726667,8.6405 L120.867778,8.2995 L120.867778,9.5909 L122.151111,9.5909 L122.151111,10.4544" id="Fill-25" fill="#FFFFFF" sketch:type="MSShapeGroup"></path>
                    <path d="M128.315556,14.7763 L127.151111,14.7763 L127.151111,11.8283 C127.151111,10.8988 126.798889,10.4335 126.095556,10.4335 C125.555556,10.4335 125.186667,10.703 124.984444,11.2431 C124.95,11.3564 124.931111,11.495 124.931111,11.6578 L124.931111,14.7763 L123.767778,14.7763 L123.767778,7.2116 L124.931111,7.2116 L124.931111,10.3367 L124.952222,10.3367 C125.318889,9.768 125.844444,9.4842 126.525556,9.4842 C127.007778,9.4842 127.406667,9.6404 127.723333,9.9539 C128.118889,10.3444 128.315556,10.9252 128.315556,11.693 L128.315556,14.7763" id="Fill-26" fill="#FFFFFF" sketch:type="MSShapeGroup"></path>
                    <path d="M133.563333,11.6391 C133.572222,11.2981 133.495556,11.0022 133.337778,10.7536 C133.135556,10.4335 132.827778,10.274 132.411111,10.274 C132.031111,10.274 131.721111,10.4302 131.484444,10.7437 C131.291111,10.9923 131.176667,11.2915 131.138889,11.6391 L133.563333,11.6391 L133.563333,11.6391 Z M134.674444,11.9383 C134.674444,12.1451 134.658889,12.3189 134.631111,12.4608 L131.138889,12.4608 C131.154444,12.9734 131.321111,13.3639 131.644444,13.6345 C131.94,13.8765 132.322222,13.9975 132.788889,13.9975 C133.305556,13.9975 133.775556,13.9161 134.201111,13.7522 L134.383333,14.5519 C133.886667,14.7653 133.303333,14.8731 132.625556,14.8731 C131.814444,14.8731 131.176667,14.6366 130.714444,14.1625 C130.25,13.6895 130.02,13.0548 130.02,12.2584 C130.02,11.4763 130.234444,10.8251 130.666667,10.3059 C131.117778,9.7504 131.727778,9.4732 132.497778,9.4732 C133.251111,9.4732 133.823333,9.7504 134.21,10.3059 C134.52,10.747 134.674444,11.2915 134.674444,11.9383 L134.674444,11.9383 Z" id="Fill-27" fill="#FFFFFF" sketch:type="MSShapeGroup"></path>
                </g>
            </g>
        </g>
    </g>
</svg>