<?xml version="1.0" encoding="utf-8"?>
<svg version="1.0" id="Layer_1" xmlns="http://www.w3.org/2000/svg" xmlns:xlink="http://www.w3.org/1999/xlink" x="0px" y="0px"
	 viewBox="0 0 36 36" style="enable-background:new 0 0 36 36;" xml:space="preserve">
<g fill="#DD4B39">
	<path d="M17.2,10.5c-0.4-0.3-0.8-0.4-1.2-0.4c-0.6,0-1.1,0.3-1.5,0.7c-0.3,0.5-0.5,1.1-0.5,1.7
		c0,0.8,0.2,1.7,0.7,2.6c0.2,0.4,0.5,0.8,0.9,1.1c0.4,0.3,0.8,0.4,1.3,0.4c0.6,0,1.1-0.2,1.5-0.6c0.2-0.3,0.3-0.6,0.4-0.9
		c0-0.3,0-0.6,0-0.8c0-0.9-0.2-1.8-0.7-2.7C17.9,11.2,17.6,10.8,17.2,10.5z"/>
	<path d="M17.1,20.3c-0.1,0-0.4,0-0.9,0c-0.5,0.1-1,0.2-1.4,0.3c-0.1,0-0.3,0.1-0.5,0.2
		c-0.2,0.1-0.4,0.2-0.6,0.4c-0.2,0.2-0.4,0.4-0.5,0.7c-0.2,0.3-0.2,0.6-0.2,1c0,0.8,0.4,1.5,1.1,2c0.7,0.5,1.6,0.8,2.8,0.8
		c1.1,0,1.9-0.3,2.5-0.7c0.5-0.5,0.8-1,0.8-1.7c0-0.6-0.2-1.1-0.6-1.5c-0.4-0.4-1-0.9-1.9-1.5C17.4,20.3,17.3,20.3,17.1,20.3z"/>
	<path d="M18,1C8.6,1,1,8.6,1,18s7.6,17,17,17s17-7.6,17-17S27.4,1,18,1z M19.6,10.5c0.2,0.2,0.4,0.4,0.5,0.6
		c0.2,0.2,0.3,0.6,0.4,0.9c0.1,0.3,0.1,0.7,0.1,1.2c0,0.8-0.2,1.5-0.5,2c-0.2,0.2-0.3,0.5-0.5,0.7c-0.2,0.2-0.4,0.4-0.7,0.6
		c-0.1,0.1-0.3,0.3-0.4,0.5c-0.1,0.2-0.2,0.4-0.2,0.6c0,0.2,0.1,0.4,0.2,0.6c0.1,0.1,0.2,0.3,0.3,0.4l0.8,0.6
		c0.5,0.4,0.9,0.8,1.3,1.3c0.3,0.5,0.5,1.1,0.5,1.9c0,1.1-0.5,2.1-1.5,2.9c-1,0.9-2.5,1.3-4.4,1.4c-1.6,0-2.8-0.4-3.6-1
		c-0.8-0.6-1.2-1.4-1.2-2.2c0-0.4,0.1-0.9,0.4-1.4c0.2-0.5,0.7-1,1.4-1.4c0.7-0.4,1.5-0.7,2.3-0.8c0.8-0.1,1.5-0.2,2-0.2
		c-0.2-0.2-0.3-0.4-0.4-0.7c-0.1-0.2-0.2-0.5-0.2-0.9c0-0.2,0-0.4,0.1-0.5c0-0.1,0.1-0.3,0.1-0.4c-0.3,0-0.5,0-0.7,0
		c-1.2,0-2.1-0.4-2.8-1.1c-0.7-0.7-1-1.5-1-2.4c0-1.1,0.5-2.1,1.4-3c0.6-0.5,1.3-0.9,2-1.1c0.7-0.1,1.3-0.2,1.9-0.2l4.5,0l-1.4,0.9
		l-1.4,0C19.3,10.2,19.4,10.4,19.6,10.5z M29,17.9h-2.4v2.3h-1.4v-2.3h-2.3v-0.1h0v-1.3h2.3v-2.4h1.4v2.4h2.3v0H29V17.9z"/>
</g>
</svg>
