<svg xmlns="http://www.w3.org/2000/svg" version="1.1" x="0px" y="0px" viewBox="0 0 512 512" enable-background="new 0 0 512 512" xml:space="preserve">
  <path d="M256 90c91.74 0 166 74.244 166 166 0 91.741-74.245 166-166 166 -91.741 0-166-74.245-166-166C90 164.259 164.244 90 256 90M256 50C142.229 50 50 142.229 50 256s92.229 206 206 206 206-92.229 206-206S369.771 50 256 50L256 50zM258.025 379.511c-14.546 0-26.343-11.797-26.343-26.349 0-14.543 11.797-26.336 26.343-26.336 14.549 0 26.342 11.793 26.342 26.336C284.367 367.714 272.574 379.511 258.025 379.511zM278.735 301.646v4.739c0 0-39.494 0-43.423 0v-4.739c0-13.408 1.956-30.61 17.523-45.565 15.569-14.958 35.024-27.312 35.024-45.996 0-20.655-14.335-31.581-32.409-31.581 -30.116 0-32.085 31.234-32.827 38.112H180.39c1.125-32.57 14.891-78.127 75.315-78.127 52.363 0 75.905 35.07 75.905 67.957C331.61 258.793 278.735 267.886 278.735 301.646z"/>
</svg>
