<svg width="15" height="16" viewBox="0 0 15 16" xmlns="http://www.w3.org/2000/svg"><path d="M12.943 8.957c0 3.254-2.646 5.9-5.9 5.9-3.254 0-5.9-2.646-5.9-5.9 0-3.06 2.342-5.583 5.33-5.872V4.4c0 .204.108.392.284.494.088.05.187.077.286.077.098 0 .197-.025.285-.076l3.316-1.914c.177-.102.286-.29.286-.494 0-.204-.11-.393-.286-.495L7.328.078c-.177-.103-.394-.103-.57 0C6.58.18 6.47.367 6.47.57v1.37C2.855 2.23 0 5.266 0 8.957 0 12.84 3.16 16 7.043 16s7.042-3.16 7.042-7.043c0-.315-.255-.57-.57-.57-.316 0-.572.255-.572.57z" fill="#333" fill-rule="evenodd"/></svg>
