<?xml version="1.0" encoding="utf-8"?>
<svg version="1.0" id="Layer_1" xmlns="http://www.w3.org/2000/svg" xmlns:xlink="http://www.w3.org/1999/xlink" x="0px" y="0px"
	 viewBox="0 0 612 792" style="enable-background:new 0 0 612 792;" xml:space="preserve">
<g fill="#00C300">
	<path d="M355.3,328c-6.8,0-10.2,5.1-10.2,10.2v51l-42.5-57.8c-1.7-3.4-5.1-5.1-8.5-5.1c-1.7,0-1.7,0-3.4,0
		c-5.1,1.7-6.8,5.1-6.8,10.2v83.3c0,6.8,5.1,10.2,10.2,10.2c6.8,0,10.2-5.1,10.2-10.2v-51l42.5,57.8c1.7,3.4,5.1,5.1,8.5,5.1
		c1.7,0,1.7,0,3.4,0c5.1-1.7,6.8-5.1,6.8-10.2v-83.3C367.2,331.4,362.1,328,355.3,328z"/>
	<path d="M256.7,328c-6.8,0-10.2,5.1-10.2,10.2v83.3c0,6.8,5.1,10.2,10.2,10.2c6.8,0,10.2-5.1,10.2-10.2v-83.3
		C266.9,331.4,261.8,328,256.7,328z"/>
	<path d="M224.4,409.6h-30.6v-71.4c0-6.8-5.1-10.2-10.2-10.2c-6.8,0-10.2,5.1-10.2,10.2v83.3c0,6.8,5.1,10.2,10.2,10.2h40.8
		c6.8,0,10.2-5.1,10.2-10.2C236.3,414.7,231.2,409.6,224.4,409.6z"/>
	<path d="M306,107C146.2,107,17,236.2,17,396s129.2,289,289,289s289-129.2,289-289S465.8,107,306,107z M469.2,479.3
		C425,530.3,328.1,589.8,306,600c-22.1,8.5-18.7-5.1-18.7-11.9c0-3.4,3.4-17,3.4-17c0-5.1,1.7-13.6,0-18.7
		c-1.7-5.1-11.9-8.5-18.7-10.2C171.7,528.6,98.6,458.9,98.6,375.6c0-93.5,93.5-168.3,207.4-168.3s207.4,74.8,207.4,168.3
		C513.4,413,499.8,447,469.2,479.3L469.2,479.3z"/>
	<path d="M433.5,348.4c6.8,0,10.2-5.1,10.2-10.2c0-6.8-5.1-10.2-10.2-10.2h-40.8c-6.8,0-10.2,5.1-10.2,10.2V379l0,0v40.8
		c0,6.8,5.1,10.2,10.2,10.2h40.8c6.8,0,10.2-5.1,10.2-10.2c0-6.8-5.1-10.2-10.2-10.2h-30.6v-18.7h30.6c6.8,0,10.2-5.1,10.2-10.2
		c0-6.8-5.1-10.2-10.2-10.2h-30.6v-18.7h30.6V348.4z"/>
</g>
</svg>