<svg version="1.1" xmlns="http://www.w3.org/2000/svg" x="0" y="0" viewBox="0 0 40 40" xml:space="preserve">
  <path fill="none" stroke-width="1.8133" stroke-miterlimit="10" d="M20,3C10.6,3,3,10.6,3,20s7.6,17,17,17 s17-7.6,17-17S29.4,3,20,3z"/>
  <path d="M28.5,23.6l-6.7-4.5v-7.8c0-0.2-0.1-0.4-0.2-0.5c-0.1-0.1-0.3-0.2-0.5-0.2h-1.8c-0.2,0-0.4,0.1-0.5,0.2	c-0.1,0.1-0.2,0.3-0.2,0.5v9.3c0,0.2,0.1,0.4,0.2,0.5c0,0,0.1,0.1,0.2,0.1l7.8,5.2c0.1,0.1,0.2,0.1,0.4,0.1c0,0,0.1,0,0.1,0	c0.2,0,0.3-0.1,0.5-0.3l1-1.6C28.9,24.3,28.8,23.8,28.5,23.6z"/>
</svg>
