<?xml version="1.0" encoding="utf-8"?>
<!-- Generator: Adobe Illustrator 18.1.1, SVG Export Plug-In . SVG Version: 6.00 Build 0)  -->
<!DOCTYPE svg PUBLIC "-//W3C//DTD SVG 1.1//EN" "http://www.w3.org/Graphics/SVG/1.1/DTD/svg11.dtd">
<svg version="1.1" xmlns="http://www.w3.org/2000/svg" xmlns:xlink="http://www.w3.org/1999/xlink" x="0px" y="0px"
	 viewBox="0 0 40 40" enable-background="new 0 0 40 40" xml:space="preserve">
<g id="Layer_1" display="none">
	<g display="inline">
		<path d="M12.3,2L12.3,2L5.1,9.1V38H34V2L12.3,2L12.3,2z M32.8,36.1H7V13h9V4h16v32L32.8,36.1z"/>
		<rect x="10.2" y="16" width="15.8" height="2"/>
		<rect x="10.2" y="22" width="11.5" height="2"/>
		<rect x="10" y="28" width="19" height="2"/>
	</g>
</g>
<g id="Layer_2">
	<g>
		<g>
			<path fill="none" stroke="#000000" stroke-width="1.8133" stroke-miterlimit="10" d="M20,3C10.6,3,3,10.6,3,20s7.6,17,17,17
				s17-7.6,17-17S29.4,3,20,3z"/>
		</g>
		<polygon points="15,28.4 15,11.3 29,19.9 		"/>
	</g>
</g>
<g id="Layer_3" display="none">
	<g display="inline">
		<path fill="none" stroke="#000000" stroke-width="1.8133" stroke-miterlimit="10" d="M20,3C10.6,3,3,10.6,3,20s7.6,17,17,17
			s17-7.6,17-17S29.4,3,20,3z"/>
	</g>
	<path display="inline" d="M28.5,23.6l-6.7-4.5v-7.8c0-0.2-0.1-0.4-0.2-0.5c-0.1-0.1-0.3-0.2-0.5-0.2h-1.8c-0.2,0-0.4,0.1-0.5,0.2
		c-0.1,0.1-0.2,0.3-0.2,0.5v9.3c0,0.2,0.1,0.4,0.2,0.5c0,0,0.1,0.1,0.2,0.1l7.8,5.2c0.1,0.1,0.2,0.1,0.4,0.1c0,0,0.1,0,0.1,0
		c0.2,0,0.3-0.1,0.5-0.3l1-1.6C28.9,24.3,28.8,23.8,28.5,23.6z"/>
</g>
<g id="Layer_4" display="none">
	<circle display="inline" cx="6.7" cy="6.7" r="3.7"/>
	<circle display="inline" cx="19.7" cy="6.7" r="3.7"/>
	<circle display="inline" cx="32.8" cy="6.3" r="3.7"/>
	<circle display="inline" cx="6.7" cy="19.6" r="3.7"/>
	<circle display="inline" cx="19.7" cy="19.6" r="3.7"/>
	<circle display="inline" cx="32.8" cy="19.6" r="3.7"/>
	<circle display="inline" cx="6.7" cy="32.7" r="3.7"/>
	<circle display="inline" cx="19.7" cy="32.7" r="3.7"/>
	<circle display="inline" cx="32.8" cy="32.7" r="3.7"/>
</g>
</svg>
