<svg xmlns="http://www.w3.org/2000/svg" xmlns:xlink="http://www.w3.org/1999/xlink" version="1.1" x="0" y="0" viewBox="0 0 40 40" enable-background="new 0 0 40 40" xml:space="preserve" preserveAspectRatio="xMidYMin">
  <g fill="#1A5EB8">
    <path d="M20 1C9.5 1 1 9.5 1 20s8.5 19 19 19 19-8.5 19-19S30.5 1 20 1zM16.2 26.1l-3.5 1.4c-0.2 0.1-0.2 0-0.2-0.2l1.4-3.5c0.1-0.2 0.2-0.2 0.3-0.1l2.1 2.1C16.4 25.9 16.4 26.1 16.2 26.1zM17.3 25.2l-2.5-2.5 8-8 2.5 2.5L17.3 25.2zM27.4 15.2l-0.3 0.3 -0.6 0.6 -0.3 0.3 -0.3-0.3L24 14.2l-0.3-0.3 0.3-0.3 0.6-0.6 0.3-0.3c0.2-0.2 0.5-0.2 0.6 0l1.9 1.9C27.5 14.7 27.5 15 27.4 15.2z"/>
  </g>
</svg>
