<svg xmlns="http://www.w3.org/2000/svg" width="13.5" height="14" viewBox="0 0 13.5 14"><path fill="#D1D3D4" d="M13.07 11.452l-2.413-2.388c.655-.93 1.04-2.064 1.04-3.283C11.698 2.595 9.076 0 5.846 0 2.623 0 0 2.594 0 5.78c0 3.186 2.624 5.78 5.846 5.78.894 0 1.73-.196 2.49-.55l2.59 2.562c.28.276.652.428 1.05.428.403 0 .79-.16 1.076-.445.592-.583.597-1.528.017-2.103zM2.34 5.78c0-1.913 1.568-3.465 3.505-3.465 1.938 0 3.513 1.552 3.513 3.465 0 1.913-1.576 3.47-3.513 3.47-1.937 0-3.506-1.557-3.506-3.47z"/></svg>