<?xml version="1.0" encoding="UTF-8" standalone="no"?>
<svg width="19px" height="20px" viewBox="0 0 19 20" version="1.1" xmlns="http://www.w3.org/2000/svg">
	<g transform="translate(0.000000, -1.000000)">
		<path d="M15.2777778,8 C14.462963,8 13.75,8.3 13.2407407,8.8 L6.00925926,4.7 C6.11111111,4.5 6.11111111,4.2 6.11111111,4 C6.11111111,2.3 4.78703704,1 3.05555556,1 C1.32407407,1 0,2.3 0,4 C0,5.7 1.32407407,7 3.05555556,7 C3.87037037,7 4.58333333,6.7 5.09259259,6.2 L12.3240741,10.3 C12.2222222,10.5 12.2222222,10.8 12.2222222,11 C12.2222222,11.2 12.2222222,11.5 12.3240741,11.7 L5.09259259,15.9 C4.58333333,15.4 3.87037037,15.1 3.05555556,15.1 C1.42592593,15.1 0.101851852,16.4 0.101851852,18 C0.101851852,19.6 1.42592593,20.9 3.05555556,20.9 C4.68518519,20.9 6.00925926,19.6 6.00925926,18 C6.00925926,17.8 6.00925926,17.6 5.90740741,17.3 L13.1388889,13.1 C13.6481481,13.6 14.3611111,13.9 15.1759259,13.9 C16.9074074,13.9 18.2314815,12.6 18.2314815,10.9 C18.2314815,9.2 17.0092593,8 15.2777778,8 L15.2777778,8 Z" transform="translate(9.166667, 11.000000) rotate(-180.000000) translate(-9.166667, -11.000000) "></path>
	</g>
</svg>
