<svg xmlns="http://www.w3.org/2000/svg" viewBox="0 0 32 32" preserveAspectRatio="xMinYMin meet"><path d="M26.838 14.81c0-4.857-4.898-8.81-10.92-8.81C9.9 6 5 9.953 5 14.81c0 4.356 3.884 8.003 9.132 8.693.355.076.84.234.962.536.11.273.072.703.035.98l-.157.93c-.047.274-.22 1.073.946.585 1.164-.488 6.287-3.682 8.578-6.304 1.582-1.724 2.34-3.475 2.34-5.42zM11.645 17.7h-2.17c-.315 0-.572-.254-.572-.57v-4.313c0-.314.257-.57.572-.57.316 0 .573.256.573.57v3.745h1.597c.316 0 .572.256.572.57 0 .314-.256.57-.572.57zm2.244-.57c0 .316-.258.57-.573.57-.316 0-.573-.254-.573-.57v-4.313c0-.314.257-.57.573-.57.315 0 .572.256.572.57v4.314zm5.22 0c0 .247-.155.464-.39.54-.06.02-.12.03-.182.03-.18 0-.35-.084-.457-.227l-2.223-3.01v2.668c0 .316-.256.57-.572.57-.316 0-.573-.254-.573-.57v-4.313c0-.245.158-.462.39-.54.06-.02.122-.03.183-.03.18 0 .35.086.458.228l2.223 3.01v-2.668c0-.314.257-.57.573-.57.315 0 .57.256.57.57v4.314zm3.512-2.725c.316 0 .573.255.573.57 0 .313-.257.57-.573.57h-1.597v1.017h1.597c.316 0 .573.256.573.57 0 .314-.257.57-.573.57h-2.17c-.315 0-.572-.256-.572-.57v-4.315c0-.314.257-.57.572-.57h2.17c.316 0 .573.256.573.57 0 .314-.257.57-.573.57h-1.597v1.018h1.597z" fill="#00C300" fill-rule="evenodd"/></svg>