<?xml version="1.0" encoding="UTF-8" standalone="no"?>
<svg width="145px" height="41px" viewBox="0 0 145 41" version="1.1" xmlns="http://www.w3.org/2000/svg" xmlns:xlink="http://www.w3.org/1999/xlink" xmlns:sketch="http://www.bohemiancoding.com/sketch/ns">
    <!-- Generator: Sketch 3.2.2 (9983) - http://www.bohemiancoding.com/sketch -->
    <title>Imported Layers</title>
    <desc>Created with Sketch.</desc>
    <defs></defs>
    <g id="Page-1" stroke="none" stroke-width="1" fill="none" fill-rule="evenodd" sketch:type="MSPage">
        <g id="Landing" sketch:type="MSArtboardGroup" transform="translate(-177.000000, -383.000000)" fill="#FFFFFF">
            <g id="Imported-Layers" sketch:type="MSLayerGroup" transform="translate(176.867978, 383.500000)">
                <path d="M95.1247209,13.2226966 L82.5670465,13.2226966 L77.5136279,19.1806742 L75.1704729,22.1038202 L75.1704729,0.204719101 L66.3870698,0.204719101 L66.3870698,39.2847191 L75.1704729,39.2847191 L75.1704729,32.2519101 L78.1977132,29.3748315 L84.1809302,39.2847191 L95.571186,39.2847191 L84.5903023,23.5222472 L95.1247209,13.2226966" id="Fill-1" sketch:type="MSShapeGroup"></path>
                <path d="M31.4036279,31.0195506 L27.0754341,13.2213483 L16.9658992,13.2213483 L12.7067209,31.0195506 L9.37734109,13.2213483 L0.220534884,13.2213483 L6.98832558,39.2842697 L18.7578295,39.2842697 L22.0541628,25.7586517 L25.3516202,39.2842697 L37.1220233,39.2842697 L43.9100465,13.2213483 L34.7127752,13.2213483 L31.4036279,31.0195506" id="Fill-2" sketch:type="MSShapeGroup"></path>
                <path d="M144.365822,20.8008989 L144.854775,13.2213483 L136.837736,13.2213483 L136.23076,16.0788764 C134.384651,14.1319101 132.089829,12.521573 128.049837,12.521573 C120.740713,12.521573 116.747481,17.2460674 116.747481,26.2049438 C116.747481,35.1660674 120.740713,39.8892135 128.049837,39.8892135 C132.089829,39.8892135 134.384651,38.2833708 136.23076,36.3368539 L136.859767,39.2847191 L144.854775,39.2847191 L144.365822,31.6125843 L144.365822,20.8008989 L144.365822,20.8008989 Z M135.601527,29.5188764 C134.47907,30.9795506 132.725357,31.9532584 130.434357,31.9532584 C127.807271,31.9532584 125.713202,30.247191 125.713202,26.2049438 C125.713202,22.1638202 127.807271,20.458427 130.434357,20.458427 C132.725357,20.458427 134.47907,21.434382 135.601527,22.8941573 L135.601527,29.5188764 L135.601527,29.5188764 Z" id="Fill-3" sketch:type="MSShapeGroup"></path>
                <path d="M53.2808682,10.3880899 C56.0554264,10.3880899 58.3025891,8.1411236 58.3025891,5.36921348 C58.3025891,2.59662921 56.0554264,0.348539326 53.2808682,0.348539326 C50.5072093,0.348539326 48.2600465,2.59662921 48.2600465,5.36921348 C48.2600465,8.1411236 50.5072093,10.3880899 53.2808682,10.3880899" id="Fill-4" sketch:type="MSShapeGroup"></path>
                <path d="M48.2600465,13.2226966 L48.2600465,39.2847191 L60.8435736,39.2847191 L60.8435736,33.8170787 L56.9004729,33.8170787 L56.9004729,18.7157303 L60.8435736,18.7157303 L60.8435736,13.2226966 L48.2600465,13.2226966" id="Fill-5" sketch:type="MSShapeGroup"></path>
                <path d="M107.335969,0.348539326 C104.56231,0.348539326 102.313574,2.59662921 102.313574,5.36921348 C102.313574,8.1411236 104.56231,10.3880899 107.335969,10.3880899 C110.109628,10.3880899 112.35769,8.1411236 112.35769,5.36921348 C112.35769,2.59662921 110.109628,0.348539326 107.335969,0.348539326" id="Fill-6" sketch:type="MSShapeGroup"></path>
                <path d="M99.7723643,13.2226966 L99.7723643,18.7157303 L103.71524,18.7157303 L103.71524,33.8170787 L99.7723643,33.8170787 L99.7723643,39.2847191 L112.35769,39.2847191 L112.35769,13.2226966 L99.7723643,13.2226966" id="Fill-7" sketch:type="MSShapeGroup"></path>
            </g>
        </g>
    </g>
</svg>