<svg xmlns="http://www.w3.org/2000/svg" viewBox="0 0 217.8 60"><path d="M100.6 58.8V0h13.2v33l3.5-4.4 7.4-8.8h18.9L128 35.2l16.5 23.7h-17.2l-9-14.9-4.6 4.3v10.5h-13.1zM51.8 20.1l-5 26.4-6.4-26.4H25.1l-6.4 26.4-5-26.4H0l10.1 38.8h17.7l5-20.4 5 20.4h17.7l10.1-38.8H51.8zm165.3 27.4l.7 11.3h-12.1l-.9-4.2c-2.8 2.9-6.2 5.4-12.3 5.4-11 0-17-7.1-17-20.6 0-13.5 6-20.6 17-20.6 6.1 0 9.5 2.4 12.3 5.4l.9-4.2h12.1l-.7 11.3v16.2zm-13.2-13.1c-1.7-2.2-4.3-3.7-7.8-3.7-4 0-7.1 2.6-7.1 8.7s3.2 8.7 7.1 8.7c3.5 0 6.1-1.5 7.8-3.7v-10zM79.8.2c-4.2 0-7.6 3.4-7.6 7.6 0 4.2 3.4 7.6 7.6 7.6 4.2 0 7.6-3.4 7.6-7.6 0-4.2-3.4-7.6-7.6-7.6m11.4 27.6v-8.3h-19v39.3h19v-8.2h-5.9V27.8h5.9zm62.5-20c0 4.2 3.4 7.6 7.6 7.6 4.2 0 7.6-3.4 7.6-7.6 0-4.2-3.4-7.6-7.6-7.6-4.2 0-7.6 3.4-7.6 7.6m2.1 20v22.8h-5.9v8.2h19V19.5H150v8.3h5.8z" fill="#fff"/></svg>