<svg width="150" height="44" viewBox="0 0 150 44" xmlns="http://www.w3.org/2000/svg" xmlns:xlink="http://www.w3.org/1999/xlink">
  <defs>
    <path id="apple-store-logo-a" d="M.067.044H150V44H.067"/>
  </defs>
  <g fill="none" fill-rule="evenodd">
    <mask id="apple-store-logo-b" fill="#fff">
      <use xlink:href="#apple-store-logo-a"/>
    </mask>
    <path d="M144.663 44H5.253C2.36 44 0 41.66 0 38.794V5.2C0 2.33 2.358 0 5.254 0h139.41C147.558 0 150 2.332 150 5.2v33.594c0 2.865-2.44 5.206-5.337 5.206" fill="#A9AAA9" mask="url(#apple-store-logo-b)"/>
    <path d="M148.924 38.795c0 2.327-1.904 4.213-4.26 4.213H5.254C2.9 43.008.99 41.122.99 38.795V5.197C.99 2.87 2.9.98 5.253.98h139.41c2.356 0 4.26 1.89 4.26 4.217v33.598" fill="#0A0B09"/>
    <path d="M33.476 21.762c-.033-3.545 2.932-5.27 3.067-5.35-1.68-2.424-4.28-2.755-5.195-2.78-2.186-.23-4.306 1.294-5.42 1.294-1.135 0-2.85-1.273-4.697-1.235-2.374.04-4.6 1.4-5.82 3.518-2.52 4.316-.64 10.657 1.77 14.145 1.21 1.71 2.62 3.617 4.464 3.55 1.806-.075 2.48-1.14 4.66-1.14 2.16 0 2.792 1.14 4.675 1.097 1.936-.033 3.156-1.717 4.32-3.44 1.394-1.96 1.954-3.888 1.977-3.987-.046-.014-3.764-1.418-3.8-5.668M29.92 11.337c.97-1.203 1.634-2.838 1.45-4.498-1.406.06-3.163.96-4.174 2.135-.896 1.036-1.696 2.735-1.49 4.332 1.58.115 3.2-.79 4.214-1.973M55.283 28.55l-1.25-3.82c-.132-.393-.38-1.312-.746-2.76h-.044c-.145.624-.38 1.543-.702 2.76l-1.225 3.82h3.97zm4.323 6.104h-2.524l-1.382-4.3h-4.803l-1.317 4.3h-2.457l4.76-14.638h2.94l4.783 14.638zm9.827-5.32c0-1.03-.233-1.876-.702-2.54-.51-.696-1.196-1.045-2.06-1.045-.584 0-1.115.19-1.59.573a2.654 2.654 0 0 0-.93 1.51c-.075.29-.11.528-.11.715v1.76c0 .767.236 1.415.712 1.943.477.53 1.094.794 1.854.794.893 0 1.588-.34 2.085-1.02.496-.68.745-1.58.745-2.694zm2.414-.087c0 1.795-.49 3.214-1.47 4.256-.878.927-1.967 1.39-3.27 1.39-1.403 0-2.41-.5-3.026-1.5h-.04v5.56h-2.37v-11.38c0-1.128-.03-2.286-.088-3.474h2.084l.133 1.67h.043c.79-1.26 1.99-1.89 3.598-1.89 1.26 0 2.308.492 3.15 1.476.84.986 1.26 2.282 1.26 3.89zm9.85.086c0-1.028-.235-1.875-.703-2.54-.512-.695-1.198-1.044-2.062-1.044-.585 0-1.115.19-1.59.573a2.67 2.67 0 0 0-.932 1.51 3.11 3.11 0 0 0-.11.715v1.76c0 .767.238 1.415.71 1.943.477.53 1.096.794 1.857.794.892 0 1.586-.34 2.083-1.02.498-.68.747-1.58.747-2.694zm2.413-.086c0 1.795-.49 3.214-1.47 4.256-.878.927-1.968 1.39-3.27 1.39-1.403 0-2.412-.5-3.026-1.5H76.3v5.56h-2.37v-11.38c0-1.128-.03-2.286-.087-3.474h2.085l.13 1.67h.045c.79-1.26 1.987-1.89 3.597-1.89 1.257 0 2.308.492 3.15 1.476.84.986 1.26 2.282 1.26 3.89zm13.71 1.303c0 1.244-.436 2.257-1.312 3.04-.964.855-2.305 1.28-4.028 1.28-1.59 0-2.867-.302-3.832-.91l.55-1.956c1.04.623 2.18.934 3.423.934.895 0 1.59-.2 2.09-.598.496-.398.743-.932.743-1.6 0-.593-.202-1.094-.613-1.5-.41-.406-1.09-.783-2.04-1.132-2.59-.956-3.884-2.356-3.884-4.198 0-1.203.455-2.19 1.362-2.958.904-.77 2.11-1.153 3.62-1.153 1.345 0 2.463.23 3.354.69l-.592 1.913c-.834-.45-1.776-.673-2.83-.673-.834 0-1.485.203-1.95.61-.396.36-.594.802-.594 1.324 0 .58.226 1.058.68 1.433.395.348 1.112.725 2.15 1.13 1.273.507 2.207 1.1 2.808 1.78.6.68.9 1.53.9 2.542m7.83-4.69h-2.61v5.123c0 1.303.46 1.954 1.38 1.954.424 0 .776-.036 1.054-.107l.064 1.783c-.466.172-1.08.26-1.842.26-.936 0-1.667-.284-2.194-.847-.525-.565-.79-1.513-.79-2.845v-5.32H99.16V24.1h1.556v-1.934l2.326-.695v2.63h2.61v1.76m9.325 3.507c0-.973-.21-1.808-.637-2.505-.497-.84-1.207-1.26-2.127-1.26-.952 0-1.675.42-2.172 1.262-.422.698-.632 1.546-.632 2.55 0 .973.21 1.808.635 2.504.513.842 1.23 1.263 2.152 1.263.905 0 1.615-.43 2.127-1.285.438-.71.658-1.554.658-2.526zm2.457-.076c0 1.623-.467 2.955-1.403 3.997-.98 1.07-2.28 1.607-3.904 1.607-1.564 0-2.81-.514-3.738-1.542-.93-1.025-1.394-2.322-1.394-3.886 0-1.635.478-2.975 1.437-4.017.957-1.044 2.248-1.565 3.87-1.565 1.567 0 2.824.514 3.775 1.542.907 1 1.36 2.287 1.36 3.866zm7.7-3.13a4.224 4.224 0 0 0-.746-.062c-.834 0-1.478.312-1.93.934-.397.55-.594 1.248-.594 2.087v5.537h-2.367l.02-7.23c0-1.22-.03-2.326-.088-3.325h2.06l.088 2.018h.063c.25-.694.647-1.252 1.187-1.67a2.872 2.872 0 0 1 1.71-.566c.22 0 .418.015.593.043v2.236m8.337 2.11c.016-.696-.14-1.296-.46-1.804-.41-.65-1.04-.978-1.888-.978-.775 0-1.405.316-1.886.954-.396.507-.63 1.116-.7 1.824h4.933zm2.26.607c0 .42-.03.775-.088 1.064h-7.107c.027 1.045.37 1.84 1.03 2.39.598.494 1.374.74 2.324.74 1.052 0 2.012-.167 2.876-.5l.37 1.63c-1.008.433-2.2.65-3.574.65-1.654 0-2.95-.48-3.896-1.444-.94-.963-1.415-2.255-1.415-3.877 0-1.593.437-2.92 1.317-3.975.92-1.13 2.163-1.694 3.728-1.694 1.536 0 2.7.565 3.49 1.695.626.897.94 2.006.94 3.322zM53.272 11.042c0-.84-.224-1.483-.674-1.932-.45-.447-1.105-.672-1.967-.672-.364 0-.68.025-.935.075v5.378c.144.025.406.035.787.035.89 0 1.58-.246 2.065-.736.485-.49.728-1.207.728-2.146zm1.228-.032c0 1.295-.39 2.27-1.174 2.924-.727.604-1.757.906-3.094.906-.66 0-1.23-.028-1.703-.085V7.68c.616-.1 1.282-.148 2.002-.148 1.272 0 2.232.274 2.878.82.726.62 1.09 1.505 1.09 2.658zm5.302 1.168c0-.477-.104-.888-.313-1.23-.246-.414-.595-.62-1.048-.62-.467 0-.823.206-1.067.62-.208.342-.313.76-.313 1.25 0 .48.105.89.313 1.233.252.416.603.62 1.056.62.447 0 .795-.21 1.047-.63.214-.35.322-.76.322-1.24zm1.208-.037c0 .8-.23 1.454-.69 1.966-.482.527-1.12.79-1.92.79-.768 0-1.38-.252-1.837-.758-.455-.505-.684-1.142-.684-1.91 0-.804.23-1.46.702-1.974.472-.513 1.105-.768 1.903-.768.77 0 1.386.253 1.854.758.445.49.67 1.124.67 1.9zm8.73-2.55l-1.64 5.187h-1.066l-.68-2.25a16.443 16.443 0 0 1-.42-1.677h-.02a12.24 12.24 0 0 1-.422 1.674l-.722 2.25h-1.078l-1.54-5.184h1.196l.592 2.465c.143.584.262 1.138.357 1.665h.02c.086-.433.23-.985.432-1.654l.74-2.475h.95l.71 2.425c.172.59.312 1.16.42 1.707h.032c.08-.532.198-1.1.357-1.706l.636-2.422h1.142m6.036 5.184H74.61v-2.97c0-.915-.35-1.372-1.054-1.372-.346 0-.626.126-.842.378a1.327 1.327 0 0 0-.323.89v3.074h-1.16v-3.702c0-.456-.015-.95-.043-1.483h1.024l.054.813h.032c.136-.252.338-.46.604-.626.314-.195.67-.292 1.054-.292.49 0 .896.156 1.22.47.4.384.603.956.603 1.717v3.106m2.046-7.565h1.164v7.564h-1.164V7.21zm6.81 4.966c0-.476-.104-.887-.312-1.23-.24-.413-.59-.62-1.04-.62-.47 0-.826.207-1.07.62-.21.343-.312.76-.312 1.25 0 .48.104.89.312 1.234.25.415.6.62 1.055.62.445 0 .792-.21 1.044-.63.215-.35.32-.762.32-1.24zm1.21-.036c0 .8-.23 1.453-.69 1.965-.483.526-1.123.79-1.92.79-.77 0-1.382-.253-1.837-.76-.456-.504-.684-1.14-.684-1.91 0-.803.235-1.46.705-1.973.47-.513 1.105-.768 1.9-.768.772 0 1.387.252 1.856.757.446.49.67 1.124.67 1.9zm4.427.854v-.8c-1.286-.02-1.928.327-1.928 1.046 0 .27.074.473.224.608.15.135.34.202.568.202.256 0 .495-.08.712-.24a.977.977 0 0 0 .424-.816zm1.208 1.782h-1.046l-.088-.597h-.032c-.358.474-.868.713-1.53.713-.494 0-.893-.156-1.195-.47a1.464 1.464 0 0 1-.41-1.056c0-.633.266-1.116.803-1.452.536-.333 1.29-.497 2.26-.49v-.096c0-.684-.363-1.025-1.09-1.025-.516 0-.97.128-1.363.384l-.237-.76c.486-.296 1.087-.446 1.797-.446 1.37 0 2.055.715 2.055 2.145v1.91c0 .517.026.93.076 1.235zm5.41-2.186v-.865c0-.15-.01-.27-.032-.364a1.323 1.323 0 0 0-.422-.7 1.146 1.146 0 0 0-.778-.28c-.435 0-.775.17-1.025.51-.245.342-.37.78-.37 1.313 0 .51.12.927.358 1.247.252.34.592.513 1.017.513.383 0 .688-.143.92-.427.225-.265.335-.58.335-.95zm1.206 2.186H97.06l-.052-.832h-.034c-.33.633-.89.95-1.68.95-.633 0-1.157-.245-1.574-.736-.417-.492-.626-1.127-.626-1.91 0-.84.226-1.52.68-2.038.438-.484.976-.726 1.617-.726.705 0 1.2.235 1.48.704h.02v-2.98h1.165v6.167c0 .502.014.97.04 1.394zm8.753-2.598c0-.477-.105-.888-.313-1.23-.245-.414-.592-.62-1.046-.62-.466 0-.822.206-1.068.62-.208.342-.312.76-.312 1.25 0 .48.104.89.312 1.233.252.415.603.62 1.058.62.444 0 .794-.21 1.045-.63.215-.35.324-.762.324-1.24zm1.206-.037c0 .8-.23 1.453-.69 1.965-.482.527-1.12.79-1.92.79-.766 0-1.38-.252-1.836-.758-.456-.505-.684-1.142-.684-1.91 0-.804.235-1.46.706-1.974.47-.513 1.1-.768 1.9-.768.77 0 1.387.253 1.852.758.446.49.67 1.124.67 1.9zm6.26 2.636h-1.162v-2.97c0-.914-.35-1.37-1.054-1.37-.345 0-.625.125-.84.377a1.332 1.332 0 0 0-.323.89v3.074h-1.164v-3.7c0-.457-.015-.95-.043-1.484h1.023l.053.813h.033c.137-.253.34-.46.604-.627.316-.195.67-.292 1.056-.292.49 0 .895.157 1.218.47.404.385.604.957.604 1.718v3.106m7.832-4.324h-1.282v2.52c0 .64.228.96.68.96.208 0 .38-.018.518-.054l.03.875c-.23.086-.532.13-.905.13-.46 0-.815-.14-1.072-.417-.262-.278-.39-.743-.39-1.398v-2.617h-.766V9.59h.768v-.95l1.14-.34v1.29h1.284v.864m6.164 4.322h-1.165v-2.948c0-.93-.35-1.394-1.053-1.394-.54 0-.91.27-1.112.81-.034.112-.053.25-.053.414v3.118h-1.162V7.212h1.163v3.125h.022c.367-.57.892-.853 1.574-.853.48 0 .88.156 1.196.47.396.39.593.97.593 1.74v3.082m5.244-3.136a1.53 1.53 0 0 0-.225-.886c-.203-.32-.51-.48-.928-.48-.38 0-.69.156-.925.47a1.73 1.73 0 0 0-.345.895h2.423zm1.11.298c0 .207-.014.38-.042.523h-3.49c.015.515.18.906.505 1.176.296.242.678.364 1.145.364a3.88 3.88 0 0 0 1.41-.247l.183.8c-.496.213-1.08.32-1.757.32-.812 0-1.45-.235-1.912-.71-.464-.473-.694-1.107-.694-1.904 0-.784.214-1.435.647-1.954.45-.556 1.06-.833 1.83-.833.753 0 1.325.277 1.712.833.31.44.464.986.464 1.632z" fill="#FFF"/>
  </g>
</svg>
