<svg xmlns="http://www.w3.org/2000/svg" viewBox="0 0 24 24">
  <path fill="#123154" d="M12 0C5.373 0 0 5.373 0 12s5.373 12 12 12 12-5.373 12-12S18.627 0 12 0zm.267 22.667c-3.415 0-6.447-1.61-8.4-4.107l.12-.058c1.325-.59 3.288-2.105 6.192-2.64-.747-.797-1.305-2.048-1.893-3.54-.34-.863-.282-1.6-.282-2.645 0-.77-.146-2.005.044-2.683.644-2.303 2.277-2.94 4.19-2.94 1.912 0 3.544.633 4.19 2.933.19.68.045 1.918.045 2.69 0 1.044.058 1.778-.28 2.638-.583 1.485-1.15 2.738-1.898 3.54 2.928.523 4.905 2.05 6.238 2.64.047.022.086.043.13.063-1.95 2.498-4.983 4.11-8.398 4.11z" id="design"/>
</svg>
