<?xml version="1.0" encoding="utf-8"?>
<!-- Generator: Adobe Illustrator 18.0.0, SVG Export Plug-In . SVG Version: 6.00 Build 0)  -->
<!DOCTYPE svg PUBLIC "-//W3C//DTD SVG 1.1//EN" "http://www.w3.org/Graphics/SVG/1.1/DTD/svg11.dtd">
<svg version="1.1" xmlns="http://www.w3.org/2000/svg" xmlns:xlink="http://www.w3.org/1999/xlink" x="0px" y="0px"
	 viewBox="0 0 24 24" enable-background="new 0 0 24 24" xml:space="preserve">
<g id="design">
	<g>
		<path fill="#123154" d="M12,0C5.373,0,0,5.373,0,12c0,6.627,5.373,12,12,12s12-5.373,12-12C24,5.373,18.627,0,12,0z
			 M12.267,22.667c-3.415,0-6.447-1.611-8.4-4.107c0.042-0.019,0.078-0.038,0.121-0.058c1.324-0.59,3.287-2.105,6.191-2.639
			c-0.746-0.798-1.304-2.049-1.892-3.542c-0.339-0.862-0.282-1.598-0.282-2.644c0-0.769-0.146-2.005,0.044-2.683
			c0.645-2.303,2.278-2.941,4.191-2.941c1.912,0,3.544,0.634,4.189,2.934c0.191,0.681,0.046,1.918,0.046,2.69
			c0,1.044,0.058,1.778-0.28,2.638c-0.583,1.485-1.15,2.738-1.898,3.539c2.928,0.524,4.905,2.05,6.238,2.642
			c0.047,0.021,0.086,0.042,0.131,0.062C18.714,21.056,15.682,22.667,12.267,22.667z"/>
	</g>
</g>
<g id="phone_frame">
</g>
<g id="redline" display="none">
</g>
<g id="grid" display="none">
</g>
</svg>
