<svg xmlns="http://www.w3.org/2000/svg" version="1.1" id="Layer_1" x="0" y="0" viewBox="0 0 40 40" enable-background="new 0 0 40 40" xml:space="preserve">
  <path d="M20 1C9.5 1 1 9.5 1 20c0 10.5 8.5 19 19 19 10.5 0 19-8.5 19-19C39 9.5 30.5 1 20 1zM32.6 32.6c-3.2 3.2-7.7 5.2-12.6 5.2 -4.9 0-9.3-2-12.6-5.2C4.2 29.3 2.2 24.9 2.2 20c0-4.9 2-9.3 5.2-12.6 3.2-3.2 7.7-5.2 12.6-5.2 4.9 0 9.3 2 12.6 5.2 3.2 3.2 5.2 7.7 5.2 12.6C37.8 24.9 35.8 29.3 32.6 32.6z" fill="#1A5EB8"/>
  <path d="M28 15h-3l-1-1c-0.3-0.3-1-1-1-1h-6 0c0 0-0.5 0.5-1 1l-1 1h-3c-0.5 0-1 0.5-1 1v9c0 0.5 0.5 1 1 1h16c0.5 0 1-0.5 1-1v-9C29 15.5 28.5 15 28 15zM20 24.2c-2.1 0-3.7-1.7-3.7-3.8 0-2.1 1.7-3.8 3.7-3.8 2.1 0 3.7 1.7 3.7 3.8C23.7 22.6 22.1 24.2 20 24.2zM20 18.4c-1.2 0-2.2 1-2.2 2.2 0 1.2 1 2.2 2.2 2.2 1.2 0 2.2-1 2.2-2.2C22.2 19.3 21.2 18.4 20 18.4z" fill="#1A5EB8"/>
</svg>