<svg xmlns="http://www.w3.org/2000/svg" id="Layer_1" viewBox="0 0 40 40">
  <path d="M20 1C9.5 1 1 9.5 1 20s8.5 19 19 19 19-8.5 19-19S30.5 1 20 1zm12.6 31.6c-3.2 3.2-7.7 5.2-12.6 5.2-4.9 0-9.3-2-12.6-5.2-3.2-3.3-5.2-7.7-5.2-12.6 0-4.9 2-9.3 5.2-12.6 3.2-3.2 7.7-5.2 12.6-5.2 4.9 0 9.3 2 12.6 5.2 3.2 3.2 5.2 7.7 5.2 12.6 0 4.9-2 9.3-5.2 12.6z" fill="#1A5EB8"/>
  <path d="M28 15h-3l-1-1-1-1h-6l-1 1-1 1h-3c-.5 0-1 .5-1 1v9c0 .5.5 1 1 1h16c.5 0 1-.5 1-1v-9c0-.5-.5-1-1-1zm-8 9.2c-2.1 0-3.7-1.7-3.7-3.8 0-2.1 1.7-3.8 3.7-3.8 2.1 0 3.7 1.7 3.7 3.8 0 2.2-1.6 3.8-3.7 3.8zm0-5.8c-1.2 0-2.2 1-2.2 2.2 0 1.2 1 2.2 2.2 2.2 1.2 0 2.2-1 2.2-2.2 0-1.3-1-2.2-2.2-2.2z" fill="#1A5EB8"/>
</svg>
