<svg width="22" height="22" viewBox="0 0 22 22" xmlns="http://www.w3.org/2000/svg">
  <g fill-rule="evenodd">
    <path d="M17.417 20.167H4.583V5.5h12.834v14.667zM8.25 1.833h5.5v1.834h-5.5V1.833zm12.833 1.834h-5.5V.917c0-.506-.41-.917-.916-.917H7.333c-.506 0-.916.41-.916.917v2.75h-5.5c-.506 0-.917.41-.917.916s.41.917.917.917H2.75v15.583c0 .507.41.917.917.917h14.666c.507 0 .917-.41.917-.917V5.5h1.833c.507 0 .917-.41.917-.917 0-.506-.41-.916-.917-.916z"/>
    <path d="M11 8.25c-.506 0-.917.41-.917.917V16.5c0 .507.41.917.917.917.506 0 .917-.41.917-.917V9.167c0-.506-.41-.917-.917-.917M7.333 8.25c-.506 0-.916.41-.916.917V16.5c0 .507.41.917.916.917s.917-.41.917-.917V9.167c0-.506-.41-.917-.917-.917M13.75 9.167V16.5c0 .507.41.917.917.917.507 0 .916-.41.916-.917V9.167c0-.506-.41-.917-.916-.917-.507 0-.917.41-.917.917"/>
  </g>
</svg>
