<svg width="16" height="16" viewBox="0 0 16 16" xmlns="http://www.w3.org/2000/svg"><g fill="#999" fill-rule="evenodd"><path d="M12.67 14.67H3.33V4h9.34v10.67zM6 1.33h4v1.34H6V1.33zm9.33 1.34h-4v-2c0-.37-.3-.67-.66-.67H5.33c-.36 0-.66.3-.66.67v2h-4c-.37 0-.67.3-.67.66C0 3.7.3 4 .67 4H2v11.33c0 .37.3.67.67.67h10.66c.37 0 .67-.3.67-.67V4h1.33c.37 0 .67-.3.67-.67 0-.36-.3-.66-.67-.66z"/><path d="M8 6c-.37 0-.67.3-.67.67V12c0 .37.3.67.67.67.37 0 .67-.3.67-.67V6.67C8.67 6.3 8.37 6 8 6M5.33 6c-.36 0-.66.3-.66.67V12c0 .37.3.67.66.67.37 0 .67-.3.67-.67V6.67C6 6.3 5.7 6 5.33 6M10 6.67V12c0 .37.3.67.67.67.37 0 .66-.3.66-.67V6.67c0-.37-.3-.67-.66-.67-.37 0-.67.3-.67.67"/></g></svg>
