<svg xmlns="http://www.w3.org/2000/svg" viewBox="0 0 26.09 25.6">
    <path d="M11.48,18.68a1,1,0,0,1-.3.75l-0.91.78L2,12.41V9.35l9.13,8.58a1.11,1.11,0,0,1,.38.75h0ZM24.13,9.58v2.84l-10.33,10a0.77,0.77,0,0,1-.56.24,0.82,0.82,0,0,1-.58-0.24l-0.94-.85,12.41-12h0Zm-7.87,5.06-2.86,2.72L4.32,8.73a2.24,2.24,0,0,1,0-3.26L7.18,2.74l9.07,8.63a2.23,2.23,0,0,1,0,3.26h0ZM14.57,7.12l3-2.84a2.52,2.52,0,0,1,3.43,0l3.08,2.93-4.7,4.47L17.65,10,14.57,7.12h0ZM26,6.67L19.29,0.14,19.15,0,19,0.13,13.12,5.79l-5.27-5h0L7.18,0.22,7,0.11l-0.13.12L0.06,6.65,0,6.71v6.48l0.06,0.06L12.91,25.47l0.14,0.13,0.14-.13L26,13.25l0.06-.06V6.72L26,6.67h0Z"/>
</svg>
