<svg width="24" height="24" viewBox="0 0 24 24" xmlns="http://www.w3.org/2000/svg" xmlns:xlink="http://www.w3.org/1999/xlink"><defs><path id="path-1" d="M12 1.004v-1H.994v1z"/><path id="path-3" d="M0 .004v5.008h16.492V.004H0z"/><path id="path-5" d="M12 1.002v-1H.994v1H12z"/><path id="path-7" d="M0 .004V5.01h7.496V.004H0z"/><path id="path-9" d="M0 5h7.496V.004H0z"/></defs><g id="Styleguide" fill="none" fill-rule="evenodd"><g id="Base-Style---Icons"><g id="Controls"><g id="controls"><g id="Group-3" transform="translate(11 4.996)"><mask id="mask-2" fill="#fff"><use xlink:href="#path-1"/></mask><path d="M1.494 1.004H11.5c.276 0 .5-.224.5-.5s-.224-.5-.5-.5H1.494c-.276 0-.5.224-.5.5s.224.5.5.5" id="Fill-1" fill="#fff" mask="url(#mask-2)"/></g><g id="Group-6" transform="translate(1 9.996)"><mask id="mask-4" fill="#fff"><use xlink:href="#path-3"/></mask><path d="M.5 3.004h11.994v1.482c0 .29.235.526.525.526h2.946c.29 0 .526-.236.526-.526V.53c0-.29-.236-.526-.526-.526H13.02c-.29 0-.526.235-.526.526v1.474H.5c-.276 0-.5.224-.5.5s.224.5.5.5" id="Fill-4" fill="#fff" mask="url(#mask-4)"/></g><g id="Group-9" transform="translate(11 18.996)"><mask id="mask-6" fill="#fff"><use xlink:href="#path-5"/></mask><path d="M11.5.002H1.494c-.276 0-.5.224-.5.5s.224.5.5.5H11.5c.276 0 .5-.224.5-.5s-.224-.5-.5-.5" id="Fill-7" fill="#fff" mask="url(#mask-6)"/></g><g id="Group-12" transform="translate(1 2.996)"><mask id="mask-8" fill="#fff"><use xlink:href="#path-7"/></mask><path d="M.5 3.004h2.998v1.48c0 .29.235.526.526.526H6.97c.29 0 .526-.236.526-.526V.53c0-.29-.235-.526-.526-.526H4.024c-.29 0-.526.235-.526.526v1.474H.5c-.276 0-.5.224-.5.5s.224.5.5.5" id="Fill-10" fill="#fff" mask="url(#mask-8)"/></g><path d="M22.49 12h-2.003c-.276 0-.5.224-.5.5s.224.5.5.5h2.003c.276 0 .5-.224.5-.5s-.224-.5-.5-.5" id="Fill-13" fill="#fff"/><g id="Group-17" transform="translate(1 16.996)"><mask id="mask-10" fill="#fff"><use xlink:href="#path-9"/></mask><path d="M6.97.004H4.023c-.29 0-.525.235-.525.526v1.474H.5c-.277 0-.5.224-.5.5s.223.5.5.5h2.998v1.47c0 .29.235.526.525.526H6.97c.29 0 .526-.236.526-.526V.53c0-.29-.236-.526-.526-.526" id="Fill-15" fill="#fff" mask="url(#mask-10)"/></g></g></g></g></g></svg>
