<svg width="24" height="20" viewBox="0 0 24 20" xmlns="http://www.w3.org/2000/svg"><g stroke-linecap="round" stroke="#FFF" stroke-linejoin="round" fill="none" fill-rule="evenodd"><path d="M12.91 2.727h9.593M1.492 2.727h3.235M19.46 10h3.093M1.488 10H12M12.91 17.273h9.593M1.493 17.273h3.5M4.727 2.727C4.727 1.22 5.947 0 7.455 0c1.506 0 2.727 1.22 2.727 2.727s-1.22 2.728-2.727 2.728-2.728-1.22-2.728-2.728zM12 10c0-1.506 1.22-2.727 2.727-2.727s2.728 1.22 2.728 2.727c0 1.506-1.22 2.727-2.728 2.727C13.22 12.727 12 11.507 12 10zM4.727 17.273c0-1.507 1.22-2.728 2.728-2.728 1.506 0 2.727 1.22 2.727 2.728 0 1.506-1.22 2.727-2.727 2.727s-2.728-1.22-2.728-2.727z"/></g></svg>
