<svg width="24" height="20" viewBox="0 0 24 20" xmlns="http://www.w3.org/2000/svg" xmlns:xlink="http://www.w3.org/1999/xlink"><title>F1692DAF-A14E-436E-9D49-AC69EC61E543</title><defs><path id="a" d="M12 1.004v-1H.994v1z"/><path id="c" d="M0 .004v5.008h16.492V.004H0z"/><path id="e" d="M12 1.002v-1H.994v1H12z"/><path id="g" d="M0 .004V5.01h7.496V.004H0z"/><path id="i" d="M0 5h7.496V.004H0z"/></defs><g fill="none" fill-rule="evenodd"><g transform="translate(11 2.996)"><mask id="b" fill="#fff"><use xlink:href="#a"/></mask><path d="M1.494 1.004H11.5c.276 0 .5-.224.5-.5s-.224-.5-.5-.5H1.494c-.276 0-.5.224-.5.5s.224.5.5.5" fill="#FFF" mask="url(#b)"/></g><g transform="translate(1 7.996)"><mask id="d" fill="#fff"><use xlink:href="#c"/></mask><path d="M.5 3.004h11.994v1.482c0 .29.235.526.525.526h2.946c.29 0 .526-.236.526-.526V.53c0-.29-.236-.526-.526-.526H13.02c-.29 0-.526.235-.526.526v1.474H.5c-.276 0-.5.224-.5.5s.224.5.5.5" fill="#FFF" mask="url(#d)"/></g><g transform="translate(11 16.996)"><mask id="f" fill="#fff"><use xlink:href="#e"/></mask><path d="M11.5.002H1.494c-.276 0-.5.224-.5.5s.224.5.5.5H11.5c.276 0 .5-.224.5-.5s-.224-.5-.5-.5" fill="#FFF" mask="url(#f)"/></g><g transform="translate(1 .996)"><mask id="h" fill="#fff"><use xlink:href="#g"/></mask><path d="M.5 3.004h2.998v1.48c0 .29.235.526.526.526H6.97c.29 0 .526-.236.526-.526V.53c0-.29-.235-.526-.526-.526H4.024c-.29 0-.526.235-.526.526v1.474H.5c-.276 0-.5.224-.5.5s.224.5.5.5" fill="#FFF" mask="url(#h)"/></g><path d="M22.49 10h-2.003c-.276 0-.5.224-.5.5s.224.5.5.5h2.003c.276 0 .5-.224.5-.5s-.224-.5-.5-.5" fill="#FFF"/><g transform="translate(1 14.996)"><mask id="j" fill="#fff"><use xlink:href="#i"/></mask><path d="M6.97.004H4.023c-.29 0-.525.235-.525.526v1.474H.5c-.277 0-.5.224-.5.5s.223.5.5.5h2.998v1.47c0 .29.235.526.525.526H6.97c.29 0 .526-.236.526-.526V.53c0-.29-.236-.526-.526-.526" fill="#FFF" mask="url(#j)"/></g></g></svg>