<?xml version="1.0" encoding="UTF-8" standalone="no"?>
<svg width="32px" height="42px" viewBox="0 0 32 42" version="1.1" xmlns="http://www.w3.org/2000/svg" xmlns:xlink="http://www.w3.org/1999/xlink">
    <!-- Generator: sketchtool 40.2 (33826) - http://www.bohemiancoding.com/sketch -->
    <title>AE313B1F-CDD9-485B-A71B-8D2BAA8D0F94</title>
    <desc>Created with sketchtool.</desc>
    <defs></defs>
    <g id="Following" stroke="none" stroke-width="1" fill="none" fill-rule="evenodd">
        <g id="Following-Tab-Zero-State" transform="translate(-144.000000, -263.000000)" fill="#999999">
            <path d="M162,278 L162,273.493096 C162,272.663886 161.328427,272 160.5,272 C159.665797,272 159,272.668482 159,273.493096 L159,278 L154.493096,278 C153.663886,278 153,278.671573 153,279.5 C153,280.334203 153.668482,281 154.493096,281 L159,281 L159,285.506904 C159,286.336114 159.671573,287 160.5,287 C161.334203,287 162,286.331518 162,285.506904 L162,281 L166.506904,281 C167.336114,281 168,280.328427 168,279.5 C168,278.665797 167.331518,278 166.506904,278 L162,278 Z M174.221333,263 L160,263 L145.776,263 C144.709333,263 144,263.700875 144,264.750875 L144,303.249125 C144,303.95 144.354667,304.475 144.888,304.824125 C145.242667,305 145.421333,305 145.776,305 C146.133333,305 146.309333,304.824125 146.666667,304.650875 L160,296.424125 L173.333333,304.650875 C173.688,304.824125 173.866667,305 174.221333,305 C174.576,305 174.754667,305 175.109333,304.824125 C175.642667,304.475 176,303.95 176,303.249125 L176,264.750875 C176,263.700875 175.288,263 174.221333,263 Z" id="Follow-XL" transform="translate(160.000000, 284.000000) rotate(-360.000000) translate(-160.000000, -284.000000) "></path>
        </g>
    </g>
</svg>