<svg width="12" height="16" viewBox="0 0 12 16" xmlns="http://www.w3.org/2000/svg"><g id="Following" fill-rule="evenodd"><g id="Following-Card-Update"><g id="New-Post"><g id="Icon"><path d="M6.75 5.25V3.76C6.75 3.34 6.414 3 6 3c-.417 0-.75.34-.75.76v1.49H3.76c-.42 0-.76.336-.76.75 0 .417.34.75.76.75h1.49v1.49c0 .42.336.76.75.76.417 0 .75-.34.75-.76V6.75h1.49c.42 0 .76-.336.76-.75 0-.417-.34-.75-.76-.75H6.75zM11.333 0H.666C.266 0 0 .267 0 .667v14.666c0 .267.133.467.333.6.133.067.2.067.333.067.134 0 .2-.067.334-.133l5-3.134 5 3.134c.133.066.2.133.333.133s.2 0 .333-.067c.2-.133.334-.333.334-.6V.667c0-.4-.267-.667-.667-.667z" id="Follow-Small"/></g></g></g></g></svg>
