<svg width="32" height="42" viewBox="0 0 32 42" xmlns="http://www.w3.org/2000/svg"><g id="Following" fill="none" fill-rule="evenodd"><g id="Following-Tab-Zero-State" fill="#999"><path d="M18 15v-4.507C18 9.663 17.328 9 16.5 9c-.834 0-1.5.668-1.5 1.493V15h-4.507C9.663 15 9 15.672 9 16.5c0 .834.668 1.5 1.493 1.5H15v4.507c0 .83.672 1.493 1.5 1.493.834 0 1.5-.668 1.5-1.493V18h4.507c.83 0 1.493-.672 1.493-1.5 0-.834-.668-1.5-1.493-1.5H18zM30.22 0H1.777C.71 0 0 .7 0 1.75v38.5c0 .7.355 1.225.888 1.574.355.176.533.176.888.176.357 0 .533-.176.89-.35L16 33.425l13.333 8.227c.355.174.534.35.888.35.356 0 .535 0 .89-.176.533-.35.89-.874.89-1.575V1.75C32 .7 31.288 0 30.22 0z" id="Follow-XL"/></g></g></svg>
