<svg width="24px" height="16px" viewBox="0 0 24 16" version="1.1" xmlns="http://www.w3.org/2000/svg" xmlns:xlink="http://www.w3.org/1999/xlink">
    <g fill-rule="evenodd">
        <path d="M23,7 L1,7 C0.448,7 0,7.448 0,8 C0,8.552 0.448,9 1,9 L23,9 C23.552,9 24,8.552 24,8 C24,7.448 23.552,7 23,7" id="Fill-3214"></path>
        <path d="M23,0 L1,0 C0.448,0 0,0.448 0,1 C0,1.552 0.448,2 1,2 L23,2 C23.552,2 24,1.552 24,1 C24,0.448 23.552,0 23,0" id="Fill-3215"></path>
        <path d="M23,14 L1,14 C0.448,14 0,14.448 0,15 C0,15.552 0.448,16 1,16 L23,16 C23.552,16 24,15.552 24,15 C24,14.448 23.552,14 23,14" id="Fill-3216"></path>
    </g>
</svg>
