<?xml version="1.0" encoding="UTF-8" standalone="no"?>
<svg width="22px" height="23px" viewBox="0 0 22 23" version="1.1" xmlns="http://www.w3.org/2000/svg">
    <g>
        <g transform="translate(-632.000000, -3637.000000)">
            <g transform="translate(617.000000, 3637.000000)">
                <path
                        d="M28.9995535,22.98575 L32.9995535,22.98575 C33.5525535,22.98575 33.9995535,22.53775 33.9995535,21.98575 L33.9995535,12.98575 L35.9995535,12.98575 C36.3955535,12.98575 36.7535535,12.75275 36.9135535,12.39075 C37.0735535,12.02775 37.0055535,11.60575 36.7395535,11.31275 L26.7395535,0.31275 C26.3605535,-0.10425 25.6385535,-0.10425 25.2595535,0.31275 L15.2595535,11.31275 C14.9935535,11.60575 14.9255535,12.02775 15.0855535,12.39075 C15.2455535,12.75275 15.6035535,12.98575 15.9995535,12.98575 L17.9995535,12.98575 L17.9995535,21.98575 C17.9995535,22.53775 18.4465535,22.98575 18.9995535,22.98575 L22.9995535,22.98575 C23.5525535,22.98575 23.9995535,22.53775 23.9995535,21.98575 L23.9995535,16.98575 L27.9995535,16.98575 L27.9995535,21.98575 C27.9995535,22.53775 28.4465535,22.98575 28.9995535,22.98575"/>
            </g>
        </g>
    </g>
</svg>
