<svg xmlns="http://www.w3.org/2000/svg" width="18" height="18" viewBox="0 0 18 18">
  <title>
    i-icon
  </title>
  <g id="Page-1" fill="none" fill-rule="evenodd">
    <g id="RWA-visibility:-menu-level-i-dot">
      <g id="i-icon">
        <circle id="Oval-6" fill="#FFF" cx="9.5" cy="9.5" r="7.5"/>
        <path d="M10.5 13.5h-3c-.41 0-.75-.34-.75-.75s.34-.75.75-.75h.75V9H7.5c-.41 0-.75-.34-.75-.75s.34-.75.75-.75H9c.41 0 .75.34.75.75V12h.75c.41 0 .75.34.75.75s-.34.75-.75.75zm-2.25-9c0-.41.34-.75.75-.75s.75.34.75.75v.75c0 .41-.34.75-.75.75s-.75-.34-.75-.75V4.5zM9 0C4.04 0 0 4.04 0 9s4.04 9 9 9 9-4.04 9-9-4.04-9-9-9z" id="Information-Copy-2" fill="#1A5EB8"/>
      </g>
    </g>
  </g>
</svg>
