<svg xmlns="http://www.w3.org/2000/svg" xmlns:xlink="http://www.w3.org/1999/xlink" xmlns:sketch="http://www.bohemiancoding.com/sketch/ns" width="18" height="18" viewBox="0 0 18 18" version="1.1"><title>i-icon</title><desc>Created with sketchtool.</desc><g id="Page-1" stroke="none" stroke-width="1" fill="none" fill-rule="evenodd" sketch:type="MSPage"><g id="RWA-visibility:-menu-level-i-dot" sketch:type="MSArtboardGroup" transform="translate(-404.000000, -21.000000)"><g id="i-icon" sketch:type="MSLayerGroup" transform="translate(404.000000, 21.000000)"><circle id="Oval-6" fill="#FFFFFF" sketch:type="MSShapeGroup" cx="9.5" cy="9.5" r="7.5"/><path d="M10.5 13.5L7.5 13.5C7.09 13.5 6.75 13.16 6.75 12.75 6.75 12.34 7.09 12 7.5 12L8.25 12 8.25 9 7.5 9C7.09 9 6.75 8.66 6.75 8.25 6.75 7.84 7.09 7.5 7.5 7.5L9 7.5C9.41 7.5 9.75 7.84 9.75 8.25L9.75 12 10.5 12C10.91 12 11.25 12.34 11.25 12.75 11.25 13.16 10.91 13.5 10.5 13.5L10.5 13.5ZM8.25 4.5C8.25 4.09 8.59 3.75 9 3.75 9.41 3.75 9.75 4.09 9.75 4.5L9.75 5.25C9.75 5.66 9.41 6 9 6 8.59 6 8.25 5.66 8.25 5.25L8.25 4.5ZM9 0C4.04 0 0 4.04 0 9 0 13.96 4.04 18 9 18 13.96 18 18 13.96 18 9 18 4.04 13.96 0 9 0L9 0Z" id="Information-Copy-2" fill="#1A5EB8" sketch:type="MSShapeGroup"/></g></g></g></svg>