<svg width="23px" height="23px" viewBox="0 0 23 23" version="1.1" xmlns="http://www.w3.org/2000/svg" xmlns:xlink="http://www.w3.org/1999/xlink">
    <g fill-rule="evenodd">
        <path d="M22.7071068,21.2928932 L17.0711068,15.6568932 C16.6805825,15.2663689 16.0474175,15.2663689 15.6568932,15.6568932 C15.2663689,16.0474175 15.2663689,16.6805825 15.6568932,17.0711068 L21.2928932,22.7071068 C21.6834175,23.0976311 22.3165825,23.0976311 22.7071068,22.7071068 C23.0976311,22.3165825 23.0976311,21.6834175 22.7071068,21.2928932 L22.7071068,21.2928932 Z" id="Stroke-5191"></path>
        <path d="M2,10 C2,5.58128475 5.58128475,2 10,2 C14.4187153,2 18,5.58128475 18,10 C18,14.4187153 14.4187153,18 10,18 C5.58128475,18 2,14.4187153 2,10 L2,10 Z M0,10 C0,15.5232847 4.47671525,20 10,20 C15.5232847,20 20,15.5232847 20,10 C20,4.47671525 15.5232847,0 10,0 C4.47671525,0 0,4.47671525 0,10 L0,10 Z" id="Stroke-5192"></path>
    </g>
</svg>
