<?xml version="1.0" encoding="UTF-8" standalone="no"?>
<svg width="5px" height="17px" viewBox="0 0 5 17" version="1.1" xmlns="http://www.w3.org/2000/svg">
	<g transform="translate(0.500000, 0.000000)" fill="#999999">
		<path d="M1.99943067,12.0300007 C0.89574494,12.0300007 0,12.9282407 0,14.0350008 C0,15.1417609 0.89574494,16.0400009 1.99943067,16.0400009 C3.1031164,16.0400009 3.99886134,15.1417609 3.99886134,14.0350008 C3.99886134,12.9282407 3.1031164,12.0300007 1.99943067,12.0300007 M1.99943067,6.01500034 C0.89574494,6.01500034 0,6.91223789 0,8.02000046 C0,9.12676052 0.89574494,10.0250006 1.99943067,10.0250006 C3.1031164,10.0250006 3.99886134,9.12676052 3.99886134,8.02000046 C3.99886134,6.91223789 3.1031164,6.01500034 1.99943067,6.01500034 M1.99943067,0 C0.89574494,0 0,0.898240051 0,2.00500011 C0,3.11276268 0.89574494,4.01000023 1.99943067,4.01000023 C3.1031164,4.01000023 3.99886134,3.11276268 3.99886134,2.00500011 C3.99886134,0.898240051 3.1031164,0 1.99943067,0"></path>
	</g>
</svg>
