<svg xmlns="http://www.w3.org/2000/svg" width="24" height="14" viewBox="0 0 24 14"><g fill="#123154"><path d="M13.6 7.873H24v-1.6H13.914c-.05.545-.155 1.08-.313 1.6"/><path d="M15.93 11.04c.417.406.704.902.847 1.44H24v-1.6h-8.233l.164.16zM12.907 1.663c.287.5.52 1.037.693 1.598H24V1.664H12.907zM13.826 12.48l-1.64-1.598-1.97-1.92c.268-.334.493-.7.676-1.09.013-.02.022-.04.033-.06.22-.48.364-1 .437-1.538.032-.234.053-.468.053-.708 0-.823-.19-1.6-.52-2.306-.17-.363-.38-.704-.622-1.02-.143-.19-.297-.37-.465-.537-.014-.012-.026-.028-.038-.04l-.028-.03c-.024-.024-.052-.044-.075-.068-.193-.182-.402-.35-.624-.506C8.548.71 8 .43 7.4.25c-.175-.055-.36-.1-.544-.136C6.486.038 6.1 0 5.706 0S4.93.038 4.56.114c-.186.035-.37.08-.547.136C1.69.955 0 3.072 0 5.566 0 7.418.937 9.06 2.372 10.07c.94.664 2.09 1.06 3.335 1.06 1.312 0 2.52-.438 3.483-1.166l.94.918 1.642 1.598 1.342 1.31c.07.07.152.122.238.156.09.034.182.054.275.054.186 0 .372-.07.514-.21.285-.276.285-.725 0-1l-.314-.31zM8.083 9.005c-.68.447-1.496.71-2.376.71-2.347 0-4.254-1.863-4.254-4.15 0-1.143.477-2.182 1.25-2.93.77-.753 1.83-1.218 3.004-1.218.85 0 1.638.246 2.302.664.488.31.91.71 1.232 1.18.454.66.72 1.452.72 2.306 0 .24-.027.477-.065.708-.107.582-.33 1.125-.656 1.6-.305.444-.7.83-1.157 1.13"/></g></svg>