<svg xmlns="http://www.w3.org/2000/svg" width="24" height="14" viewBox="0 0 24 14">
  <path d="M13.6 7.873H24v-1.6H13.914a8.018 8.018 0 0 1-.313 1.6M15.93 11.04c.417.406.704.902.847 1.44H24v-1.6h-8.233l.164.16zm-3.023-9.377c.287.5.52 1.037.693 1.598H24V1.665H12.907zm.92 10.817l-1.64-1.598-1.97-1.92c.267-.334.492-.7.675-1.09.013-.02.022-.04.033-.06.22-.48.364-1 .437-1.538a5.2 5.2 0 0 0 .053-.708c0-.823-.19-1.6-.52-2.306a5.552 5.552 0 0 0-.622-1.02 4.96 4.96 0 0 0-.465-.537c-.014-.012-.026-.028-.038-.04l-.028-.03c-.024-.024-.052-.044-.075-.068a5.6 5.6 0 0 0-.624-.506A5.683 5.683 0 0 0 6.856.113C6.486.038 6.1 0 5.706 0S4.93.038 4.56.114a4.7 4.7 0 0 0-.547.136C1.69.955 0 3.072 0 5.566 0 7.418.937 9.06 2.372 10.07c.94.664 2.09 1.06 3.335 1.06A5.76 5.76 0 0 0 9.19 9.964l.94.918 1.642 1.598 1.342 1.31a.7.7 0 0 0 .238.156.73.73 0 0 0 .79-.156.692.692 0 0 0 0-1l-.315-.31zM8.082 9.005a4.31 4.31 0 0 1-2.376.71c-2.347 0-4.254-1.863-4.254-4.15 0-1.143.477-2.182 1.25-2.93a4.28 4.28 0 0 1 3.004-1.218c.85 0 1.638.246 2.302.664.487.31.91.71 1.23 1.18.455.66.72 1.453.72 2.307a4.144 4.144 0 0 1-.72 2.308c-.305.444-.7.83-1.157 1.13" fill="#123154"/>
</svg>
