<svg xmlns:svg="http://www.w3.org/2000/svg" xmlns="http://www.w3.org/2000/svg" version="1.1" x="0" y="0" viewBox="0 0 15.589231 15.78923" enable-background="new 0 0 40 40" xml:space="preserve" width="15.589231" height="15.78923">
  <path d="m1.8392305 11.75c-0.1-0.1-0.3-0.1-0.4 0.1l-1.40000002 3.7c-0.1 0.2 0 0.3 0.2 0.2l3.70000002-1.4c0.2-0.1 0.2-0.2 0.1-0.4zM13.53923 0.15c-0.2-0.2-0.5-0.2-0.7 0l-0.3 0.4-1 1 0.3 0.3 2 2 0.3 0.3 1-1 0.3-0.3c0.2-0.2 0.2-0.5 0-0.7z" fill="#000"/>
  <rect x="-12.948761" y="-5.8123183" transform="rotate(-134.9919)" width="3.7999635" height="11.799887" fill="#000"/>
</svg>
