<svg xmlns="http://www.w3.org/2000/svg" id="Layer_1" viewBox="0 0 40 40">
  <path d="M20 1C9.5 1 1 9.5 1 20s8.5 19 19 19 19-8.5 19-19S30.5 1 20 1zm12.6 31.6c-3.2 3.2-7.7 5.2-12.6 5.2s-9.3-2-12.6-5.2C4.2 29.3 2.2 24.9 2.2 20s2-9.3 5.2-12.6c3.2-3.2 7.7-5.2 12.6-5.2s9.3 2 12.6 5.2c3.2 3.2 5.2 7.7 5.2 12.6s-2 9.3-5.2 12.6zm-18.3-9.2c-.1-.1-.3-.1-.4.1l-1.4 3.7c-.1.2 0 .3.2.2l3.7-1.4c.2-.1.2-.2.1-.4l-2.2-2.2zM26 11.8c-.2-.2-.5-.2-.7 0l-.3.4-1 1 .3.3 2 2 .3.3 1-1 .3-.3c.2-.2.2-.5 0-.7l-1.9-2z" fill="#1A5EB8"/>
  <path fill="#1A5EB8" d="M17.505 24.917L14.82 22.23l8.343-8.343 2.687 2.687z"/>
</svg>
