<svg xmlns="http://www.w3.org/2000/svg" width="13.5" height="14" viewBox="0 0 13.5 14">
  <path fill="#D1D3D4" d="M13.07 11.452l-2.413-2.388a5.687 5.687 0 0 0 1.04-3.283c0-3.185-2.62-5.78-5.85-5.78C2.622 0 0 2.594 0 5.78c0 3.186 2.624 5.78 5.846 5.78.894 0 1.73-.196 2.49-.55l2.59 2.562c.28.276.652.428 1.05.428.403 0 .79-.16 1.076-.445a1.478 1.478 0 0 0 .017-2.103zM2.34 5.78c0-1.913 1.568-3.465 3.505-3.465 1.938 0 3.513 1.552 3.513 3.465 0 1.913-1.576 3.47-3.513 3.47-1.937 0-3.506-1.557-3.506-3.47z"/>
</svg>
