<svg xmlns="http://www.w3.org/2000/svg" width="14" height="14" viewBox="0 0 14 14">
  <path fill="#123154" d="M13.662 12.172l-1.598-1.56-1.92-1.872c.26-.325.48-.682.657-1.062.015-.02.024-.04.035-.06.214-.468.354-.974.426-1.5.03-.228.05-.457.05-.69 0-.803-.183-1.56-.505-2.25a5.432 5.432 0 0 0-1.06-1.517c-.015-.01-.026-.026-.04-.037l-.026-.03c-.024-.023-.05-.042-.074-.065a5.305 5.305 0 0 0-.608-.494 5.527 5.527 0 0 0-1.6-.79A5.2 5.2 0 0 0 6.862.11 5.643 5.643 0 0 0 4.09.244C1.827.932.178 2.997.178 5.43c0 1.805.913 3.406 2.313 4.393a5.625 5.625 0 0 0 3.254 1.034c1.28 0 2.456-.428 3.397-1.138l.92.893 1.6 1.56 1.31 1.277c.07.07.147.12.23.153a.72.72 0 0 0 .768-.152.677.677 0 0 0 0-.977l-.305-.3zm-5.6-3.388a4.22 4.22 0 0 1-2.32.692c-2.287 0-4.148-1.817-4.148-4.047 0-1.118.465-2.13 1.22-2.86a4.165 4.165 0 0 1 2.93-1.19A4.204 4.204 0 0 1 9.19 3.177a3.935 3.935 0 0 1 .64 2.938h-.002a3.977 3.977 0 0 1-.638 1.56c-.298.435-.684.81-1.13 1.106"/>
</svg>
