<svg xmlns="http://www.w3.org/2000/svg" width="14" height="14" viewBox="0 0 14 14"><path fill="#123154" d="M13.662 12.172l-1.598-1.56-1.92-1.872c.26-.325.48-.682.657-1.062.014-.02.023-.04.034-.06.214-.468.354-.974.426-1.5.03-.228.05-.457.05-.69 0-.803-.184-1.56-.506-2.25-.165-.353-.37-.686-.606-.995-.14-.183-.292-.358-.455-.522-.014-.01-.025-.027-.038-.038l-.027-.03c-.023-.023-.05-.042-.073-.065-.188-.178-.392-.343-.608-.494C8.514.69 7.98.42 7.397.243 7.224.19 7.044.147 6.863.112 6.502.038 6.127 0 5.744 0s-.76.037-1.12.11c-.18.036-.36.08-.533.134C1.827.932.178 2.997.178 5.43c0 1.805.913 3.406 2.313 4.393.917.647 2.038 1.034 3.253 1.034 1.28 0 2.456-.428 3.397-1.138l.918.894 1.6 1.56 1.31 1.277c.07.07.148.12.232.153.088.033.177.052.268.052.18 0 .363-.07.5-.204.278-.27.278-.707 0-.977l-.306-.3zm-5.6-3.388c-.664.435-1.46.692-2.32.692-2.287 0-4.148-1.817-4.148-4.047 0-1.117.465-2.13 1.22-2.86C3.56 1.834 4.6 1.38 5.743 1.38c.827 0 1.597.24 2.244.647.478.3.888.69 1.203 1.15.444.642.702 1.415.702 2.248 0 .235-.025.465-.062.69h-.002c-.102.57-.32 1.098-.638 1.56-.298.435-.684.81-1.13 1.106"/></svg>