<svg xmlns="http://www.w3.org/2000/svg" viewBox="0 0 32 32" preserveAspectRatio="xMinYMin meet">
  <path d="M25.624 11.956v.617c0 6.318-4.777 13.56-13.56 13.56-2.774 0-5.24-.77-7.397-2.157.462 0 .77.154 1.232.154 2.156 0 4.313-.77 6.01-2.003-2.005 0-3.854-1.387-4.47-3.39.31 0 .616.154.924.154.462 0 .462 0 1.08-.153-2.313-.462-4.316-2.465-4.316-4.777 0 .462 1.694.462 2.464.616C6.36 13.65 5.59 12.264 5.59 10.57c0-.926.31-1.697.77-2.467 2.31 2.928 6.01 4.777 9.863 5.085-.154-.463-.154-.772-.154-1.08 0-2.62 2.156-4.777 4.776-4.777 1.387 0 2.62.464 3.544 1.54 1.08-.306 2.004-.614 2.93-1.23-.464 1.23-1.234 2.003-2.004 2.62a14.37 14.37 0 0 0 2.773-.77c-.77.924-1.543 1.85-2.467 2.465z" fill="#2AA9E0" fill-rule="evenodd"/>
</svg>
