<svg xmlns="http://www.w3.org/2000/svg" viewBox="0 0 32 32" preserveAspectRatio="xMinYMin meet">
  <path d="M26.838 14.81c0-4.857-4.898-8.81-10.92-8.81C9.9 6 5 9.953 5 14.81c0 4.356 3.884 8.003 9.132 8.693.355.076.84.234.962.536.11.272.072.702.035.98l-.158.93c-.047.273-.22 1.072.946.584 1.164-.488 6.287-3.682 8.578-6.304 1.582-1.724 2.34-3.475 2.34-5.42zM11.645 17.7h-2.17a.57.57 0 0 1-.572-.57v-4.313a.572.572 0 0 1 1.145 0v3.745h1.597a.57.57 0 0 1 .572.57.57.57 0 0 1-.572.57zm2.244-.57c0 .316-.26.57-.574.57a.57.57 0 0 1-.573-.57v-4.313a.572.572 0 0 1 1.145 0v4.314zm5.22 0a.563.563 0 0 1-.39.54.57.57 0 0 1-.64-.197l-2.223-3.01v2.668a.57.57 0 0 1-.572.57.57.57 0 0 1-.573-.57V12.82a.57.57 0 0 1 .573-.57c.18 0 .35.086.458.228l2.223 3.01v-2.668a.572.572 0 0 1 1.143 0v4.314zm3.51-2.725c.317 0 .574.255.574.57 0 .313-.257.57-.573.57h-1.596v1.017h1.597c.317 0 .574.256.574.57 0 .314-.257.57-.573.57h-2.17a.572.572 0 0 1-.57-.57v-4.315c0-.314.256-.57.57-.57h2.17c.317 0 .574.256.574.57 0 .314-.257.57-.573.57h-1.596v1.018h1.597z" fill="#00C300" fill-rule="evenodd"/>
</svg>
