<svg xmlns="http://www.w3.org/2000/svg" xmlns:xlink="http://www.w3.org/1999/xlink" viewBox="0 0 32 32" preserveAspectRatio="xMinYMin meet">
  <defs>
    <path id="share-google-a" d="M0 .004h28.81V18.3H0V.005z"/>
  </defs>
  <g fill="none" fill-rule="evenodd" transform="translate(2 7)">
    <mask id="share-google-b" fill="#fff">
      <use xlink:href="#share-google-a"/>
    </mask>
    <path d="M25.64 7.52V4.35h-2.265v3.17h-3.262v2.265h3.262v3.26h2.265v-3.26h3.17V7.52h-3.17zM9.15 7.34v3.623s3.516-.005 4.948-.005c-.775 2.35-1.98 3.63-4.947 3.63-3 0-5.344-2.435-5.344-5.437 0-3 2.343-5.434 5.346-5.434 1.588 0 2.613.558 3.553 1.335.753-.752.69-.86 2.605-2.667C13.683.903 11.522 0 9.15 0 4.098 0 0 4.097 0 9.15c0 5.054 4.097 9.15 9.15 9.15 7.555 0 9.4-6.576 8.79-10.96H9.15z" fill="#DD4B39" mask="url(#share-google-b)"/>
  </g>
</svg>
