<svg width="24" height="24" viewBox="0 0 24 24" xmlns="http://www.w3.org/2000/svg"><path d="M6.91 15c.815 0 1.55-.35 2.08-.91l5.305 3.126c-.066.252-.113.51-.113.784 0 1.654 1.305 3 2.91 3C18.694 21 20 19.654 20 18s-1.305-3-2.91-3c-.815 0-1.55.35-2.08.91l-5.305-3.126c.066-.252.113-.51.113-.784 0-.273-.047-.533-.113-.784L15.01 8.09c.53.56 1.265.91 2.08.91C18.696 9 20 7.654 20 6s-1.305-3-2.91-3c-1.603 0-2.908 1.346-2.908 3 0 .273.047.532.113.784L8.99 9.91C8.46 9.35 7.725 9 6.91 9 5.304 9 4 10.345 4 12s1.305 3 2.91 3" fill="#999" fill-rule="evenodd"/></svg>
