<svg version="1.1" xmlns="http://www.w3.org/2000/svg" xmlns:xlink="http://www.w3.org/1999/xlink"><defs><path d="M41,43 L37,43 L37,41 L41,41 L41,43 Z M35,53 C31.7,53 29,50.3 29,47 C29,46.4 29.4,46 30,46 C30.6,46 31,46.4 31,47 C31,49.2 32.8,51 35,51 C37.2,51 39,49.2 39,47 C39,46.4 39.4,46 40,46 C40.6,46 41,46.4 41,47 C41,50.3 38.3,53 35,53 L35,53 Z M29,41 L33,41 L33,43 L29,43 L29,41 Z M50,45 L46.9,45 C46.7,42.4 45.7,40.1 44.1,38.3 L45.7,36.7 C46.1,36.3 46.1,35.7 45.7,35.3 C45.3,34.9 44.7,34.9 44.3,35.3 L42.7,36.9 C40.8,35.3 38.5,34.3 36,34.1 L36,31 C36,30.4 35.6,30 35,30 C34.4,30 34,30.4 34,31 L34,34.1 C31.4,34.3 29.1,35.3 27.3,36.9 L25.7,35.3 C25.3,34.9 24.7,34.9 24.3,35.3 C23.9,35.7 23.9,36.3 24.3,36.7 L25.9,38.3 C24.3,40.2 23.3,42.5 23.1,45 L20,45 C19.4,45 19,45.4 19,46 C19,46.6 19.4,47 20,47 L23.1,47 C23.3,49.6 24.3,51.9 25.9,53.7 L24.3,55.3 C23.9,55.7 23.9,56.3 24.3,56.7 C24.5,56.9 24.7,57 25,57 C25.3,57 25.5,56.9 25.7,56.7 L27.3,55.1 C29.2,56.7 31.5,57.7 34,57.9 L34,61 C34,61.6 34.4,62 35,62 C35.6,62 36,61.6 36,61 L36,57.9 C38.6,57.7 40.9,56.7 42.7,55.1 L44.3,56.7 C44.5,56.9 44.8,57 45,57 C45.3,57 45.5,56.9 45.7,56.7 C46.1,56.3 46.1,55.7 45.7,55.3 L44.1,53.7 C45.7,51.8 46.7,49.5 46.9,47 L50,47 C50.6,47 51,46.6 51,46 C51,45.4 50.6,45 50,45 L50,45 Z" id="sun-icon-path-1"></path><filter x="-50%" y="-50%" width="200%" height="200%" filterUnits="objectBoundingBox" id="sun-icon-filter-2"><feOffset dx="0" dy="1" in="SourceAlpha" result="shadowOffsetOuter1"></feOffset><feGaussianBlur stdDeviation="1.5" in="shadowOffsetOuter1" result="shadowBlurOuter1"></feGaussianBlur><feColorMatrix values="0 0 0 0 0   0 0 0 0 0   0 0 0 0 0  0 0 0 0.15 0" type="matrix" in="shadowBlurOuter1"></feColorMatrix></filter></defs><g id="sun-icon-Admins" stroke="none" stroke-width="1" fill="none" fill-rule="evenodd"><g id="sun-icon-m---Post-List-Welcome" transform="translate(-26.000000, -193.000000)"><g id="sun-icon-Guidelines---in-app-2" transform="translate(10.000000, 165.000000)"><g id="sun-icon-sun"><use fill="black" fill-opacity="1" filter="url(#sun-icon-filter-2)" xlink:href="#sun-icon-path-1"></use><use fill-rule="evenodd" class="sun-icon-color" xlink:href="#sun-icon-path-1"></use></g></g></g></g></svg>
