<svg width="38" height="38" viewBox="0 0 38 38" xmlns="http://www.w3.org/2000/svg" xmlns:xlink="http://www.w3.org/1999/xlink"><defs><path d="M41 43h-4v-2h4v2zm-6 10c-3.3 0-6-2.7-6-6 0-.6.4-1 1-1s1 .4 1 1c0 2.2 1.8 4 4 4s4-1.8 4-4c0-.6.4-1 1-1s1 .4 1 1c0 3.3-2.7 6-6 6zm-6-12h4v2h-4v-2zm21 4h-3.1c-.2-2.6-1.2-4.9-2.8-6.7l1.6-1.6c.4-.4.4-1 0-1.4-.4-.4-1-.4-1.4 0l-1.6 1.6c-1.9-1.6-4.2-2.6-6.7-2.8V31c0-.6-.4-1-1-1s-1 .4-1 1v3.1c-2.6.2-4.9 1.2-6.7 2.8l-1.6-1.6c-.4-.4-1-.4-1.4 0-.4.4-.4 1 0 1.4l1.6 1.6c-1.6 1.9-2.6 4.2-2.8 6.7H20c-.6 0-1 .4-1 1s.4 1 1 1h3.1c.2 2.6 1.2 4.9 2.8 6.7l-1.6 1.6c-.4.4-.4 1 0 1.4.2.2.4.3.7.3.3 0 .5-.1.7-.3l1.6-1.6c1.9 1.6 4.2 2.6 6.7 2.8V61c0 .6.4 1 1 1s1-.4 1-1v-3.1c2.6-.2 4.9-1.2 6.7-2.8l1.6 1.6c.2.2.5.3.7.3.3 0 .5-.1.7-.3.4-.4.4-1 0-1.4l-1.6-1.6c1.6-1.9 2.6-4.2 2.8-6.7H50c.6 0 1-.4 1-1s-.4-1-1-1z" id="b"/><filter x="-50%" y="-50%" width="200%" height="200%" filterUnits="objectBoundingBox" id="a"><feOffset dy="1" in="SourceAlpha" result="shadowOffsetOuter1"/><feGaussianBlur stdDeviation="1.5" in="shadowOffsetOuter1" result="shadowBlurOuter1"/><feColorMatrix values="0 0 0 0 0 0 0 0 0 0 0 0 0 0 0 0 0 0 0.15 0" in="shadowBlurOuter1"/></filter></defs><g transform="translate(-16 -28)" fill="none" fill-rule="evenodd"><use fill="#000" filter="url(#a)" xlink:href="#b"/><use fill="#FFF" xlink:href="#b"/></g></svg>