<svg width="40" height="40" viewBox="0 0 40 40" xmlns="http://www.w3.org/2000/svg"><g fill="#ED1C24" fill-rule="evenodd"><path d="M25 26H15v-9h10v9zm-7.125-12h4v1h-4v-1zM27 15h-3.125v-2c0-.552-.448-1-1-1h-6c-.552 0-1 .448-1 1v2H13c-.552 0-1 .448-1 1s.448 1 1 1v10c0 .552.448 1 1 1h12c.552 0 1-.448 1-1V17c.552 0 1-.448 1-1s-.448-1-1-1z"/><path d="M18 25c.552 0 1-.448 1-1v-4c0-.552-.448-1-1-1s-1 .448-1 1v4c0 .552.448 1 1 1M22 25c.552 0 1-.448 1-1v-4c0-.552-.448-1-1-1s-1 .448-1 1v4c0 .552.448 1 1 1"/></g></svg>