<svg width="16" height="19" viewBox="0 0 16 19" xmlns="http://www.w3.org/2000/svg" xmlns:xlink="http://www.w3.org/1999/xlink"><g fill="none" fill-rule="evenodd"><path d="M7.84 9.34v5.33c0 .37.3.67.66.67.37 0 .67-.3.67-.67V9.34c0-.37-.3-.67-.67-.67-.36 0-.66.3-.66.67M5.17 9.34v5.33c0 .37.3.67.67.67.37 0 .66-.3.66-.67V9.34c0-.37-.3-.67-.66-.67-.37 0-.67.3-.67.67M10.5 9.34v5.33c0 .37.3.67.67.67.37 0 .67-.3.67-.67V9.34c0-.37-.3-.67-.67-.67-.37 0-.66.3-.66.67" fill="#999"/><path d="M5.73 2.54L9.6 1.5l.33 1.24-3.87 1.03-.33-1.23zm9.75-.6c-.1-.35-.46-.57-.82-.47l-3.44.92-.5-1.88c-.05-.17-.17-.32-.32-.4-.15-.1-.33-.12-.5-.08l-5.16 1.4c-.35.08-.56.45-.47.8l.5 1.88L.5 5.27c-.36.1-.57.46-.48.8.08.3.35.5.65.5.05 0 .1 0 .17-.02L2.5 6.1V18c0 .37.3.67.67.67h10.67c.37 0 .67-.3.67-.67V6c0-.37-.3-.67-.66-.67-.37 0-.67.3-.67.67v11.34H3.84V6c0-.08-.02-.16-.05-.24L5.5 5.3h.26c.1-.03.17-.08.24-.13l4.64-1.25c.1.02.18 0 .27 0 .1-.04.17-.08.24-.13L15 2.75c.36-.1.58-.46.48-.82z" fill="#999"/></g></svg>
