<svg width="18" height="16" viewBox="0 0 18 16" xmlns="http://www.w3.org/2000/svg">
  <path d="M2.793 9.818h9.48c2.26 0 4.09-1.83 4.09-4.09s-1.83-4.092-4.09-4.092H.818C.366 1.636 0 1.27 0 .818 0 .366.366 0 .818 0h11.455C15.436 0 18 2.564 18 5.727c0 3.164-2.564 5.728-5.727 5.728h-9.48l2.695 2.694c.32.318.32.836 0 1.156-.32.32-.838.32-1.157 0l-4.09-4.09c-.148-.15-.24-.354-.24-.58 0-.226.092-.43.24-.578l4.09-4.09c.32-.32.838-.32 1.158 0 .32.318.32.836 0 1.156L2.793 9.818z" fill-rule="evenodd"/>
</svg>
