<svg width="24" height="24" viewBox="0 0 24 24" xmlns="http://www.w3.org/2000/svg"><g fill-rule="evenodd"><path class="upvote-icon-background" d="M0 0h24v24H0z"/><path d="M15.53 11.78c-.146.147-.338.22-.53.22s-.384-.073-.53-.22l-1.72-1.72v6.44c0 .414-.336.75-.75.75s-.75-.336-.75-.75v-6.44l-1.72 1.72c-.293.293-.767.293-1.06 0-.293-.293-.293-.767 0-1.06l3-3c.07-.07.15-.124.243-.162.184-.076.39-.076.574 0 .09.038.174.093.243.162l3 3c.293.293.293.767 0 1.06M12 3c-4.963 0-9 4.037-9 9s4.037 9 9 9 9-4.037 9-9-4.037-9-9-9"/></g></svg>
