<svg width="18" height="18" viewBox="0 0 18 18" xmlns="http://www.w3.org/2000/svg"><g id="Admin-Stuff" fill="none" fill-rule="evenodd"><g id="Post-List---Admin"><g id="Sidebar-Right"><g id="Home"><g id="Group-2"><path id="Rectangle-2" d="M0 0h18v18H0z"/><path d="M4.175 16c-.488 0-.948-.23-1.236-.622l-1.65-2.25c-.494-.67-.34-1.61.342-2.094.683-.487 1.634-.334 2.127.338L4 11.7l3.03-5.422c.252-.45.72-.744 1.243-.774.53-.034 1.023.204 1.33.622l1.51 2.068 3.028-5.416c.406-.726 1.332-.992 2.07-.59.737.398 1.005 1.31.6 2.036l-4.19 7.5c-.252.45-.72.743-1.243.773-.524.038-1.023-.204-1.33-.622l-1.51-2.07-3.028 5.418c-.253.45-.72.743-1.242.774L4.175 16" id="Activity-Small" fill="#999"/></g></g></g></g></g></svg>
