<?xml version="1.0" encoding="utf-8"?>
<!-- Generator: Adobe Illustrator 16.0.4, SVG Export Plug-In . SVG Version: 6.00 Build 0)  -->
<!DOCTYPE svg PUBLIC "-//W3C//DTD SVG 1.1//EN" "http://www.w3.org/Graphics/SVG/1.1/DTD/svg11.dtd">
<svg version="1.1" id="Layer_1" xmlns="http://www.w3.org/2000/svg" xmlns:xlink="http://www.w3.org/1999/xlink" x="0px" y="0px"
	 width="300px" height="300px" viewBox="0 0 300 300" enable-background="new 0 0 300 300" xml:space="preserve">
<g>
	<polygon points="98.557,126.46 125.925,99.092 78.08,51.238 108.138,21.327 20.793,21.327 20.727,108.538 50.581,78.487 	"/>
	<polygon points="249.04,222.145 201.067,174.173 173.7,201.542 221.545,249.395 191.488,279.305 278.832,279.305 278.896,192.094 	
		"/>
	<polygon points="201.041,126.431 248.893,78.585 278.804,108.644 278.804,21.299 191.593,21.229 221.644,51.084 173.672,99.062 	
		"/>
	<polygon points="98.589,174.2 50.735,222.046 20.825,191.989 20.825,279.333 108.036,279.403 77.985,249.548 125.958,201.569 	"/>
</g>
</svg>