<svg version="1.1" xmlns="http://www.w3.org/2000/svg" xmlns:xlink="http://www.w3.org/1999/xlink" viewBox="0 0 50 50"><defs></defs><g stroke="none" stroke-width="1" fill="none" fill-rule="evenodd"><g><path d="M25,50 C38.807,50 50,38.807 50,25 C50,11.193 38.807,0 25,0 C11.193,0 0,11.193 0,25 C0,38.807 11.193,50 25,50" class="fill-button-color"></path><path d="M29.143,0.348 C26.343,7.466 24.75,15.566 24.75,24.167 C24.75,33.4 26.586,42.056 29.782,49.538 C41.301,47.306 50,37.171 50,25 C50,12.605 40.978,2.323 29.143,0.348" fill-opacity="0.25" fill="#000000" style="mix-blend-mode: soft-light;"></path><path d="M49.551,29.7087 C42.766,27.2287 35.144,25.8337 27.083,25.8337 C17.47,25.8337 8.479,27.8177 0.791,31.2617 C3.57,42.0387 13.355,49.9997 25,49.9997 C37.197,49.9997 47.348,41.2637 49.551,29.7087" fill-opacity="0.5" fill="#000000" style="mix-blend-mode: soft-light;"></path></g></g></svg>
