<?xml version="1.0" encoding="utf-8"?>
<!-- Generator: Adobe Illustrator 16.0.4, SVG Export Plug-In . SVG Version: 6.00 Build 0)  -->
<!DOCTYPE svg PUBLIC "-//W3C//DTD SVG 1.1//EN" "http://www.w3.org/Graphics/SVG/1.1/DTD/svg11.dtd">
<svg version="1.1" xmlns="http://www.w3.org/2000/svg" xmlns:xlink="http://www.w3.org/1999/xlink" x="0px" y="0px" width="24px"
	 height="14px" viewBox="0 0 24 14" enable-background="new 0 0 24 14" xml:space="preserve">
<g id="white">
</g>
<g id="Layer_1">
	<g>
		<path fill="#123154" d="M13.601,7.873H24V6.274H13.914C13.864,6.818,13.759,7.354,13.601,7.873"/>
		<path fill="#123154" d="M15.931,11.041c0.416,0.405,0.703,0.901,0.846,1.44H24v-1.6h-8.233L15.931,11.041z"/>
		<path fill="#123154" d="M12.907,1.663c0.287,0.501,0.52,1.037,0.693,1.598H24V1.663H12.907z"/>
		<path fill="#123154" d="M13.826,12.48l-1.639-1.598l-1.97-1.921c0.267-0.333,0.492-0.7,0.675-1.088
			c0.013-0.021,0.022-0.041,0.033-0.062c0.22-0.479,0.364-0.998,0.437-1.537c0.032-0.234,0.053-0.468,0.053-0.708
			c0-0.823-0.189-1.601-0.52-2.306c-0.169-0.363-0.379-0.704-0.622-1.021C10.13,2.051,9.976,1.871,9.808,1.703
			C9.794,1.691,9.782,1.675,9.77,1.663c-0.011-0.01-0.019-0.021-0.028-0.031C9.718,1.609,9.69,1.589,9.667,1.565
			C9.474,1.383,9.265,1.214,9.043,1.059C8.548,0.709,7.999,0.431,7.401,0.25c-0.176-0.055-0.36-0.101-0.545-0.136
			C6.485,0.038,6.101,0,5.707,0S4.93,0.038,4.559,0.114C4.374,0.149,4.189,0.195,4.013,0.25C1.69,0.955,0,3.072,0,5.566
			c0,1.852,0.937,3.493,2.372,4.505c0.939,0.663,2.089,1.06,3.335,1.06c1.312,0,2.519-0.439,3.483-1.167l0.941,0.918l1.641,1.598
			l1.342,1.311c0.07,0.069,0.152,0.121,0.238,0.155C13.442,13.98,13.534,14,13.627,14c0.186,0,0.372-0.071,0.514-0.209
			c0.284-0.277,0.284-0.726,0-1.002L13.826,12.48z M8.083,9.005c-0.679,0.447-1.496,0.71-2.376,0.71
			c-2.347,0-4.254-1.863-4.254-4.149c0-1.144,0.477-2.183,1.249-2.932c0.77-0.752,1.832-1.217,3.005-1.217
			c0.849,0,1.638,0.246,2.302,0.664l0,0C8.498,2.39,8.919,2.791,9.242,3.26c0.454,0.66,0.719,1.452,0.719,2.306
			c0,0.241-0.026,0.477-0.064,0.708H9.896C9.79,6.856,9.567,7.399,9.241,7.873l0,0C8.935,8.318,8.539,8.704,8.083,9.005"/>
	</g>
</g>
<g id="phone_frame">
</g>
<g id="redline">
</g>
<g id="grid" display="none">
</g>
</svg>
