<?xml version="1.0" encoding="utf-8"?>
<!-- Generator: Adobe Illustrator 16.0.4, SVG Export Plug-In . SVG Version: 6.00 Build 0)  -->
<!DOCTYPE svg PUBLIC "-//W3C//DTD SVG 1.1//EN" "http://www.w3.org/Graphics/SVG/1.1/DTD/svg11.dtd">
<svg version="1.1" xmlns="http://www.w3.org/2000/svg" xmlns:xlink="http://www.w3.org/1999/xlink" x="0px" y="0px" width="13.5px"
	 height="14px" viewBox="0 0 13.5 14" enable-background="new 0 0 13.5 14" xml:space="preserve">
<g id="design">
	<g id="Your_Icon_1_">
		<g>
			<path fill="#D1D3D4" d="M13.069,11.452l-2.412-2.388c0.655-0.931,1.041-2.064,1.041-3.283C11.698,2.594,9.075,0,5.845,0
				C2.623,0,0,2.594,0,5.78c0,3.186,2.624,5.779,5.846,5.779c0.894,0,1.73-0.195,2.491-0.549l2.588,2.562
				C11.206,13.848,11.578,14,11.976,14c0.403,0,0.789-0.16,1.076-0.445C13.644,12.972,13.649,12.027,13.069,11.452z M2.339,5.78
				c0-1.913,1.569-3.465,3.506-3.465c1.938,0,3.513,1.552,3.513,3.465c0,1.913-1.576,3.47-3.513,3.47
				C3.908,9.25,2.339,7.693,2.339,5.78z"/>
		</g>
	</g>
</g>
<g id="phone_frame">
</g>
<g id="redline" display="none">
</g>
<g id="grid" display="none">
</g>
</svg>
