<?xml version="1.0" encoding="utf-8"?>
<!-- Generator: Adobe Illustrator 16.0.4, SVG Export Plug-In . SVG Version: 6.00 Build 0)  -->
<!DOCTYPE svg PUBLIC "-//W3C//DTD SVG 1.1//EN" "http://www.w3.org/Graphics/SVG/1.1/DTD/svg11.dtd">
<svg version="1.1" xmlns="http://www.w3.org/2000/svg" xmlns:xlink="http://www.w3.org/1999/xlink" x="0px" y="0px" width="14px"
	 height="14px" viewBox="0 0 14 14" enable-background="new 0 0 14 14" xml:space="preserve">
<g id="white">
</g>
<g id="Layer_1">
	<path fill="#123154" d="M13.662,12.172l-1.598-1.559L10.143,8.74c0.26-0.325,0.48-0.682,0.658-1.062
		c0.013-0.021,0.022-0.04,0.033-0.061c0.214-0.467,0.354-0.973,0.426-1.499c0.031-0.228,0.051-0.457,0.051-0.69
		c0-0.803-0.185-1.561-0.507-2.249c-0.165-0.354-0.369-0.687-0.606-0.996C10.057,2,9.906,1.825,9.743,1.661
		C9.729,1.649,9.718,1.633,9.705,1.622c-0.01-0.01-0.018-0.021-0.027-0.03C9.655,1.569,9.629,1.55,9.605,1.527
		C9.417,1.349,9.213,1.184,8.997,1.033C8.514,0.691,7.979,0.42,7.396,0.244C7.225,0.19,7.045,0.146,6.864,0.111
		C6.502,0.037,6.127,0,5.743,0s-0.758,0.037-1.12,0.111c-0.18,0.035-0.359,0.08-0.532,0.133C1.826,0.932,0.177,2.997,0.177,5.429
		c0,1.806,0.913,3.407,2.313,4.394c0.917,0.647,2.038,1.034,3.253,1.034c1.279,0,2.456-0.428,3.397-1.138l0.918,0.895l1.601,1.559
		l1.309,1.278c0.069,0.068,0.148,0.118,0.232,0.152c0.088,0.033,0.177,0.052,0.268,0.052c0.181,0,0.363-0.069,0.501-0.204
		c0.277-0.271,0.277-0.708,0-0.978L13.662,12.172z M8.061,8.784C7.398,9.219,6.602,9.476,5.743,9.476
		c-2.288,0-4.149-1.817-4.149-4.047c0-1.116,0.465-2.129,1.219-2.86C3.562,1.835,4.6,1.382,5.743,1.382
		c0.828,0,1.598,0.239,2.245,0.647l0,0c0.478,0.301,0.888,0.692,1.203,1.15c0.443,0.643,0.701,1.416,0.701,2.249
		c0,0.235-0.025,0.465-0.062,0.69H9.828C9.726,6.687,9.509,7.216,9.19,7.678l0,0C8.892,8.113,8.506,8.489,8.061,8.784"/>
</g>
<g id="phone_frame">
</g>
<g id="redline">
</g>
<g id="grid" display="none">
</g>
</svg>
