<svg width="22" height="24" viewBox="0 0 22 24" xmlns="http://www.w3.org/2000/svg">
  <path d="M3.667 15.6c.977 0 1.833-.36 2.444-.96l8.68 4.92c-.122.24-.122.6-.122.84 0 2.04 1.59 3.6 3.666 3.6C20.41 24 22 22.44 22 20.4s-1.59-3.6-3.667-3.6c-.977 0-1.833.36-2.444.96l-8.68-4.92c.122-.24.122-.6.122-.84s0-.6-.122-.84l8.68-5.04c.61.6 1.466.96 2.443.96 1.956 0 3.545-1.56 3.545-3.48S20.288.12 18.333.12c-1.955 0-3.544 1.56-3.544 3.48 0 .24 0 .48.12.84L6.233 9.48c-.61-.6-1.466-.96-2.444-.96-2.08 0-3.668 1.56-3.668 3.6S1.59 15.6 3.667 15.6z" fill="#1A5EB8" fill-rule="evenodd"/>
</svg>
